# This file uses centimeters as units for non-parametric coordinates.

v 7.211926 0.092522 -18.466854
v 9.195674 0.092522 -18.721302
v 7.084702 0.092522 -19.458729
v 9.068450 0.092522 -19.713177
v 7.211926 0.342522 -18.466854
v 9.195674 0.342522 -18.721302
v 9.068450 0.342522 -19.713177
v 7.084702 0.342522 -19.458729
v 7.245652 -0.084421 -20.775520
v 8.005239 -0.084421 -17.278816
v 7.245652 0.084421 -20.775520
v 8.005239 0.084421 -17.278816
v 7.537738 0.084421 -20.838968
v 8.297324 0.084421 -17.342266
v 7.537738 -0.084421 -20.838968
v 8.297324 -0.084421 -17.342266
v 6.612971 -0.084421 -20.980370
v 6.814483 -0.084421 -18.682302
v 6.612971 0.084421 -20.980370
v 6.814483 0.084421 -18.682302
v 6.960776 0.084421 -21.010866
v 7.162288 0.084421 -18.712801
v 6.960776 -0.084421 -21.010866
v 7.162288 -0.084421 -18.712801
v 7.948592 -0.084421 -20.308321
v 9.262837 -0.084421 -18.412411
v 7.948592 0.084421 -20.308321
v 9.262837 0.084421 -18.412411
v 8.484790 0.084421 -20.680012
v 9.799033 0.084421 -18.784101
v 8.484790 -0.084421 -20.680012
v 9.799033 -0.084421 -18.784101
v 6.451444 0.092522 -19.200872
v 8.042980 0.092522 -20.412077
v 5.845842 0.092522 -19.996641
v 7.437378 0.092522 -21.207844
v 6.451444 0.342522 -19.200872
v 8.042980 0.342522 -20.412077
v 7.437378 0.342522 -21.207844
v 5.845842 0.342522 -19.996641
v 6.859188 0.501519 -18.796278
v 6.772136 0.507915 -18.827581
v 6.765841 0.372133 -18.837822
v 6.852892 0.365737 -18.806519
v 7.672973 0.457325 -19.573648
v 7.696690 0.510678 -19.628696
v 7.717536 0.470402 -19.694899
v 7.706704 0.392158 -19.680763
v 7.679163 0.384076 -19.605827
v 7.162880 0.494807 -19.757080
v 7.186597 0.548160 -19.812128
v 7.207443 0.507884 -19.878330
v 7.196611 0.429640 -19.864195
v 7.169070 0.421558 -19.789259
v 7.694613 0.442928 -19.636766
v 7.184520 0.480410 -19.820198
v 7.378416 0.409938 -18.764217
v 7.402132 0.463291 -18.819267
v 7.422979 0.423015 -18.885468
v 7.412147 0.344771 -18.871334
v 7.384606 0.336689 -18.796398
v 6.868323 0.447420 -18.947651
v 6.892039 0.500772 -19.002699
v 6.912886 0.460497 -19.068899
v 6.902054 0.382253 -19.054766
v 6.874513 0.374171 -18.979830
v 7.400056 0.395541 -18.827337
v 6.889963 0.433023 -19.010769
v 7.967320 0.504679 -20.382502
v 7.991036 0.558031 -20.437550
v 8.011883 0.517756 -20.503750
v 8.001051 0.439512 -20.489616
v 7.973510 0.431430 -20.414680
v 7.457227 0.542161 -20.565933
v 7.480944 0.595513 -20.620981
v 7.501791 0.555238 -20.687181
v 7.490958 0.476993 -20.673048
v 7.463417 0.468912 -20.598112
v 7.988960 0.490282 -20.445620
v 7.478868 0.527763 -20.629051
v 7.645092 0.627952 -20.955908
v 7.638797 0.492170 -20.966148
v 7.551745 0.498567 -20.997454
v 7.558040 0.634349 -20.987213
vt 0.622700 0.103242
vt 0.812542 0.088419
vt 0.585947 0.063354
vt 0.939054 0.081124
vt 0.577062 0.239908
vt 0.930169 0.257677
vt 0.909661 0.073228
vt 0.590321 0.197944
vt 0.635830 0.122274
vt 0.816467 0.113422
vt 0.941275 0.036986
vt 0.913549 0.097525
vt 0.613152 0.208805
vt 0.588169 0.019216
vt 0.045177 0.082370
vt 0.454421 0.093614
vt 0.453890 0.112924
vt 0.044646 0.101680
vt 0.452951 0.147109
vt 0.043707 0.135865
vt 0.452421 0.166419
vt 0.043177 0.155176
vt 0.451481 0.200604
vt 0.042237 0.189360
vt 0.488606 0.094553
vt 0.488075 0.113863
vt 0.010992 0.081431
vt 0.010461 0.100741
vt 0.095115 0.041740
vt 0.404598 0.045051
vt 0.404356 0.067702
vt 0.094872 0.064392
vt 0.403855 0.114542
vt 0.094372 0.111231
vt 0.403613 0.137193
vt 0.094129 0.133882
vt 0.403112 0.184032
vt 0.093628 0.180721
vt 0.451438 0.045552
vt 0.451195 0.068203
vt 0.048275 0.041239
vt 0.048033 0.063891
vt 0.158407 0.019273
vt 0.403005 0.028500
vt 0.402330 0.046402
vt 0.157732 0.037175
vt 0.399720 0.115579
vt 0.155122 0.106352
vt 0.399045 0.133481
vt 0.154447 0.124254
vt 0.396435 0.202657
vt 0.151837 0.193430
vt 0.472181 0.031110
vt 0.471506 0.049012
vt 0.089231 0.016663
vt 0.088555 0.034565
vt -0.597647 1.256813
vt -0.246254 1.217792
vt -0.226743 1.393488
vt -0.578137 1.432509
vt -0.525140 1.250383
vt -0.335298 1.235560
vt -0.331373 1.260563
vt -0.512010 1.269415
vt -0.238179 1.220369
vt -0.234292 1.244666
vt -0.602525 1.212888
vt -0.251132 1.173867
vt -0.557519 1.345085
vt -0.534688 1.355947
vt 0.223950 0.888018
vt 0.246348 0.886328
vt 0.245583 0.900832
vt 0.225838 0.901295
vt 0.764844 0.847711
vt 0.781878 0.847711
vt 0.781878 0.975784
vt 0.764844 0.975784
vt 0.798912 0.847711
vt 0.798912 0.975784
vt 0.815945 0.847711
vt 0.815945 0.975784
vt 0.832979 0.847711
vt 0.832979 0.975784
vt 0.850013 0.847711
vt 0.850013 0.975784
vt 0.764364 0.890774
vt 0.823878 0.871437
vt 0.807429 0.919933
vt 0.764364 0.953350
vt 0.823878 0.972687
vt 0.860659 0.922062
vt 0.823878 0.973381
vt 0.764364 0.954044
vt 0.807429 0.920627
vt 0.764364 0.891468
vt 0.823878 0.872131
vt 0.860659 0.922756
vt 0.888562 0.847711
vt 0.905596 0.847711
vt 0.905596 0.975784
vt 0.888562 0.975784
vt 0.922629 0.847711
vt 0.922629 0.975784
vt 0.939663 0.847711
vt 0.939663 0.975784
vt 0.956697 0.847711
vt 0.956697 0.975784
vt 0.973730 0.847711
vt 0.973730 0.975784
vt 0.888082 0.890774
vt 0.947595 0.871437
vt 0.931146 0.919933
vt 0.888082 0.953350
vt 0.947595 0.972687
vt 0.984377 0.922062
vt 0.947595 0.973381
vt 0.888082 0.954044
vt 0.931146 0.920627
vt 0.888082 0.891468
vt 0.947595 0.872131
vt 0.984377 0.922756
vt 0.637783 0.847711
vt 0.654817 0.847711
vt 0.654817 0.975784
vt 0.637783 0.975784
vt 0.671850 0.847711
vt 0.671850 0.975784
vt 0.688884 0.847711
vt 0.688884 0.975784
vt 0.705918 0.847711
vt 0.705918 0.975784
vt 0.722952 0.847711
vt 0.722952 0.975784
vt 0.637303 0.890774
vt 0.696816 0.871437
vt 0.680367 0.919933
vt 0.637303 0.953350
vt 0.696816 0.972687
vt 0.733598 0.922062
vt 0.696816 0.973381
vt 0.637303 0.954044
vt 0.680367 0.920627
vt 0.637303 0.891468
vt 0.696816 0.872131
vt 0.733598 0.922756
vt 0.246271 0.936646
vt 0.608349 0.941426
vt 0.601586 0.962631
vt 0.246461 0.957933
vt 0.245970 0.922145
vt 0.607915 0.921572
vt 0.601021 0.900299
vt 0.601789 0.885853
vt -0.326702 1.366266
vt 0.821138 0.219124
vn 0.000000 -1.000000 -0.000000
vn 0.000000 -1.000000 -0.000000
vn 0.000000 -1.000000 -0.000000
vn 0.000000 -1.000000 -0.000000
vn 0.127224 0.000000 0.991874
vn 0.127224 0.000000 0.991874
vn 0.127224 0.000000 0.991874
vn 0.127224 0.000000 0.991874
vn 0.991874 0.000000 -0.127224
vn 0.991874 0.000000 -0.127224
vn 0.991874 0.000000 -0.127224
vn 0.991874 0.000000 -0.127224
vn -0.127224 0.000000 -0.991874
vn -0.127224 0.000000 -0.991874
vn -0.127224 0.000000 -0.991874
vn -0.127224 0.000000 -0.991874
vn -0.991874 0.000000 0.127224
vn -0.991874 0.000000 0.127224
vn -0.991874 0.000000 0.127224
vn -0.991874 0.000000 0.127224
vn 0.000000 1.000000 0.000000
vn 0.000000 1.000000 0.000000
vn 0.000000 1.000000 0.000000
vn 0.000000 1.000000 0.000000
vn -0.977209 0.000000 0.212278
vn -0.977209 0.000000 0.212278
vn -0.977209 0.000000 0.212278
vn -0.977209 0.000000 0.212278
vn 0.000000 1.000000 -0.000000
vn 0.000000 1.000000 -0.000000
vn 0.000000 1.000000 -0.000000
vn 0.000000 1.000000 -0.000000
vn 0.977209 0.000000 -0.212279
vn 0.977209 0.000000 -0.212279
vn 0.977209 0.000000 -0.212279
vn 0.977209 0.000000 -0.212279
vn 0.000000 -1.000000 0.000000
vn 0.000000 -1.000000 0.000000
vn 0.000000 -1.000000 0.000000
vn 0.000000 -1.000000 0.000000
vn 0.212278 0.000000 0.977209
vn 0.212278 0.000000 0.977209
vn 0.212278 0.000000 0.977209
vn 0.212278 0.000000 0.977209
vn -0.212273 0.000000 -0.977210
vn -0.212273 0.000000 -0.977210
vn -0.212273 0.000000 -0.977210
vn -0.212273 0.000000 -0.977210
vn -0.996178 0.000000 0.087352
vn -0.996178 0.000000 0.087352
vn -0.996178 0.000000 0.087352
vn -0.996178 0.000000 0.087352
vn 0.000000 1.000000 -0.000000
vn 0.000000 1.000000 -0.000000
vn 0.000000 1.000000 -0.000000
vn 0.000000 1.000000 -0.000000
vn 0.996178 0.000000 -0.087352
vn 0.996178 0.000000 -0.087352
vn 0.996178 0.000000 -0.087352
vn 0.996178 0.000000 -0.087352
vn 0.000000 -1.000000 0.000000
vn 0.000000 -1.000000 0.000000
vn 0.000000 -1.000000 0.000000
vn 0.000000 -1.000000 0.000000
vn 0.087353 0.000000 0.996177
vn 0.087353 0.000000 0.996177
vn 0.087353 0.000000 0.996177
vn 0.087353 0.000000 0.996177
vn -0.087349 0.000000 -0.996178
vn -0.087349 0.000000 -0.996178
vn -0.087349 0.000000 -0.996178
vn -0.087349 0.000000 -0.996178
vn -0.821849 0.000000 0.569706
vn -0.821849 0.000000 0.569706
vn -0.821849 0.000000 0.569706
vn -0.821849 0.000000 0.569706
vn 0.000000 1.000000 -0.000000
vn 0.000000 1.000000 -0.000000
vn 0.000000 1.000000 -0.000000
vn 0.000000 1.000000 -0.000000
vn 0.821849 0.000000 -0.569705
vn 0.821849 0.000000 -0.569705
vn 0.821849 0.000000 -0.569705
vn 0.821849 0.000000 -0.569705
vn 0.000000 -1.000000 -0.000000
vn 0.000000 -1.000000 -0.000000
vn 0.000000 -1.000000 -0.000000
vn 0.000000 -1.000000 -0.000000
vn 0.569706 0.000000 0.821849
vn 0.569706 0.000000 0.821849
vn 0.569706 0.000000 0.821849
vn 0.569706 0.000000 0.821849
vn -0.569705 0.000000 -0.821849
vn -0.569705 0.000000 -0.821849
vn -0.569705 0.000000 -0.821849
vn -0.569705 0.000000 -0.821849
vn 0.000000 -1.000000 0.000000
vn 0.000000 -1.000000 0.000000
vn 0.000000 -1.000000 0.000000
vn 0.000000 -1.000000 0.000000
vn 0.605602 0.000000 0.795768
vn 0.605602 0.000000 0.795768
vn 0.605602 0.000000 0.795768
vn 0.605602 0.000000 0.795768
vn 0.795767 0.000000 -0.605603
vn 0.795767 0.000000 -0.605603
vn 0.795767 0.000000 -0.605603
vn 0.795767 0.000000 -0.605603
vn -0.605602 0.000000 -0.795768
vn -0.605602 0.000000 -0.795768
vn -0.605602 0.000000 -0.795768
vn -0.605602 0.000000 -0.795768
vn -0.795768 0.000000 0.605601
vn -0.795768 0.000000 0.605601
vn -0.795768 0.000000 0.605601
vn -0.795768 0.000000 0.605601
vn 0.000000 1.000000 0.000000
vn 0.000000 1.000000 0.000000
vn 0.000000 1.000000 0.000000
vn 0.000000 1.000000 0.000000
vn -0.341437 -0.054936 0.938298
vn -0.341437 -0.054936 0.938298
vn -0.341437 -0.054936 0.938298
vn -0.341437 -0.054936 0.938298
vn -0.177124 0.743766 0.644546
vn -0.177124 0.743766 0.644546
vn -0.177124 0.743766 0.644546
vn -0.177124 0.743766 0.644546
vn 0.226342 0.862170 -0.453247
vn 0.226342 0.862170 -0.453247
vn 0.226342 0.862170 -0.453247
vn 0.226342 0.862170 -0.453247
vn 0.317012 -0.210931 -0.924668
vn 0.317012 -0.210931 -0.924668
vn 0.317012 -0.210931 -0.924668
vn 0.317012 -0.210931 -0.924668
vn -0.030417 -0.992521 -0.118221
vn -0.030417 -0.992521 -0.118221
vn -0.030417 -0.992521 -0.118221
vn -0.030417 -0.992521 -0.118221
vn -0.335821 -0.402490 0.851602
vn -0.335821 -0.402490 0.851602
vn -0.335821 -0.402490 0.851602
vn -0.335821 -0.402490 0.851602
vn 0.938763 -0.068988 0.337587
vn 0.938764 -0.068981 0.337585
vn 0.938764 -0.068981 0.337584
vn 0.938767 -0.068979 0.337579
vn 0.938767 -0.068976 0.337579
vn 0.938762 -0.068979 0.337592
vn -0.938763 0.068984 -0.337587
vn -0.938769 0.068982 -0.337570
vn -0.938765 0.068982 -0.337584
vn -0.938768 0.068983 -0.337575
vn -0.938762 0.068982 -0.337592
vn -0.938761 0.068979 -0.337594
vn -0.177124 0.743773 0.644538
vn -0.177124 0.743773 0.644538
vn -0.177124 0.743773 0.644538
vn -0.177124 0.743773 0.644538
vn 0.226346 0.862166 -0.453252
vn 0.226346 0.862166 -0.453252
vn 0.226346 0.862166 -0.453252
vn 0.226346 0.862166 -0.453252
vn 0.317016 -0.210912 -0.924671
vn 0.317016 -0.210912 -0.924671
vn 0.317016 -0.210912 -0.924671
vn 0.317016 -0.210912 -0.924671
vn -0.030419 -0.992521 -0.118221
vn -0.030419 -0.992521 -0.118221
vn -0.030419 -0.992521 -0.118221
vn -0.030419 -0.992521 -0.118221
vn -0.335817 -0.402505 0.851597
vn -0.335817 -0.402505 0.851597
vn -0.335817 -0.402505 0.851597
vn -0.335817 -0.402505 0.851597
vn 0.938765 -0.068986 0.337582
vn 0.938770 -0.068983 0.337569
vn 0.938765 -0.068984 0.337582
vn 0.938761 -0.068988 0.337591
vn 0.938765 -0.068981 0.337584
vn 0.938765 -0.068981 0.337583
vn -0.938764 0.068975 -0.337588
vn -0.938766 0.068980 -0.337580
vn -0.938764 0.068975 -0.337588
vn -0.938763 0.068982 -0.337587
vn -0.938762 0.068969 -0.337592
vn -0.938763 0.068969 -0.337592
vn -0.177126 0.743766 0.644545
vn -0.177126 0.743766 0.644545
vn -0.177126 0.743766 0.644545
vn -0.177126 0.743766 0.644545
vn 0.226345 0.862165 -0.453255
vn 0.226345 0.862165 -0.453255
vn 0.226345 0.862165 -0.453255
vn 0.226345 0.862165 -0.453255
vn 0.317018 -0.210915 -0.924670
vn 0.317018 -0.210915 -0.924670
vn 0.317018 -0.210915 -0.924670
vn 0.317018 -0.210915 -0.924670
vn -0.030419 -0.992521 -0.118221
vn -0.030419 -0.992521 -0.118221
vn -0.030419 -0.992521 -0.118221
vn -0.030419 -0.992521 -0.118221
vn -0.335820 -0.402493 0.851601
vn -0.335820 -0.402493 0.851601
vn -0.335820 -0.402493 0.851601
vn -0.335820 -0.402493 0.851601
vn 0.938763 -0.068986 0.337586
vn 0.938764 -0.068971 0.337587
vn 0.938764 -0.068975 0.337586
vn 0.938766 -0.068974 0.337581
vn 0.938765 -0.068978 0.337584
vn 0.938763 -0.068964 0.337592
vn -0.938757 0.068983 -0.337606
vn -0.938763 0.068995 -0.337585
vn -0.938761 0.068983 -0.337592
vn -0.938767 0.068981 -0.337578
vn -0.938761 0.068983 -0.337594
vn -0.938760 0.068976 -0.337598
vn 0.938764 -0.068984 0.337584
vn 0.938764 -0.068984 0.337584
vn 0.938764 -0.068984 0.337584
vn 0.938764 -0.068984 0.337584
vn -0.046182 -0.996104 -0.075121
vn -0.046182 -0.996104 -0.075121
vn -0.046182 -0.996104 -0.075121
vn -0.046182 -0.996104 -0.075121
vn -0.938764 0.068980 -0.337584
vn -0.938764 0.068980 -0.337584
vn -0.938764 0.068980 -0.337584
vn -0.938764 0.068980 -0.337584
vn 0.046180 0.996105 0.075121
vn 0.046180 0.996105 0.075121
vn 0.046180 0.996105 0.075121
vn 0.046180 0.996105 0.075121
vn 0.341435 0.054935 -0.938299
vn 0.341435 0.054935 -0.938298
vn 0.341435 0.054935 -0.938299
vn 0.341435 0.054935 -0.938298
s off
f 3/3/1 4/4/2 2/6/3 1/5/4
f 1/1/5 2/2/6 6/10/7 5/9/8
f 2/2/9 4/7/10 7/12/11 6/10/12
f 8/14/13 7/11/14 4/4/15 3/3/16
f 3/8/17 1/1/18 5/9/19 8/13/20
f 6/10/21 7/156/22 8/13/23 5/9/24
f 9/15/25 10/16/26 12/17/27 11/18/28
f 11/18/29 12/17/30 14/19/31 13/20/32
f 13/20/33 14/19/34 16/21/35 15/22/36
f 15/22/37 16/21/38 10/23/39 9/24/40
f 10/16/41 16/25/42 14/26/43 12/17/44
f 15/27/45 9/15/46 11/18/47 13/28/48
f 17/29/49 18/30/50 20/31/51 19/32/52
f 19/32/53 20/31/54 22/33/55 21/34/56
f 21/34/57 22/33/58 24/35/59 23/36/60
f 23/36/61 24/35/62 18/37/63 17/38/64
f 18/30/65 24/39/66 22/40/67 20/31/68
f 23/41/69 17/29/70 19/32/71 21/42/72
f 25/43/73 26/44/74 28/45/75 27/46/76
f 27/46/77 28/45/78 30/47/79 29/48/80
f 29/48/81 30/47/82 32/49/83 31/50/84
f 31/50/85 32/49/86 26/51/87 25/52/88
f 26/44/89 32/53/90 30/54/91 28/45/92
f 31/55/93 25/43/94 27/46/95 29/56/96
f 35/57/97 36/58/98 34/59/99 33/60/100
f 33/61/101 34/62/102 38/63/103 37/64/104
f 34/62/105 36/65/106 39/66/107 38/63/108
f 40/67/109 39/68/110 36/58/111 35/57/112
f 35/69/113 33/61/114 37/64/115 40/70/116
f 38/63/117 39/155/118 40/70/119 37/64/120
f 44/71/121 41/72/122 42/73/123 43/74/124
f 45/75/125 46/76/126 51/77/127 50/78/128
f 46/76/129 47/79/130 52/80/131 51/77/132
f 47/79/133 48/81/134 53/82/135 52/80/136
f 48/81/137 49/83/138 54/84/139 53/82/140
f 49/83/141 45/85/142 50/86/143 54/84/144
s 1
f 46/87/145 45/88/146 55/89/147
f 47/90/148 46/87/145 55/89/147
f 48/91/149 47/90/148 55/89/147
f 49/92/150 48/91/149 55/89/147
f 45/88/146 49/92/150 55/89/147
s 2
f 50/93/151 51/94/152 56/95/153
f 51/94/152 52/96/154 56/95/153
f 52/96/154 53/97/155 56/95/153
f 53/97/155 54/98/156 56/95/153
f 54/98/156 50/93/151 56/95/153
s off
f 57/99/157 58/100/158 63/101/159 62/102/160
f 58/100/161 59/103/162 64/104/163 63/101/164
f 59/103/165 60/105/166 65/106/167 64/104/168
f 60/105/169 61/107/170 66/108/171 65/106/172
f 61/107/173 57/109/174 62/110/175 66/108/176
s 3
f 58/111/177 57/112/178 67/113/179
f 59/114/180 58/111/177 67/113/179
f 60/115/181 59/114/180 67/113/179
f 61/116/182 60/115/181 67/113/179
f 57/112/178 61/116/182 67/113/179
s 4
f 62/117/183 63/118/184 68/119/185
f 63/118/184 64/120/186 68/119/185
f 64/120/186 65/121/187 68/119/185
f 65/121/187 66/122/188 68/119/185
f 66/122/188 62/117/183 68/119/185
s off
f 69/123/189 70/124/190 75/125/191 74/126/192
f 70/124/193 71/127/194 76/128/195 75/125/196
f 71/127/197 72/129/198 77/130/199 76/128/200
f 72/129/201 73/131/202 78/132/203 77/130/204
f 73/131/205 69/133/206 74/134/207 78/132/208
s 5
f 70/135/209 69/136/210 79/137/211
f 71/138/212 70/135/209 79/137/211
f 72/139/213 71/138/212 79/137/211
f 73/140/214 72/139/213 79/137/211
f 69/136/210 73/140/214 79/137/211
s 6
f 74/141/215 75/142/216 80/143/217
f 75/142/216 76/144/218 80/143/217
f 76/144/218 77/145/219 80/143/217
f 77/145/219 78/146/220 80/143/217
f 78/146/220 74/141/215 80/143/217
s off
f 44/147/221 82/148/222 81/149/223 41/150/224
f 43/151/225 83/152/226 82/148/227 44/147/228
f 42/73/229 84/153/230 83/152/231 43/151/232
f 41/72/233 81/154/234 84/153/235 42/73/236
f 82/148/237 83/152/238 84/153/239 81/149/240
