# Blender v2.80 (sub 75) OBJ File: 'baketest.blend'
# www.blender.org
mtllib Tree_02.mtl
o Tree02
v -2.002860 7.276164 -0.859640
v -2.048577 7.658120 -0.177280
v -2.220958 8.226422 0.007900
v -2.313197 8.226422 -0.837737
v -1.345516 7.509353 -0.010958
v -1.103582 8.226422 0.272256
v -1.032954 7.076297 -0.741413
v -0.784649 8.226422 -0.789904
v -1.558509 7.658120 -1.230642
v -1.527897 7.912929 -1.481778
v -2.048577 8.558135 -0.177279
v -2.186199 8.794726 -0.881987
v -1.335832 8.794726 -0.090400
v -1.032954 8.794726 -0.741412
v -1.558509 8.577371 -1.230641
v -1.632414 5.724889 -0.624345
v -1.632414 9.074033 -0.624344
v -0.438271 6.442328 0.137813
v -0.232291 6.613402 0.702398
v -0.304942 6.867942 0.912519
v -0.679857 6.867942 0.265801
v 0.391828 6.546771 0.585970
v 0.686979 6.867942 0.727496
v 0.383170 6.352811 -0.112180
v 0.565452 6.867942 -0.239468
v -0.213170 6.613402 -0.318368
v -0.277900 6.727530 -0.531063
v -0.232291 7.016513 0.702398
v -0.593546 7.122479 0.185069
v 0.371352 7.122479 0.518689
v 0.383170 7.122479 -0.112180
v -0.213170 7.025128 -0.318368
v -0.056897 5.747528 0.195121
v -0.056897 7.247579 0.195121
v -2.170546 6.126015 -1.362639
v -1.964567 6.351491 -0.798053
v -2.037218 6.686971 -0.587933
v -2.412132 6.686971 -1.234651
v -1.340447 6.263671 -0.914482
v -1.045297 6.686971 -0.772956
v -1.349105 6.008030 -1.612632
v -1.166824 6.686971 -1.739920
v -1.945445 6.351491 -1.818820
v -2.010176 6.501910 -2.031515
v -1.964567 6.882785 -0.798053
v -2.325821 7.022450 -1.315383
v -1.360923 7.022450 -0.981763
v -1.349105 7.022450 -1.612632
v -1.945445 6.894141 -1.818820
v -1.789172 5.210268 -1.305330
v -1.789172 7.187331 -1.305330
v -1.363085 5.279937 -1.228508
v -1.403261 5.845493 -0.628866
v -1.554744 6.686971 -0.466134
v -1.635802 6.686971 -1.209260
v -0.785427 5.625216 -0.482706
v -0.572821 6.686971 -0.233825
v -0.510755 4.983996 -1.124613
v -0.292551 6.686971 -1.167226
v -0.972601 5.845494 -1.554535
v -0.945699 6.222785 -1.775228
v -1.403261 7.178128 -0.628865
v -1.524199 7.528447 -1.248147
v -0.776918 7.528447 -0.552518
v -0.510755 7.528447 -1.124613
v -0.972601 7.206613 -1.554535
v -1.037547 2.982991 -1.021736
v -1.037547 7.942012 -1.021736
v -0.322392 4.766029 -1.899648
v -0.775459 5.088428 -1.874978
v -0.911255 5.568119 -1.973640
v -0.361731 5.568119 -2.102275
v -0.828556 4.962858 -1.398595
v -0.995656 5.568118 -1.216523
v -0.322392 4.597325 -1.251385
v -0.270522 5.568118 -1.091746
v -0.042381 5.088428 -1.636786
v 0.125473 5.303507 -1.636786
v -0.775459 5.848108 -1.874978
v -0.322392 6.047811 -2.022188
v -0.775459 6.047811 -1.398595
v -0.322392 6.047810 -1.251385
v -0.042381 5.864346 -1.636786
v -0.447616 3.456636 -1.636786
v -0.447616 6.283565 -1.636786
v -2.670402 4.505824 -0.638321
v -2.700734 4.932813 -0.185598
v -2.815103 5.568118 -0.062737
v -2.876300 5.568118 -0.623789
v -2.234277 4.766505 -0.075248
v -2.073761 5.568118 0.112654
v -2.026902 4.282392 -0.559881
v -1.862160 5.568118 -0.592053
v -2.375591 4.932813 -0.884468
v -2.355280 5.217664 -1.051088
v -2.700734 5.938937 -0.185598
v -2.792041 6.203424 -0.653148
v -2.227852 6.203424 -0.127955
v -2.026902 6.203424 -0.559881
v -2.375591 5.960443 -0.884468
v -2.424624 2.771655 -0.482210
v -2.424624 6.515662 -0.482210
v -2.075613 5.142719 -0.585241
v -2.010693 5.177927 -0.517991
v -2.181138 5.802546 -0.597200
v -2.253844 5.768581 -0.671658
v -1.929759 5.218577 -0.562782
v -2.088615 5.831483 -0.646264
v -1.944661 5.208514 -0.657713
v -2.104138 5.815402 -0.751050
v -2.034803 5.161628 -0.671593
v -2.206252 5.776530 -0.766745
v -1.389576 4.687047 -0.491971
v -1.333871 4.823054 -0.403740
v -1.310367 4.966558 -0.446323
v -1.351547 4.919266 -0.560873
v -1.400503 4.746519 -0.589083
v -0.793016 4.393916 -0.498214
v -0.776136 4.522968 -0.350606
v -0.740496 4.770286 -0.387643
v -0.735349 4.794085 -0.558142
v -0.767808 4.561473 -0.626478
v -0.673000 5.527294 -0.778493
v -0.919485 5.527294 -0.776800
v -0.969488 7.424930 -0.769598
v -0.758703 7.424930 -0.771047
v -0.994042 5.527294 -0.541855
v -1.033247 7.424930 -0.568683
v -0.793637 5.527294 -0.398345
v -0.861867 7.424930 -0.445958
v -0.595222 5.527294 -0.544595
v -0.692190 7.424930 -0.571026
v -0.179614 2.529661 -0.330873
v -0.490463 2.529661 -0.328738
v -0.584489 2.529661 -0.032444
v -0.331752 2.529661 0.148541
v -0.081525 2.529661 -0.035898
v 0.187439 0.011719 -0.323881
v -0.250076 0.011719 -0.320875
v -0.382418 0.011719 0.096156
v -0.026695 0.011719 0.350889
v 0.325496 0.011719 0.091293
v -0.863099 7.649476 -0.625262
v -2.193063 5.963598 -0.693722
v -0.251228 4.996788 -1.216269
v -0.351477 5.020262 -1.160310
v -0.537483 5.568525 -1.558378
v -0.481043 5.535603 -1.612555
v -0.328260 5.096227 -1.058509
v -0.507524 5.661034 -1.514109
v -0.213661 5.119703 -1.051550
v -0.432572 5.685317 -1.540925
v -0.166052 5.058243 -1.149050
v -0.416199 5.607739 -1.601772
v -0.270820 4.170643 -1.132414
v -0.406776 4.272666 -1.066070
v -0.384842 4.429945 -0.994314
v -0.235330 4.425117 -1.016308
v -0.164861 4.264859 -1.101659
v -0.378456 3.527035 -0.362102
v -0.572462 3.622499 -0.390936
v -0.577807 3.931423 -0.363407
v -0.387104 4.026887 -0.317555
v -0.263898 3.776959 -0.316750
v -0.530035 5.757925 -1.661738
v -0.182969 6.468225 0.117093
v -0.168981 6.491059 0.006293
v 0.250105 7.024373 0.090186
v 0.259989 6.992347 0.165642
v -0.262112 6.564954 -0.034236
v 0.198150 7.114358 0.088121
v -0.333660 6.587789 0.051515
v 0.175926 7.137979 0.162297
v -0.284747 6.528003 0.145042
v 0.214143 7.062518 0.210216
v -0.237353 5.664605 0.053382
v -0.210904 5.763845 -0.091376
v -0.279762 5.916837 -0.115582
v -0.348767 5.912142 0.014216
v -0.322556 5.756253 0.118641
v -0.772645 5.038993 -0.521369
v -0.658315 5.117938 -0.636424
v -0.674027 5.373411 -0.653481
v -0.798069 5.452355 -0.548970
v -0.859017 5.245673 -0.467319
v 0.284630 7.152625 0.150780
vt 0.642071 0.153410
vt 0.684371 0.186302
vt 0.683318 0.232638
vt 0.635985 0.237252
vt 0.732172 0.169301
vt 0.737502 0.229929
vt 0.790078 0.138693
vt 0.791833 0.228633
vt 0.841888 0.184920
vt 0.842428 0.210461
vt 0.875767 0.150720
vt 0.900167 0.231231
vt 0.686354 0.263952
vt 0.641926 0.286675
vt 0.739582 0.277429
vt 0.789067 0.274611
vt 0.842024 0.263815
vt 0.889732 0.279542
vt 0.662852 0.026144
vt 0.692670 0.023169
vt 0.780043 0.022217
vt 0.808399 0.023609
vt 0.852911 0.023946
vt 0.673938 0.319027
vt 0.716694 0.316392
vt 0.766057 0.314853
vt 0.811233 0.314117
vt 0.862163 0.315862
vt 0.359124 0.506582
vt 0.401424 0.539474
vt 0.400371 0.585810
vt 0.353038 0.590424
vt 0.449225 0.522473
vt 0.454555 0.583101
vt 0.507131 0.491865
vt 0.508886 0.581805
vt 0.558941 0.538092
vt 0.559481 0.563634
vt 0.592820 0.503892
vt 0.617220 0.584403
vt 0.403407 0.617124
vt 0.358979 0.639847
vt 0.456635 0.630601
vt 0.506120 0.627783
vt 0.559076 0.616987
vt 0.606785 0.632714
vt 0.379905 0.379316
vt 0.409723 0.376341
vt 0.497096 0.375389
vt 0.525451 0.376781
vt 0.569964 0.377118
vt 0.390991 0.672199
vt 0.433747 0.669564
vt 0.483110 0.668025
vt 0.528287 0.667289
vt 0.579216 0.669034
vt 0.644063 0.494380
vt 0.686363 0.527271
vt 0.685310 0.573607
vt 0.637977 0.578221
vt 0.734164 0.510271
vt 0.739494 0.570899
vt 0.792070 0.479663
vt 0.793825 0.569603
vt 0.843879 0.525889
vt 0.844419 0.551431
vt 0.877759 0.491690
vt 0.902158 0.572201
vt 0.688346 0.604922
vt 0.643918 0.627644
vt 0.741573 0.618398
vt 0.791058 0.615580
vt 0.844015 0.604784
vt 0.891723 0.620512
vt 0.664844 0.367113
vt 0.694662 0.364138
vt 0.782035 0.363186
vt 0.810390 0.364578
vt 0.854902 0.364916
vt 0.675930 0.659996
vt 0.718686 0.657361
vt 0.768049 0.655822
vt 0.813225 0.655086
vt 0.864155 0.656832
vt 0.015349 0.827866
vt 0.057649 0.860757
vt 0.056596 0.907094
vt 0.009264 0.911708
vt 0.105451 0.843757
vt 0.110780 0.904385
vt 0.163356 0.813149
vt 0.165111 0.903089
vt 0.215166 0.859375
vt 0.215706 0.884917
vt 0.249046 0.825176
vt 0.273445 0.905687
vt 0.059632 0.938408
vt 0.015204 0.961130
vt 0.112860 0.951885
vt 0.162345 0.949067
vt 0.215302 0.938270
vt 0.263010 0.953998
vt 0.036130 0.700599
vt 0.065948 0.697624
vt 0.153322 0.696672
vt 0.181677 0.698064
vt 0.226189 0.698402
vt 0.047217 0.993482
vt 0.089972 0.990847
vt 0.139335 0.989308
vt 0.184512 0.988572
vt 0.235441 0.990318
vt 0.297692 0.827076
vt 0.339992 0.859968
vt 0.338939 0.906304
vt 0.291606 0.910918
vt 0.387794 0.842967
vt 0.393123 0.903595
vt 0.445699 0.812359
vt 0.447454 0.902299
vt 0.497509 0.858586
vt 0.498049 0.884127
vt 0.531389 0.824387
vt 0.555788 0.904897
vt 0.341975 0.937619
vt 0.297547 0.960341
vt 0.395203 0.951095
vt 0.444688 0.948277
vt 0.497645 0.937481
vt 0.545353 0.953209
vt 0.318473 0.699810
vt 0.348291 0.696835
vt 0.435664 0.695883
vt 0.464020 0.697275
vt 0.508532 0.697613
vt 0.329560 0.992693
vt 0.372315 0.990058
vt 0.421678 0.988519
vt 0.466855 0.987783
vt 0.517784 0.989528
vt 0.573790 0.823633
vt 0.616090 0.856524
vt 0.615037 0.902861
vt 0.567704 0.907475
vt 0.663891 0.839524
vt 0.669221 0.900152
vt 0.721797 0.808916
vt 0.723552 0.898856
vt 0.773606 0.855142
vt 0.774147 0.880684
vt 0.807486 0.820943
vt 0.831886 0.901454
vt 0.618073 0.934175
vt 0.573645 0.956897
vt 0.671300 0.947652
vt 0.720785 0.944834
vt 0.773742 0.934037
vt 0.821450 0.949765
vt 0.594571 0.696366
vt 0.624389 0.693391
vt 0.711762 0.692439
vt 0.740117 0.693831
vt 0.784629 0.694169
vt 0.605657 0.989249
vt 0.648413 0.986614
vt 0.697776 0.985075
vt 0.742952 0.984339
vt 0.793882 0.986085
vt 0.433077 0.190986
vt 0.444529 0.186727
vt 0.451229 0.256604
vt 0.446498 0.268065
vt 0.457100 0.183377
vt 0.460264 0.253528
vt 0.470441 0.185316
vt 0.469148 0.257090
vt 0.482225 0.189086
vt 0.474043 0.267868
vt 0.494303 0.189895
vt 0.487402 0.268050
vt 0.414094 0.095527
vt 0.435424 0.092594
vt 0.454072 0.095683
vt 0.470150 0.099478
vt 0.492844 0.097821
vt 0.506782 0.093997
vt 0.389403 0.016097
vt 0.414233 0.014751
vt 0.445349 0.018328
vt 0.466207 0.018446
vt 0.496048 0.014201
vt 0.522813 0.012217
vt 0.049559 0.523997
vt 0.072307 0.525061
vt 0.083918 0.682383
vt 0.075394 0.698223
vt 0.095695 0.522943
vt 0.099000 0.678277
vt 0.118946 0.520387
vt 0.114177 0.681758
vt 0.141929 0.520852
vt 0.123068 0.697554
vt 0.164425 0.524990
vt 0.142710 0.699461
vt 0.038290 0.238625
vt 0.067200 0.240834
vt 0.096177 0.238522
vt 0.124666 0.233944
vt 0.153545 0.233832
vt 0.181716 0.240116
vt 0.010972 0.002686
vt 0.051756 0.003946
vt 0.092402 0.002283
vt 0.133061 -0.002257
vt 0.173945 -0.002824
vt 0.214143 0.004649
vt 0.099193 0.693297
vt 0.460732 0.265739
vt 0.257772 0.474313
vt 0.270655 0.474044
vt 0.278182 0.550340
vt 0.274285 0.556962
vt 0.283252 0.476436
vt 0.285943 0.549370
vt 0.295348 0.477550
vt 0.292336 0.551604
vt 0.307423 0.475898
vt 0.297285 0.558164
vt 0.320129 0.475955
vt 0.308419 0.556437
vt 0.245216 0.392676
vt 0.265079 0.394532
vt 0.280399 0.406576
vt 0.299388 0.409474
vt 0.318236 0.401144
vt 0.333272 0.395810
vt 0.223585 0.285780
vt 0.247881 0.289272
vt 0.276896 0.307395
vt 0.297304 0.313757
vt 0.324882 0.300224
vt 0.354327 0.289057
vt 0.288002 0.556030
vt 0.259807 0.206619
vt 0.272855 0.206492
vt 0.281991 0.282250
vt 0.277854 0.289251
vt 0.285663 0.208965
vt 0.290601 0.280788
vt 0.298090 0.210120
vt 0.297813 0.282216
vt 0.310266 0.208155
vt 0.302308 0.290037
vt 0.323124 0.207804
vt 0.313578 0.287890
vt 0.246980 0.120943
vt 0.267092 0.123546
vt 0.282416 0.136973
vt 0.301510 0.140148
vt 0.320394 0.130187
vt 0.335332 0.123692
vt 0.235794 0.009646
vt 0.256499 0.013985
vt 0.280696 0.030725
vt 0.298142 0.036716
vt 0.321589 0.024451
vt 0.345908 0.012369
vt 0.293555 0.288025
vn -0.8676 -0.2952 -0.4001
vn -0.6945 -0.3517 0.6276
vn -0.7020 -0.0303 0.7115
vn -0.9226 -0.0278 -0.3847
vn 0.4414 -0.3694 0.8178
vn 0.5872 -0.0048 0.8094
vn 0.9130 -0.3783 -0.1527
vn 0.9865 0.0194 -0.1626
vn 0.0773 -0.3404 -0.9371
vn 0.1070 -0.0669 -0.9920
vn -0.5650 0.5532 0.6122
vn -0.7170 0.5137 -0.4711
vn 0.3826 0.6656 0.6407
vn 0.7858 0.5727 -0.2333
vn 0.0559 0.3937 -0.9175
vn 0.0538 -0.9826 0.1780
vn -0.0810 0.9964 -0.0256
vn -0.8492 -0.5274 -0.0242
vn -0.3291 -0.5927 0.7351
vn -0.3386 -0.0580 0.9392
vn -0.9944 -0.0738 0.0756
vn 0.6123 -0.6178 0.4933
vn 0.8794 -0.0151 0.4758
vn 0.6674 -0.6138 -0.4216
vn 0.8420 -0.0109 -0.5393
vn -0.2704 -0.5763 -0.7712
vn -0.2894 -0.0513 -0.9558
vn -0.1958 0.7951 0.5740
vn -0.6865 0.7136 -0.1396
vn 0.4075 0.8613 0.3034
vn 0.4574 0.7918 -0.4048
vn -0.2656 0.6464 -0.7153
vn 0.0318 -0.9961 0.0826
vn -0.0456 0.9989 0.0050
vn -0.9059 -0.4231 -0.0196
vn -0.3565 -0.4873 0.7972
vn -0.3456 -0.0469 0.9372
vn -0.9974 -0.0515 0.0503
vn 0.6730 -0.5109 0.5348
vn 0.8728 -0.0123 0.4880
vn 0.7225 -0.5126 -0.4638
vn 0.8394 0.0048 -0.5434
vn -0.2915 -0.4725 -0.8317
vn -0.2962 -0.0571 -0.9534
vn -0.2290 0.7048 0.6714
vn -0.7630 0.6305 -0.1427
vn 0.4924 0.7924 0.3601
vn 0.5320 0.7079 -0.4647
vn -0.2929 0.5406 -0.7887
vn 0.0624 -0.9928 0.1022
vn -0.0591 0.9982 0.0065
vn -0.8950 -0.1765 -0.4097
vn -0.7225 -0.2195 0.6556
vn -0.7077 -0.0148 0.7063
vn -0.9123 -0.0077 -0.4095
vn 0.4782 -0.2282 0.8481
vn 0.5754 0.0017 0.8179
vn 0.9544 -0.2416 -0.1754
vn 0.9856 0.0271 -0.1671
vn 0.0869 -0.2120 -0.9734
vn 0.1018 -0.0713 -0.9923
vn -0.6323 0.3616 0.6852
vn -0.7815 0.3900 -0.4870
vn 0.4679 0.4849 0.7389
vn 0.8814 0.4070 -0.2399
vn 0.0581 0.2394 -0.9692
vn 0.1199 -0.9487 0.2925
vn -0.1263 0.9912 -0.0395
vn 0.2956 -0.2338 -0.9263
vn -0.7248 -0.2841 -0.6277
vn -0.7889 -0.0220 -0.6141
vn 0.2833 -0.0171 -0.9589
vn -0.7745 -0.2974 0.5583
vn -0.7376 -0.0010 0.6752
vn 0.2760 -0.3092 0.9101
vn 0.2831 0.0242 0.9588
vn 0.9609 -0.2747 -0.0347
vn 0.9974 -0.0705 -0.0169
vn -0.7203 0.4606 -0.5186
vn 0.3871 0.4516 -0.8039
vn -0.6373 0.5813 0.5059
vn 0.3392 0.4924 0.8015
vn 0.9470 0.3160 -0.0576
vn -0.2135 -0.9709 0.1086
vn 0.0191 0.9945 -0.1028
vn -0.8950 -0.1764 -0.4097
vn -0.7804 -0.5705 0.2559
vn -0.2846 -0.1174 0.9514
vn -0.1876 0.1237 0.9744
vn -0.9683 -0.1911 0.1609
vn 0.5518 0.6276 0.5492
vn 0.8412 0.3256 0.4316
vn 0.4692 0.2458 -0.8482
vn 0.6799 0.1314 -0.7214
vn -0.3529 -0.4084 -0.8418
vn -0.3900 -0.1779 -0.9035
vn -0.4880 -0.8470 0.2109
vn -0.2009 -0.1467 0.9686
vn 0.2038 0.7765 0.5963
vn 0.2327 0.5313 -0.8146
vn -0.1639 -0.3109 -0.9362
vn -0.4414 -0.8906 0.1096
vn -0.2149 -0.2794 0.9358
vn 0.1250 0.6436 0.7551
vn 0.1445 0.6115 -0.7779
vn -0.1351 -0.2212 -0.9658
vn 0.5412 -0.0185 -0.8407
vn -0.5908 -0.1346 -0.7955
vn -0.6000 0.0197 -0.7997
vn 0.5712 0.0593 -0.8187
vn -0.9608 -0.0647 0.2694
vn -0.9510 0.0173 0.3087
vn -0.0240 0.1257 0.9918
vn -0.0058 0.0553 0.9985
vn 0.9485 0.1580 0.2744
vn 0.9497 0.0818 0.3022
vn 0.5932 0.0378 -0.8041
vn -0.5961 -0.1311 -0.7921
vn -0.9404 -0.0615 0.3345
vn 0.0094 0.1269 0.9919
vn 0.9303 0.1877 0.3150
vn 0.6166 0.0877 -0.7824
vn -0.5701 -0.0570 -0.8196
vn -0.9385 -0.0579 0.3404
vn 0.0528 0.0863 0.9949
vn 0.9398 0.1670 0.2980
vn -0.0000 1.0000 -0.0000
vn -0.2707 0.9599 -0.0735
vn 0.0563 -0.2601 -0.9639
vn -0.9385 -0.1637 -0.3039
vn -0.9579 -0.2869 -0.0037
vn 0.0730 -0.5431 -0.8365
vn -0.4907 0.2475 0.8354
vn -0.5652 0.4275 0.7056
vn 0.5709 0.3681 0.7338
vn 0.5709 0.6802 0.4597
vn 0.9837 0.0435 -0.1747
vn 0.9140 0.1414 -0.3804
vn 0.2497 -0.6216 -0.7425
vn -0.7940 -0.2142 -0.5689
vn -0.8029 0.4405 0.4016
vn 0.6230 0.3994 0.6726
vn 0.9881 -0.0430 -0.1476
vn 0.1778 -0.7596 -0.6256
vn -0.7020 -0.4410 -0.5592
vn -0.9256 0.3782 0.0158
vn 0.5396 0.6690 0.5111
vn 0.9801 -0.1977 -0.0192
vn -0.3781 0.6382 -0.6706
vn 0.7429 -0.2601 0.6169
vn 0.8012 -0.1637 -0.5756
vn 0.5696 -0.2856 -0.7707
vn 0.6253 -0.5430 0.5604
vn -0.3818 0.2475 -0.8905
vn -0.2353 0.4320 -0.8706
vn -0.9294 0.3682 0.0246
vn -0.7099 0.6820 0.1760
vn -0.4426 0.0435 0.8957
vn -0.2472 0.1495 0.9574
vn 0.4547 -0.6293 0.6302
vn 0.9308 -0.2062 -0.3018
vn 0.1136 0.4353 -0.8931
vn -0.9277 0.3655 0.0761
vn -0.4966 -0.0504 0.8665
vn 0.4160 -0.7746 0.4764
vn 0.8693 -0.4274 -0.2483
vn 0.5219 0.3778 -0.7648
vn -0.7712 0.6303 0.0893
vn -0.6043 -0.2186 0.7662
vn 0.7872 0.6095 0.0936
usemtl Default_OBJ.012
s 1
f 1/1/1 2/2/2 3/3/3 4/4/4
f 2/2/2 5/5/5 6/6/6 3/3/3
f 5/5/5 7/7/7 8/8/8 6/6/6
f 7/7/7 9/9/9 10/10/10 8/8/8
f 9/9/9 1/11/1 4/12/4 10/10/10
f 4/4/4 3/3/3 11/13/11 12/14/12
f 3/3/3 6/6/6 13/15/13 11/13/11
f 6/6/6 8/8/8 14/16/14 13/15/13
f 8/8/8 10/10/10 15/17/15 14/16/14
f 10/10/10 4/12/4 12/18/12 15/17/15
f 2/2/2 1/1/1 16/19/16
f 5/5/5 2/2/2 16/20/16
f 7/7/7 5/5/5 16/21/16
f 9/9/9 7/7/7 16/22/16
f 1/11/1 9/9/9 16/23/16
f 12/14/12 11/13/11 17/24/17
f 11/13/11 13/15/13 17/25/17
f 13/15/13 14/16/14 17/26/17
f 14/16/14 15/17/15 17/27/17
f 15/17/15 12/18/12 17/28/17
f 18/29/18 19/30/19 20/31/20 21/32/21
f 19/30/19 22/33/22 23/34/23 20/31/20
f 22/33/22 24/35/24 25/36/25 23/34/23
f 24/35/24 26/37/26 27/38/27 25/36/25
f 26/37/26 18/39/18 21/40/21 27/38/27
f 21/32/21 20/31/20 28/41/28 29/42/29
f 20/31/20 23/34/23 30/43/30 28/41/28
f 23/34/23 25/36/25 31/44/31 30/43/30
f 25/36/25 27/38/27 32/45/32 31/44/31
f 27/38/27 21/40/21 29/46/29 32/45/32
f 19/30/19 18/29/18 33/47/33
f 22/33/22 19/30/19 33/48/33
f 24/35/24 22/33/22 33/49/33
f 26/37/26 24/35/24 33/50/33
f 18/39/18 26/37/26 33/51/33
f 29/42/29 28/41/28 34/52/34
f 28/41/28 30/43/30 34/53/34
f 30/43/30 31/44/31 34/54/34
f 31/44/31 32/45/32 34/55/34
f 32/45/32 29/46/29 34/56/34
f 35/57/35 36/58/36 37/59/37 38/60/38
f 36/58/36 39/61/39 40/62/40 37/59/37
f 39/61/39 41/63/41 42/64/42 40/62/40
f 41/63/41 43/65/43 44/66/44 42/64/42
f 43/65/43 35/67/35 38/68/38 44/66/44
f 38/60/38 37/59/37 45/69/45 46/70/46
f 37/59/37 40/62/40 47/71/47 45/69/45
f 40/62/40 42/64/42 48/72/48 47/71/47
f 42/64/42 44/66/44 49/73/49 48/72/48
f 44/66/44 38/68/38 46/74/46 49/73/49
f 36/58/36 35/57/35 50/75/50
f 39/61/39 36/58/36 50/76/50
f 41/63/41 39/61/39 50/77/50
f 43/65/43 41/63/41 50/78/50
f 35/67/35 43/65/43 50/79/50
f 46/70/46 45/69/45 51/80/51
f 45/69/45 47/71/47 51/81/51
f 47/71/47 48/72/48 51/82/51
f 48/72/48 49/73/49 51/83/51
f 49/73/49 46/74/46 51/84/51
f 52/85/52 53/86/53 54/87/54 55/88/55
f 53/86/53 56/89/56 57/90/57 54/87/54
f 56/89/56 58/91/58 59/92/59 57/90/57
f 58/91/58 60/93/60 61/94/61 59/92/59
f 60/93/60 52/95/52 55/96/55 61/94/61
f 55/88/55 54/87/54 62/97/62 63/98/63
f 54/87/54 57/90/57 64/99/64 62/97/62
f 57/90/57 59/92/59 65/100/65 64/99/64
f 59/92/59 61/94/61 66/101/66 65/100/65
f 61/94/61 55/96/55 63/102/63 66/101/66
f 53/86/53 52/85/52 67/103/67
f 56/89/56 53/86/53 67/104/67
f 58/91/58 56/89/56 67/105/67
f 60/93/60 58/91/58 67/106/67
f 52/95/52 60/93/60 67/107/67
f 63/98/63 62/97/62 68/108/68
f 62/97/62 64/99/64 68/109/68
f 64/99/64 65/100/65 68/110/68
f 65/100/65 66/101/66 68/111/68
f 66/101/66 63/102/63 68/112/68
f 69/113/69 70/114/70 71/115/71 72/116/72
f 70/114/70 73/117/73 74/118/74 71/115/71
f 73/117/73 75/119/75 76/120/76 74/118/74
f 75/119/75 77/121/77 78/122/78 76/120/76
f 77/121/77 69/123/69 72/124/72 78/122/78
f 72/116/72 71/115/71 79/125/79 80/126/80
f 71/115/71 74/118/74 81/127/81 79/125/79
f 74/118/74 76/120/76 82/128/82 81/127/81
f 76/120/76 78/122/78 83/129/83 82/128/82
f 78/122/78 72/124/72 80/130/80 83/129/83
f 70/114/70 69/113/69 84/131/84
f 73/117/73 70/114/70 84/132/84
f 75/119/75 73/117/73 84/133/84
f 77/121/77 75/119/75 84/134/84
f 69/123/69 77/121/77 84/135/84
f 80/126/80 79/125/79 85/136/85
f 79/125/79 81/127/81 85/137/85
f 81/127/81 82/128/82 85/138/85
f 82/128/82 83/129/83 85/139/85
f 83/129/83 80/130/80 85/140/85
f 86/141/86 87/142/53 88/143/54 89/144/55
f 87/142/53 90/145/56 91/146/57 88/143/54
f 90/145/56 92/147/58 93/148/59 91/146/57
f 92/147/58 94/149/60 95/150/61 93/148/59
f 94/149/60 86/151/86 89/152/55 95/150/61
f 89/144/55 88/143/54 96/153/62 97/154/63
f 88/143/54 91/146/57 98/155/64 96/153/62
f 91/146/57 93/148/59 99/156/65 98/155/64
f 93/148/59 95/150/61 100/157/66 99/156/65
f 95/150/61 89/152/55 97/158/63 100/157/66
f 87/142/53 86/141/86 101/159/67
f 90/145/56 87/142/53 101/160/67
f 92/147/58 90/145/56 101/161/67
f 94/149/60 92/147/58 101/162/67
f 86/151/86 94/149/60 101/163/67
f 97/154/63 96/153/62 102/164/68
f 96/153/62 98/155/64 102/165/68
f 98/155/64 99/156/65 102/166/68
f 99/156/65 100/157/66 102/167/68
f 100/157/66 97/158/63 102/168/68
f 103/169/87 104/170/88 105/171/89 106/172/90
f 104/170/88 107/173/91 108/174/92 105/171/89
f 107/173/91 109/175/93 110/176/94 108/174/92
f 109/175/93 111/177/95 112/178/96 110/176/94
f 111/177/95 103/179/87 106/180/90 112/178/96
f 113/181/97 114/182/98 104/170/88 103/169/87
f 114/182/98 115/183/99 107/173/91 104/170/88
f 115/183/99 116/184/100 109/175/93 107/173/91
f 116/184/100 117/185/101 111/177/95 109/175/93
f 117/185/101 113/186/97 103/179/87 111/177/95
f 118/187/102 119/188/103 114/182/98 113/181/97
f 119/188/103 120/189/104 115/183/99 114/182/98
f 120/189/104 121/190/105 116/184/100 115/183/99
f 121/190/105 122/191/106 117/185/101 116/184/100
f 122/191/106 118/192/102 113/186/97 117/185/101
f 123/193/107 124/194/108 125/195/109 126/196/110
f 124/194/108 127/197/111 128/198/112 125/195/109
f 127/197/111 129/199/113 130/200/114 128/198/112
f 129/199/113 131/201/115 132/202/116 130/200/114
f 131/201/115 123/203/107 126/204/110 132/202/116
f 133/205/117 134/206/118 124/194/108 123/193/107
f 134/206/118 135/207/119 127/197/111 124/194/108
f 135/207/119 136/208/120 129/199/113 127/197/111
f 136/208/120 137/209/121 131/201/115 129/199/113
f 137/209/121 133/210/117 123/203/107 131/201/115
f 138/211/122 139/212/123 134/206/118 133/205/117
f 139/212/123 140/213/124 135/207/119 134/206/118
f 140/213/124 141/214/125 136/208/120 135/207/119
f 141/214/125 142/215/126 137/209/121 136/208/120
f 142/215/126 138/216/122 133/210/117 137/209/121
f 132/202/116 143/217/127 130/200/114
f 112/178/96 144/218/128 110/176/94
f 125/195/109 128/198/112 143/217/127
f 143/217/127 128/198/112 130/200/114
f 126/196/110 143/217/127 132/202/116
f 125/195/109 143/217/127 126/196/110
f 105/171/89 108/174/92 144/218/128
f 144/218/128 108/174/92 110/176/94
f 106/172/90 144/218/128 112/178/96
f 105/171/89 144/218/128 106/172/90
f 145/219/129 146/220/130 147/221/131 148/222/132
f 146/220/130 149/223/133 150/224/134 147/221/131
f 149/223/133 151/225/135 152/226/136 150/224/134
f 151/225/135 153/227/137 154/228/138 152/226/136
f 153/227/137 145/229/129 148/230/132 154/228/138
f 155/231/139 156/232/140 146/220/130 145/219/129
f 156/232/140 157/233/141 149/223/133 146/220/130
f 157/233/141 158/234/142 151/225/135 149/223/133
f 158/234/142 159/235/143 153/227/137 151/225/135
f 159/235/143 155/236/139 145/229/129 153/227/137
f 160/237/144 161/238/145 156/232/140 155/231/139
f 161/238/145 162/239/146 157/233/141 156/232/140
f 162/239/146 163/240/147 158/234/142 157/233/141
f 163/240/147 164/241/148 159/235/143 158/234/142
f 164/241/148 160/242/144 155/236/139 159/235/143
f 154/228/138 165/243/149 152/226/136
f 147/221/131 150/224/134 165/243/149
f 165/243/149 150/224/134 152/226/136
f 148/222/132 165/243/149 154/228/138
f 147/221/131 165/243/149 148/222/132
f 166/244/150 167/245/151 168/246/152 169/247/153
f 167/245/151 170/248/154 171/249/155 168/246/152
f 170/248/154 172/250/156 173/251/157 171/249/155
f 172/250/156 174/252/158 175/253/159 173/251/157
f 174/252/158 166/254/150 169/255/153 175/253/159
f 176/256/160 177/257/161 167/245/151 166/244/150
f 177/257/161 178/258/162 170/248/154 167/245/151
f 178/258/162 179/259/163 172/250/156 170/248/154
f 179/259/163 180/260/164 174/252/158 172/250/156
f 180/260/164 176/261/160 166/254/150 174/252/158
f 181/262/165 182/263/166 177/257/161 176/256/160
f 182/263/166 183/264/167 178/258/162 177/257/161
f 183/264/167 184/265/168 179/259/163 178/258/162
f 184/265/168 185/266/169 180/260/164 179/259/163
f 185/266/169 181/267/165 176/261/160 180/260/164
f 175/253/159 186/268/170 173/251/157
f 168/246/152 171/249/155 186/268/170
f 186/268/170 171/249/155 173/251/157
f 169/247/153 186/268/170 175/253/159
f 168/246/152 186/268/170 169/247/153
