# Blender v2.80 (sub 75) OBJ File: 'baketest.blend'
# www.blender.org
mtllib Tree_01.mtl
o Tree01_(2)
v -0.425834 3.478626 1.107970
v 0.011263 3.379129 1.569864
v -0.194015 3.749490 2.021436
v -0.808126 3.749491 1.199185
v 0.629822 3.491430 1.422275
v 0.906411 3.858173 1.827688
v 0.811287 3.379129 0.812792
v 1.317093 3.749491 0.670742
v 0.374190 3.611876 0.350897
v 0.486341 3.749491 -0.025783
v -0.244370 3.379129 0.498486
v -0.514510 3.813665 0.213021
v -0.018814 4.250851 1.738926
v -0.559066 4.207283 1.109604
v 0.899963 4.207283 1.707742
v 1.193578 4.207283 0.721577
v 0.486341 4.207283 -0.025783
v -0.514510 4.207283 0.213021
v 0.011263 4.577644 1.569864
v -0.425834 4.577644 1.107970
v 0.629822 4.577644 1.422275
v 0.811287 4.577644 0.812792
v 0.410891 4.330006 0.594048
v -0.244370 4.577644 0.498486
v 0.192726 3.477093 0.960380
v 0.192726 4.719110 0.960380
v 0.928594 3.477155 -1.677769
v 0.799400 3.495019 -1.649587
v 0.923813 4.058108 -1.898742
v 1.066730 4.042718 -1.931707
v 0.790975 3.552827 -1.529621
v 0.914089 4.107914 -1.760272
v 0.914963 3.570691 -1.483660
v 1.050997 4.123303 -1.707658
v 1.000016 3.523922 -1.575220
v 1.145334 4.083011 -1.813610
v 0.408775 3.112637 -0.846683
v 0.247105 3.213129 -0.858943
v 0.261361 3.356127 -0.825161
v 0.431841 3.344013 -0.792022
v 0.522948 3.193527 -0.805324
v 0.045784 2.913629 -0.082727
v -0.158419 2.986274 -0.179332
v -0.173509 3.221360 -0.150775
v 0.021368 3.294005 -0.036517
v 0.156899 3.103816 0.005537
v 0.082521 3.824661 -0.248235
v -0.187480 3.824661 -0.160507
v -0.199780 5.187997 -0.168499
v 0.085425 5.187997 -0.261168
v -0.187480 3.824661 0.123390
v -0.199780 5.187997 0.131382
v 0.082521 3.824661 0.211118
v 0.085425 5.187997 0.224051
v 0.249391 3.824661 -0.018559
v 0.261691 5.187997 -0.018559
v 0.095987 1.565262 -0.308211
v -0.244520 1.565262 -0.197573
v -0.244520 1.565262 0.160456
v 0.095987 1.565262 0.271094
v 0.306431 1.565262 -0.018559
v 0.122486 -0.005187 -0.426239
v -0.356772 -0.005187 -0.270519
v -0.356772 -0.005187 0.233402
v 0.122486 -0.005187 0.389122
v 0.418683 -0.005187 -0.018559
v -0.705845 3.710136 0.264314
v -0.367509 3.572545 -0.547384
v 0.318415 4.084701 -0.541478
v -0.375948 4.084701 0.696229
v -0.901292 3.727840 -1.246239
v -0.544225 4.234993 -1.823384
v -1.773410 3.572545 -1.133398
v -2.236891 4.084701 -1.692870
v -2.111745 3.894401 -0.321700
v -2.650743 4.084701 -0.251961
v -1.577963 3.572545 0.377155
v -1.787064 4.173445 0.878810
v -0.136970 4.778007 -0.604287
v -0.628981 4.717759 0.431770
v -0.692189 4.717759 -1.747896
v -2.103306 4.717759 -1.565314
v -2.650743 4.717759 -0.251961
v -1.787064 4.717759 0.878810
v -0.367509 5.229914 -0.547384
v -0.705845 5.229914 0.264315
v -0.901292 5.229914 -1.246238
v -1.773410 5.229914 -1.133398
v -1.825065 4.887465 -0.504588
v -1.577963 5.229914 0.377156
v -1.239628 3.708014 -0.434541
v -1.239628 5.425540 -0.434541
v -1.247364 6.613077 0.300441
v -0.957899 6.513578 0.866666
v -1.281948 6.883942 1.242229
v -1.639875 6.883942 0.280399
v -0.322803 6.625879 0.899094
v -0.171467 6.992624 1.365954
v 0.022829 6.513578 0.365298
v 0.548170 6.883942 0.371315
v -0.266636 6.746328 -0.200926
v -0.053024 6.883942 -0.530830
v -0.901732 6.513578 -0.233353
v -1.080631 6.948116 -0.583299
v -1.034332 7.385302 1.020433
v -1.375673 7.341734 0.264520
v -0.143904 7.341734 1.249038
v 0.415340 7.341734 0.385339
v -0.053024 7.341734 -0.530830
v -1.080631 7.341734 -0.583299
v -0.957899 7.712095 0.866666
v -1.247364 7.712095 0.300441
v -0.322803 7.712095 0.899094
v 0.022829 7.712095 0.365298
v -0.299836 7.464457 0.042727
v -0.901732 7.712095 -0.233353
v -0.612268 6.611544 0.332869
v -0.612268 7.853561 0.332869
v 0.170700 4.033268 -1.613657
v 0.607797 3.933770 -1.151762
v 0.402519 4.304133 -0.700190
v -0.211591 4.304133 -1.522442
v 1.226357 4.046071 -1.299351
v 1.502945 4.412815 -0.893938
v 1.407821 3.933770 -1.908835
v 1.913628 4.304133 -2.050884
v 0.970724 4.166518 -2.370729
v 1.082876 4.304133 -2.747410
v 0.352164 3.933770 -2.223140
v 0.082025 4.368307 -2.508605
v 0.577720 4.805492 -0.982700
v 0.037468 4.761925 -1.612022
v 1.496498 4.761925 -1.013885
v 1.790112 4.761925 -2.000049
v 1.082876 4.761925 -2.747410
v 0.082025 4.761925 -2.508605
v 0.607797 5.132286 -1.151762
v 0.170700 5.132286 -1.613657
v 1.226357 5.132286 -1.299351
v 1.407821 5.132286 -1.908835
v 1.007426 4.884647 -2.127579
v 0.352164 5.132286 -2.223140
v 0.789260 4.031734 -1.761246
v 0.789260 5.273752 -1.761245
v 0.442075 4.924162 -0.913244
v -0.663060 4.751251 -0.913245
v -0.987858 5.394882 -1.711753
v 0.783581 5.394882 -1.504748
v -1.215628 4.946412 0.043830
v -2.057746 5.583755 -0.091304
v -0.663060 4.751251 1.000905
v -1.087939 5.394882 1.809040
v 0.442075 5.155730 1.000905
v 0.783580 5.394882 1.592411
v 0.994642 4.751251 0.043830
v 1.677653 5.506408 0.043831
v -0.840534 6.266167 -1.153149
v 0.599157 6.190453 -1.083368
v -1.898639 6.190453 0.043831
v -1.004566 6.190453 1.592412
v 0.783580 6.190453 1.592412
v 1.677653 6.190453 0.043831
v -0.663060 6.834082 -0.913244
v 0.442075 6.834082 -0.913243
v -1.215628 6.834082 0.043831
v -0.663060 6.834082 1.000906
v 0.091318 6.403725 0.756793
v 0.994642 6.834082 0.043831
v -0.110493 4.921496 0.043830
v -0.110493 7.079927 0.043831
vt 0.654728 0.846531
vt 0.706261 0.838811
vt 0.699713 0.881260
vt 0.635465 0.881926
vt 0.759435 0.847000
vt 0.754995 0.887353
vt 0.814648 0.842661
vt 0.815857 0.882202
vt 0.868911 0.855683
vt 0.870168 0.880770
vt 0.922939 0.845996
vt 0.927848 0.883601
vt 0.972107 0.842502
vt 0.993001 0.875943
vt 0.703702 0.923217
vt 0.646840 0.924894
vt 0.759139 0.912396
vt 0.815661 0.916098
vt 0.871388 0.912252
vt 0.926349 0.911073
vt 0.982869 0.919074
vt 0.707075 0.948500
vt 0.659559 0.954921
vt 0.760335 0.950293
vt 0.813719 0.948757
vt 0.860230 0.950409
vt 0.923148 0.948147
vt 0.973688 0.949685
vt 0.676055 0.802439
vt 0.743524 0.803807
vt 0.786217 0.804415
vt 0.854833 0.811023
vt 0.887779 0.811314
vt 0.943050 0.804020
vt 0.691522 0.992558
vt 0.734534 0.991051
vt 0.791446 0.990953
vt 0.843872 0.990231
vt 0.886326 0.986095
vt 0.944881 0.990429
vt 0.273070 0.483657
vt 0.284707 0.477714
vt 0.280674 0.540662
vt 0.265787 0.543559
vt 0.296987 0.472648
vt 0.294546 0.539120
vt 0.311393 0.476448
vt 0.307202 0.542539
vt 0.321479 0.484692
vt 0.321021 0.546702
vt 0.334802 0.486576
vt 0.335609 0.547196
vt 0.264784 0.384203
vt 0.283225 0.378340
vt 0.298030 0.379064
vt 0.314350 0.385773
vt 0.331841 0.389706
vt 0.346686 0.387664
vt 0.246374 0.297749
vt 0.270363 0.294397
vt 0.294437 0.294540
vt 0.318229 0.295798
vt 0.341839 0.298158
vt 0.365928 0.301571
vt 0.068459 0.414696
vt 0.097556 0.413657
vt 0.096093 0.552920
vt 0.065611 0.552578
vt 0.126586 0.413067
vt 0.126469 0.553003
vt 0.155656 0.412954
vt 0.156836 0.552910
vt 0.184730 0.413281
vt 0.187284 0.552653
vt 0.213787 0.413988
vt 0.217894 0.552128
vt 0.048531 0.187475
vt 0.084913 0.183028
vt 0.121641 0.180754
vt 0.158485 0.180724
vt 0.195222 0.182717
vt 0.231545 0.186669
vt 0.013055 0.031994
vt 0.063328 0.022932
vt 0.114108 0.018708
vt 0.164870 0.018962
vt 0.215519 0.023128
vt 0.266265 0.031202
vt 0.538955 0.070578
vt 0.607361 0.060330
vt 0.598669 0.116678
vt 0.513385 0.117561
vt 0.677944 0.071201
vt 0.672049 0.124765
vt 0.751233 0.065442
vt 0.752838 0.117927
vt 0.823261 0.082726
vt 0.824930 0.116027
vt 0.894979 0.069868
vt 0.901494 0.119784
vt 0.960244 0.065230
vt 0.987979 0.109620
vt 0.603963 0.172371
vt 0.528485 0.174597
vt 0.677551 0.158007
vt 0.752578 0.162921
vt 0.826549 0.157816
vt 0.899505 0.156251
vt 0.974529 0.166872
vt 0.608440 0.205932
vt 0.545367 0.214455
vt 0.679137 0.208312
vt 0.750000 0.206273
vt 0.811739 0.208465
vt 0.895256 0.205463
vt 0.962342 0.207504
vt 0.567266 0.012051
vt 0.656824 0.013866
vt 0.713494 0.014673
vt 0.804575 0.023445
vt 0.848307 0.023831
vt 0.921673 0.014149
vt 0.587796 0.264413
vt 0.644890 0.262414
vt 0.720435 0.262284
vt 0.790025 0.261325
vt 0.846379 0.255836
vt 0.924104 0.261588
vt 0.634792 0.392086
vt 0.687962 0.384120
vt 0.681206 0.427918
vt 0.614917 0.428605
vt 0.742825 0.392569
vt 0.738244 0.434204
vt 0.799792 0.388093
vt 0.801039 0.428889
vt 0.855777 0.401528
vt 0.857075 0.427412
vt 0.911522 0.391534
vt 0.916586 0.430333
vt 0.962251 0.387929
vt 0.983809 0.422432
vt 0.685321 0.471207
vt 0.626654 0.472937
vt 0.742520 0.460042
vt 0.800836 0.463862
vt 0.858333 0.459894
vt 0.915040 0.458677
vt 0.973354 0.466933
vt 0.688802 0.497293
vt 0.639776 0.503918
vt 0.743753 0.499143
vt 0.798833 0.497558
vt 0.846821 0.499262
vt 0.911737 0.496929
vt 0.963881 0.498516
vt 0.656797 0.346594
vt 0.726409 0.348005
vt 0.770458 0.348632
vt 0.841253 0.355450
vt 0.875245 0.355750
vt 0.932271 0.348225
vt 0.672756 0.542750
vt 0.717133 0.541196
vt 0.775853 0.541094
vt 0.829944 0.540349
vt 0.873746 0.536082
vt 0.934160 0.540553
vt 0.647823 0.618853
vt 0.699641 0.611090
vt 0.693057 0.653774
vt 0.628454 0.654443
vt 0.753108 0.619325
vt 0.748643 0.659900
vt 0.808625 0.614962
vt 0.809841 0.654720
vt 0.863187 0.628055
vt 0.864451 0.653281
vt 0.917513 0.618315
vt 0.922449 0.656127
vt 0.966952 0.614802
vt 0.987961 0.648428
vt 0.697067 0.695962
vt 0.639892 0.697648
vt 0.752810 0.685081
vt 0.809644 0.688803
vt 0.865677 0.684937
vt 0.920942 0.683751
vt 0.977773 0.691796
vt 0.700459 0.721385
vt 0.652681 0.727840
vt 0.754012 0.723187
vt 0.807691 0.721642
vt 0.854458 0.723303
vt 0.917723 0.721029
vt 0.968541 0.722576
vt 0.669269 0.574518
vt 0.737109 0.575893
vt 0.780038 0.576504
vt 0.849032 0.583150
vt 0.882159 0.583442
vt 0.937734 0.576108
vt 0.684821 0.765684
vt 0.728070 0.764170
vt 0.785295 0.764071
vt 0.838010 0.763345
vt 0.880698 0.759187
vt 0.939576 0.763544
vt 0.034495 0.753610
vt 0.117113 0.743014
vt 0.105214 0.810631
vt 0.002515 0.809524
vt 0.201814 0.757897
vt 0.193354 0.822235
vt 0.290197 0.752829
vt 0.290792 0.816059
vt 0.376474 0.775472
vt 0.377636 0.815606
vt 0.463145 0.761817
vt 0.469719 0.822079
vt 0.541838 0.757894
vt 0.574100 0.812043
vt 0.110170 0.877818
vt 0.019243 0.878576
vt 0.199131 0.862397
vt 0.289334 0.870223
vt 0.378521 0.865960
vt 0.466396 0.865932
vt 0.556450 0.880628
vt 0.114707 0.918337
vt 0.038554 0.926992
vt 0.199761 0.923001
vt 0.285127 0.922350
vt 0.359401 0.926561
vt 0.460027 0.925073
vt 0.540743 0.929237
vt 0.070069 0.683868
vt 0.177845 0.688332
vt 0.246053 0.690746
vt 0.355485 0.703626
vt 0.408127 0.705203
vt 0.496702 0.695414
vt 0.088364 0.988220
vt 0.157153 0.987266
vt 0.248108 0.989031
vt 0.331914 0.989649
vt 0.399900 0.984474
vt 0.493331 0.993377
vn -0.5346 -0.8413 0.0808
vn -0.0816 -0.8930 0.4425
vn -0.3711 -0.1670 0.9135
vn -0.9592 -0.1451 0.2427
vn 0.3860 -0.8284 0.4059
vn 0.5959 -0.2112 0.7748
vn 0.3975 -0.9167 -0.0412
vn 0.9046 -0.3654 -0.2195
vn 0.1073 -0.8553 -0.5070
vn 0.2545 -0.3324 -0.9082
vn -0.3196 -0.8830 -0.3437
vn -0.6799 -0.2810 -0.6773
vn -0.3083 0.5118 0.8019
vn -0.8671 0.4446 0.2247
vn 0.6082 0.4763 0.6350
vn 0.8574 0.4680 -0.2142
vn 0.2495 0.4437 -0.8607
vn -0.6084 0.4746 -0.6360
vn -0.2519 0.6841 0.6845
vn -0.7257 0.6566 0.2057
vn 0.4272 0.7814 0.4549
vn 0.4761 0.8696 -0.1306
vn 0.1554 0.8414 -0.5175
vn -0.2999 0.8738 -0.3828
vn 0.0250 -0.9976 -0.0639
vn 0.0547 0.9884 -0.1417
vn 0.2692 -0.7737 -0.5735
vn -0.6420 -0.4293 -0.6352
vn -0.7173 -0.1421 -0.6821
vn 0.4174 -0.4561 -0.7860
vn -0.7151 0.6987 0.0222
vn -0.8247 0.3622 0.4343
vn 0.4143 0.5579 0.7190
vn 0.3189 0.2884 0.9028
vn 0.8815 -0.4406 0.1696
vn 0.9723 -0.2036 0.1146
vn 0.1774 -0.9565 -0.2318
vn -0.6801 -0.4444 -0.5831
vn -0.6000 0.7638 -0.2380
vn 0.3886 0.8406 0.3774
vn 0.8925 -0.2574 0.3703
vn 0.2397 -0.9607 -0.1398
vn -0.6493 -0.5314 -0.5441
vn -0.6659 0.6760 -0.3154
vn 0.3520 0.8970 0.2675
vn 0.9161 -0.0519 0.3976
vn 0.3097 0.0141 -0.9507
vn -0.8087 0.0157 -0.5880
vn -0.8091 -0.0107 -0.5876
vn 0.3087 -0.0097 -0.9511
vn -0.8087 0.0157 0.5880
vn -0.8091 -0.0107 0.5876
vn 0.3097 0.0141 0.9507
vn 0.3087 -0.0097 0.9511
vn 0.9999 0.0131 -0.0000
vn 1.0000 -0.0090 -0.0000
vn 0.3094 0.0514 -0.9496
vn -0.8074 0.0572 -0.5872
vn -0.8074 0.0572 0.5872
vn 0.3093 0.0513 0.9496
vn 0.9988 0.0481 -0.0000
vn 0.3053 0.0765 -0.9492
vn -0.8070 0.0848 -0.5844
vn -0.8070 0.0848 0.5844
vn 0.3053 0.0765 0.9492
vn 0.9975 0.0713 -0.0000
vn 0.2908 -0.8413 0.4557
vn 0.4375 -0.8930 -0.1051
vn 0.9854 -0.1670 -0.0317
vn 0.6112 -0.1451 0.7780
vn 0.2143 -0.8284 -0.5176
vn 0.4662 -0.2112 -0.8591
vn -0.1990 -0.9167 -0.3466
vn -0.5679 -0.3654 -0.7376
vn -0.5069 -0.8553 0.1078
vn -0.9333 -0.3324 0.1361
vn -0.1844 -0.8830 0.4316
vn -0.3430 -0.2810 0.8963
vn 0.8580 0.5118 -0.0439
vn 0.5574 0.4446 0.7012
vn 0.3334 0.4763 -0.8136
vn -0.5438 0.4680 -0.6966
vn -0.8879 0.4437 0.1215
vn -0.3343 0.4746 0.8143
vn 0.7278 0.6841 -0.0477
vn 0.4826 0.6566 0.5797
vn 0.2423 0.7814 -0.5751
vn -0.3126 0.8696 -0.3821
vn -0.5360 0.8414 0.0681
vn -0.2281 0.8738 0.4295
vn -0.0686 -0.9976 0.0031
vn -0.1517 0.9884 0.0075
vn -0.5357 -0.8413 -0.0729
vn -0.2028 -0.8930 0.4017
vn -0.6131 -0.1670 0.7721
vn -0.9887 -0.1451 -0.0370
vn 0.2562 -0.8284 0.4982
vn 0.3538 -0.2112 0.9112
vn 0.3930 -0.9167 0.0724
vn 0.9298 -0.3654 0.0438
vn 0.2456 -0.8553 -0.4563
vn 0.4998 -0.3324 -0.7998
vn -0.2099 -0.8830 -0.4198
vn -0.4618 -0.2810 -0.8413
vn -0.5214 0.5118 0.6828
vn -0.8953 0.4446 -0.0283
vn 0.4050 0.4763 0.7805
vn 0.8830 0.4680 0.0357
vn 0.4816 0.4437 -0.7558
vn -0.4049 0.4746 -0.7815
vn -0.4343 0.6841 0.5859
vn -0.7542 0.6566 -0.0068
vn 0.2820 0.7814 0.5567
vn 0.4936 0.8696 0.0087
vn 0.2947 0.8414 -0.4529
vn -0.1801 0.8738 -0.4517
vn 0.0420 -0.9976 -0.0543
vn 0.0923 0.9884 -0.1205
vn 0.3975 -0.9167 -0.0411
vn 0.3088 -0.8413 -0.4438
vn -0.2653 -0.8930 -0.3634
vn -0.4084 -0.1670 -0.8974
vn 0.4830 -0.1451 -0.8635
vn -0.5602 -0.8284 0.0013
vn -0.9723 -0.2112 -0.0998
vn -0.2434 -0.9167 0.3170
vn -0.4623 -0.3654 0.8079
vn 0.2945 -0.8553 0.4264
vn 0.4847 -0.3324 0.8091
vn 0.4693 -0.8830 0.0041
vn 0.9593 -0.2810 -0.0283
vn -0.3706 0.5118 -0.7751
vn 0.4327 0.4446 -0.7843
vn -0.8793 0.4763 0.0053
vn -0.4338 0.4680 0.7700
vn 0.4537 0.4437 0.7728
vn 0.8802 0.4746 -0.0048
vn -0.3240 0.6841 -0.6535
vn 0.3494 0.6566 -0.6685
vn -0.6241 0.7814 -0.0024
vn -0.2324 0.8696 0.4356
vn 0.2691 0.8414 0.4686
vn 0.4842 0.8738 0.0453
vn 0.0292 -0.9976 0.0621
vn 0.0653 0.9884 0.1371
usemtl Default_OBJ.017
s 1
f 1/1/1 2/2/2 3/3/3 4/4/4
f 2/2/2 5/5/5 6/6/6 3/3/3
f 5/5/5 7/7/7 8/8/8 6/6/6
f 7/7/7 9/9/9 10/10/10 8/8/8
f 9/9/9 11/11/11 12/12/12 10/10/10
f 11/11/11 1/13/1 4/14/4 12/12/12
f 4/4/4 3/3/3 13/15/13 14/16/14
f 3/3/3 6/6/6 15/17/15 13/15/13
f 6/6/6 8/8/8 16/18/16 15/17/15
f 8/8/8 10/10/10 17/19/17 16/18/16
f 10/10/10 12/12/12 18/20/18 17/19/17
f 12/12/12 4/14/4 14/21/14 18/20/18
f 14/16/14 13/15/13 19/22/19 20/23/20
f 13/15/13 15/17/15 21/24/21 19/22/19
f 15/17/15 16/18/16 22/25/22 21/24/21
f 16/18/16 17/19/17 23/26/23 22/25/22
f 17/19/17 18/20/18 24/27/24 23/26/23
f 18/20/18 14/21/14 20/28/20 24/27/24
f 2/2/2 1/1/1 25/29/25
f 5/5/5 2/2/2 25/30/25
f 7/7/7 5/5/5 25/31/25
f 9/9/9 7/7/7 25/32/25
f 11/11/11 9/9/9 25/33/25
f 1/13/1 11/11/11 25/34/25
f 20/23/20 19/22/19 26/35/26
f 19/22/19 21/24/21 26/36/26
f 21/24/21 22/25/22 26/37/26
f 22/25/22 23/26/23 26/38/26
f 23/26/23 24/27/24 26/39/26
f 24/27/24 20/28/20 26/40/26
f 27/41/27 28/42/28 29/43/29 30/44/30
f 28/42/28 31/45/31 32/46/32 29/43/29
f 31/45/31 33/47/33 34/48/34 32/46/32
f 33/47/33 35/49/35 36/50/36 34/48/34
f 35/49/35 27/51/27 30/52/30 36/50/36
f 37/53/37 38/54/38 28/42/28 27/41/27
f 38/54/38 39/55/39 31/45/31 28/42/28
f 39/55/39 40/56/40 33/47/33 31/45/31
f 40/56/40 41/57/41 35/49/35 33/47/33
f 41/57/41 37/58/37 27/51/27 35/49/35
f 42/59/42 43/60/43 38/54/38 37/53/37
f 43/60/43 44/61/44 39/55/39 38/54/38
f 44/61/44 45/62/45 40/56/40 39/55/39
f 45/62/45 46/63/46 41/57/41 40/56/40
f 46/63/46 42/64/42 37/58/37 41/57/41
f 47/65/47 48/66/48 49/67/49 50/68/50
f 48/66/48 51/69/51 52/70/52 49/67/49
f 51/69/51 53/71/53 54/72/54 52/70/52
f 53/71/53 55/73/55 56/74/56 54/72/54
f 55/73/55 47/75/47 50/76/50 56/74/56
f 57/77/57 58/78/58 48/66/48 47/65/47
f 58/78/58 59/79/59 51/69/51 48/66/48
f 59/79/59 60/80/60 53/71/53 51/69/51
f 60/80/60 61/81/61 55/73/55 53/71/53
f 61/81/61 57/82/57 47/75/47 55/73/55
f 62/83/62 63/84/63 58/78/58 57/77/57
f 63/84/63 64/85/64 59/79/59 58/78/58
f 64/85/64 65/86/65 60/80/60 59/79/59
f 65/86/65 66/87/66 61/81/61 60/80/60
f 66/87/66 62/88/62 57/82/57 61/81/61
f 67/89/67 68/90/68 69/91/69 70/92/70
f 68/90/68 71/93/71 72/94/72 69/91/69
f 71/93/71 73/95/73 74/96/74 72/94/72
f 73/95/73 75/97/75 76/98/76 74/96/74
f 75/97/75 77/99/77 78/100/78 76/98/76
f 77/99/77 67/101/67 70/102/70 78/100/78
f 70/92/70 69/91/69 79/103/79 80/104/80
f 69/91/69 72/94/72 81/105/81 79/103/79
f 72/94/72 74/96/74 82/106/82 81/105/81
f 74/96/74 76/98/76 83/107/83 82/106/82
f 76/98/76 78/100/78 84/108/84 83/107/83
f 78/100/78 70/102/70 80/109/80 84/108/84
f 80/104/80 79/103/79 85/110/85 86/111/86
f 79/103/79 81/105/81 87/112/87 85/110/85
f 81/105/81 82/106/82 88/113/88 87/112/87
f 82/106/82 83/107/83 89/114/89 88/113/88
f 83/107/83 84/108/84 90/115/90 89/114/89
f 84/108/84 80/109/80 86/116/86 90/115/90
f 68/90/68 67/89/67 91/117/91
f 71/93/71 68/90/68 91/118/91
f 73/95/73 71/93/71 91/119/91
f 75/97/75 73/95/73 91/120/91
f 77/99/77 75/97/75 91/121/91
f 67/101/67 77/99/77 91/122/91
f 86/111/86 85/110/85 92/123/92
f 85/110/85 87/112/87 92/124/92
f 87/112/87 88/113/88 92/125/92
f 88/113/88 89/114/89 92/126/92
f 89/114/89 90/115/90 92/127/92
f 90/115/90 86/116/86 92/128/92
f 93/129/93 94/130/94 95/131/95 96/132/96
f 94/130/94 97/133/97 98/134/98 95/131/95
f 97/133/97 99/135/99 100/136/100 98/134/98
f 99/135/99 101/137/101 102/138/102 100/136/100
f 101/137/101 103/139/103 104/140/104 102/138/102
f 103/139/103 93/141/93 96/142/96 104/140/104
f 96/132/96 95/131/95 105/143/105 106/144/106
f 95/131/95 98/134/98 107/145/107 105/143/105
f 98/134/98 100/136/100 108/146/108 107/145/107
f 100/136/100 102/138/102 109/147/109 108/146/108
f 102/138/102 104/140/104 110/148/110 109/147/109
f 104/140/104 96/142/96 106/149/106 110/148/110
f 106/144/106 105/143/105 111/150/111 112/151/112
f 105/143/105 107/145/107 113/152/113 111/150/111
f 107/145/107 108/146/108 114/153/114 113/152/113
f 108/146/108 109/147/109 115/154/115 114/153/114
f 109/147/109 110/148/110 116/155/116 115/154/115
f 110/148/110 106/149/106 112/156/112 116/155/116
f 94/130/94 93/129/93 117/157/117
f 97/133/97 94/130/94 117/158/117
f 99/135/99 97/133/97 117/159/117
f 101/137/101 99/135/99 117/160/117
f 103/139/103 101/137/101 117/161/117
f 93/141/93 103/139/103 117/162/117
f 112/151/112 111/150/111 118/163/118
f 111/150/111 113/152/113 118/164/118
f 113/152/113 114/153/114 118/165/118
f 114/153/114 115/154/115 118/166/118
f 115/154/115 116/155/116 118/167/118
f 116/155/116 112/156/112 118/168/118
f 119/169/1 120/170/2 121/171/3 122/172/4
f 120/170/2 123/173/5 124/174/6 121/171/3
f 123/173/5 125/175/119 126/176/8 124/174/6
f 125/175/119 127/177/9 128/178/10 126/176/8
f 127/177/9 129/179/11 130/180/12 128/178/10
f 129/179/11 119/181/1 122/182/4 130/180/12
f 122/172/4 121/171/3 131/183/13 132/184/14
f 121/171/3 124/174/6 133/185/15 131/183/13
f 124/174/6 126/176/8 134/186/16 133/185/15
f 126/176/8 128/178/10 135/187/17 134/186/16
f 128/178/10 130/180/12 136/188/18 135/187/17
f 130/180/12 122/182/4 132/189/14 136/188/18
f 132/184/14 131/183/13 137/190/19 138/191/20
f 131/183/13 133/185/15 139/192/21 137/190/19
f 133/185/15 134/186/16 140/193/22 139/192/21
f 134/186/16 135/187/17 141/194/23 140/193/22
f 135/187/17 136/188/18 142/195/24 141/194/23
f 136/188/18 132/189/14 138/196/20 142/195/24
f 120/170/2 119/169/1 143/197/25
f 123/173/5 120/170/2 143/198/25
f 125/175/119 123/173/5 143/199/25
f 127/177/9 125/175/119 143/200/25
f 129/179/11 127/177/9 143/201/25
f 119/181/1 129/179/11 143/202/25
f 138/191/20 137/190/19 144/203/26
f 137/190/19 139/192/21 144/204/26
f 139/192/21 140/193/22 144/205/26
f 140/193/22 141/194/23 144/206/26
f 141/194/23 142/195/24 144/207/26
f 142/195/24 138/196/20 144/208/26
f 145/209/120 146/210/121 147/211/122 148/212/123
f 146/210/121 149/213/124 150/214/125 147/211/122
f 149/213/124 151/215/126 152/216/127 150/214/125
f 151/215/126 153/217/128 154/218/129 152/216/127
f 153/217/128 155/219/130 156/220/131 154/218/129
f 155/219/130 145/221/120 148/222/123 156/220/131
f 148/212/123 147/211/122 157/223/132 158/224/133
f 147/211/122 150/214/125 159/225/134 157/223/132
f 150/214/125 152/216/127 160/226/135 159/225/134
f 152/216/127 154/218/129 161/227/136 160/226/135
f 154/218/129 156/220/131 162/228/137 161/227/136
f 156/220/131 148/222/123 158/229/133 162/228/137
f 158/224/133 157/223/132 163/230/138 164/231/139
f 157/223/132 159/225/134 165/232/140 163/230/138
f 159/225/134 160/226/135 166/233/141 165/232/140
f 160/226/135 161/227/136 167/234/142 166/233/141
f 161/227/136 162/228/137 168/235/143 167/234/142
f 162/228/137 158/229/133 164/236/139 168/235/143
f 146/210/121 145/209/120 169/237/144
f 149/213/124 146/210/121 169/238/144
f 151/215/126 149/213/124 169/239/144
f 153/217/128 151/215/126 169/240/144
f 155/219/130 153/217/128 169/241/144
f 145/221/120 155/219/130 169/242/144
f 164/231/139 163/230/138 170/243/145
f 163/230/138 165/232/140 170/244/145
f 165/232/140 166/233/141 170/245/145
f 166/233/141 167/234/142 170/246/145
f 167/234/142 168/235/143 170/247/145
f 168/235/143 164/236/139 170/248/145
