# This file uses centimeters as units for non-parametric coordinates.

v 0.016702 0.000000 2.000000
v 4.000000 0.000000 2.000000
v 0.016702 7.000000 2.000000
v 4.000000 7.000000 2.000000
v 0.016702 7.000000 -2.000000
v 4.000000 7.000000 -2.000000
v 0.016702 0.000000 -2.000000
v 4.000000 0.000000 -2.000000
v 0.016703 -7.021757 2.000000
v 4.000000 -7.021757 2.000000
v 0.016703 -7.021757 -2.000000
v 4.000000 -7.021757 -2.000000
v 4.000000 2.000000 2.991648
v 2.000000 2.000000 2.991649
v 2.000000 3.000000 1.995824
v 4.000000 3.000000 1.995824
v 4.000000 2.000000 1.995824
v 2.000000 3.000000 1.995824
v 2.000000 2.000000 1.995824
v 2.000000 0.000000 2.991649
v 4.000000 0.000000 2.991648
v 4.000000 0.000000 1.995824
v 2.000000 0.000000 1.995824
v 2.000000 -7.048398 2.991649
v 4.000000 -7.048398 2.991648
v 4.000000 -7.048398 1.995824
v 2.000000 -7.048398 1.995824
v 0.016703 10.000000 -2.000000
v 2.000000 10.000000 -2.000000
v 0.016703 7.000000 -2.000000
v 2.000000 7.000000 -2.000000
v 0.016703 10.000000 2.000000
v 2.000000 10.000000 2.000000
v 2.000000 7.000000 2.000000
v 0.016703 7.000000 2.000000
v 0.016703 7.000000 0.000000
v 2.000000 7.000000 0.000000
v 2.000000 10.000000 0.000000
v 0.016703 10.000000 0.000000
v 3.000000 7.000000 0.000000
v 3.000000 10.000000 0.000000
v 3.000000 7.000000 -2.000000
v 3.000000 10.000000 -2.000000
v 4.000000 7.000000 -0.008352
v 3.000000 7.000000 -0.008352
v 3.000000 7.000000 -2.000000
v 3.000000 8.000000 -2.000000
v 4.000000 8.000000 -2.000000
v 4.000000 7.000000 -2.000000
v 3.000000 8.000000 -1.004176
v 4.000000 8.000000 -1.004176
v 4.000000 7.000000 -1.004176
vt 0.190284 0.000114
vt 0.379878 0.522562
vt 0.379840 0.333073
vt 0.759613 0.332996
vt 0.570123 0.333034
vt 0.570057 0.000038
vt 0.379773 0.000076
vt 0.759546 0.000000
vt 0.000000 0.000152
vt 0.570161 0.522524
vt 0.000067 0.333149
vt 0.190351 0.333111
vt 0.189489 0.856558
vt 0.000000 0.856522
vt 0.000062 0.522491
vt 0.189552 0.522526
vt 0.569262 0.856629
vt 0.379773 0.856593
vt 0.379835 0.522562
vt 0.569324 0.522597
vt 0.759546 0.856665
vt 0.759608 0.522633
vt 0.095415 0.495407
vt 0.000274 0.495567
vt 0.000160 0.428432
vt 0.095302 0.428272
vt 0.144043 0.428271
vt 0.096671 0.428271
vt 0.096671 0.475842
vt 0.194312 0.428261
vt 0.146940 0.475832
vt 0.146940 0.475832
vt 0.146940 0.428261
vt 0.000000 0.333290
vt 0.095142 0.333130
vt 0.144043 0.333129
vt 0.096671 0.333129
vt 0.146940 0.333119
vt 0.194312 0.333119
vt 0.809198 0.428153
vt 0.904340 0.428170
vt 0.904281 0.763469
vt 0.809139 0.763452
vt 0.761825 0.428145
vt 0.761767 0.763444
vt 0.904840 0.428223
vt 0.952212 0.428136
vt 0.952826 0.763435
vt 0.905454 0.763521
vt 0.761770 0.141924
vt 0.761767 0.047577
vt 0.856909 0.047574
vt 0.856911 0.141921
vt 0.474120 0.999324
vt 0.379773 0.999323
vt 0.379774 0.856611
vt 0.474121 0.856611
vt 0.857283 0.332999
vt 0.762936 0.333003
vt 0.762931 0.237861
vt 0.857278 0.237857
vt 0.999996 0.332992
vt 0.999991 0.237850
vt 0.094348 0.856608
vt 0.189490 0.856609
vt 0.189489 0.999322
vt 0.094347 0.999321
vt 0.000000 0.999320
vt 0.000001 0.856607
vt 0.857287 0.428141
vt 0.762940 0.428145
vt 0.237060 0.999322
vt 0.237061 0.856609
vt 0.332203 0.856610
vt 0.332202 0.999323
vt 0.952050 0.047571
vt 0.952053 0.141918
vt 1.000000 0.428134
vt 0.715369 0.428147
vt 0.715365 0.333006
vt 0.856907 0.000003
vt 0.952049 0.000000
vt 0.876274 0.189500
vt 0.876283 0.237071
vt 0.828911 0.237080
vt 0.828902 0.189509
vt 0.809137 0.189497
vt 0.809139 0.141926
vt 0.856511 0.141928
vt 0.856509 0.189499
vt 0.904080 0.189501
vt 0.904082 0.141930
vt 0.761776 0.237093
vt 0.761767 0.189522
vt 0.761767 0.141924
vn 0.000000 0.000000 1.000000
vn 0.000000 0.000000 1.000000
vn 0.000000 0.000000 1.000000
vn 0.000000 0.000000 1.000000
vn 0.000000 1.000000 0.000000
vn 0.000000 1.000000 0.000000
vn 0.000000 1.000000 0.000000
vn 0.000000 1.000000 0.000000
vn 0.000000 0.000000 -1.000000
vn 0.000000 0.000000 -1.000000
vn 0.000000 0.000000 -1.000000
vn 0.000000 0.000000 -1.000000
vn 1.000000 0.000000 0.000000
vn 1.000000 0.000000 0.000000
vn 1.000000 0.000000 0.000000
vn 1.000000 0.000000 0.000000
vn -1.000000 0.000000 0.000000
vn -1.000000 0.000000 0.000000
vn -1.000000 0.000000 0.000000
vn -1.000000 0.000000 0.000000
vn 0.000000 0.000000 1.000000
vn 0.000000 0.000000 1.000000
vn 0.000000 0.000000 1.000000
vn 0.000000 0.000000 1.000000
vn 0.000000 0.000000 -1.000000
vn 0.000000 0.000000 -1.000000
vn 0.000000 0.000000 -1.000000
vn 0.000000 0.000000 -1.000000
vn -1.000000 -0.000000 0.000000
vn -1.000000 -0.000000 0.000000
vn -1.000000 -0.000000 0.000000
vn -1.000000 -0.000000 0.000000
vn 1.000000 0.000000 0.000000
vn 1.000000 0.000000 0.000000
vn 1.000000 0.000000 0.000000
vn 1.000000 0.000000 0.000000
vn 0.000000 0.705626 0.708585
vn 0.000000 0.705626 0.708585
vn 0.000000 0.705626 0.708585
vn 0.000000 0.705626 0.708585
vn 1.000000 0.000000 0.000000
vn 1.000000 0.000000 0.000000
vn 1.000000 0.000000 0.000000
vn -1.000000 0.000000 0.000000
vn -0.000000 0.000000 0.000000
vn -0.000000 0.000000 0.000000
vn -1.000000 0.000000 0.000000
vn 0.000000 0.000000 1.000000
vn 0.000000 0.000000 1.000000
vn 0.000000 0.000000 1.000000
vn 0.000000 0.000000 1.000000
vn 1.000000 0.000000 0.000000
vn 1.000000 0.000000 0.000000
vn 1.000000 0.000000 0.000000
vn 1.000000 0.000000 0.000000
vn -1.000000 0.000000 0.000000
vn -1.000000 0.000000 0.000000
vn -1.000000 0.000000 0.000000
vn -1.000000 0.000000 0.000000
vn 0.000000 0.000000 1.000000
vn 0.000000 0.000000 1.000000
vn 0.000000 0.000000 1.000000
vn 0.000000 0.000000 1.000000
vn 1.000000 0.000000 0.000000
vn 1.000000 0.000000 0.000000
vn 1.000000 0.000000 0.000000
vn 1.000000 0.000000 0.000000
vn -1.000000 0.000000 0.000000
vn -1.000000 0.000000 0.000000
vn -1.000000 0.000000 0.000000
vn -1.000000 0.000000 0.000000
vn 0.000000 1.000000 0.000000
vn 0.000000 1.000000 0.000000
vn 0.000000 1.000000 0.000000
vn 0.000000 1.000000 0.000000
vn 0.000000 0.000000 -1.000000
vn 0.000000 0.000000 -1.000000
vn 0.000000 0.000000 -1.000000
vn 0.000000 0.000000 -1.000000
vn 0.000000 -1.000000 0.000000
vn 0.000000 -1.000000 0.000000
vn 0.000000 -1.000000 0.000000
vn 0.000000 -1.000000 0.000000
vn -1.000000 0.000000 0.000000
vn -1.000000 0.000000 0.000000
vn -1.000000 0.000000 0.000000
vn -1.000000 0.000000 0.000000
vn 1.000000 0.000000 0.000000
vn 1.000000 0.000000 0.000000
vn 1.000000 0.000000 0.000000
vn 1.000000 0.000000 0.000000
vn 0.000000 0.000000 1.000000
vn 0.000000 0.000000 1.000000
vn 0.000000 0.000000 1.000000
vn 0.000000 0.000000 1.000000
vn 0.000000 -1.000000 0.000000
vn 0.000000 -1.000000 0.000000
vn 1.000000 0.000000 0.000000
vn 1.000000 0.000000 0.000000
vn 1.000000 0.000000 0.000000
vn 1.000000 0.000000 0.000000
vn 0.000000 1.000000 0.000000
vn 0.000000 1.000000 0.000000
vn -1.000000 0.000000 0.000000
vn -1.000000 0.000000 0.000000
vn 0.000000 0.000000 1.000000
vn 0.000000 0.000000 1.000000
vn 0.000000 0.000000 1.000000
vn 0.000000 0.000000 1.000000
vn 0.000000 -1.000000 0.000000
vn 0.000000 -1.000000 0.000000
vn 0.000000 -1.000000 0.000000
vn 0.000000 -1.000000 0.000000
vn 0.000000 0.000000 -1.000000
vn 0.000000 0.000000 -1.000000
vn 0.000000 0.000000 -1.000000
vn 0.000000 0.000000 -1.000000
vn 0.000000 1.000000 0.000000
vn 0.000000 1.000000 0.000000
vn 0.000000 1.000000 0.000000
vn 0.000000 1.000000 0.000000
vn 0.000000 1.000000 0.000000
vn 0.000000 1.000000 0.000000
vn 0.000000 0.893676 0.448712
vn 0.000000 0.893676 0.448712
vn 1.000000 0.000000 0.000000
vn 1.000000 0.000000 0.000000
vn 1.000000 0.000000 0.000000
vn 1.000000 0.000000 0.000000
vn 0.000000 0.000000 -1.000000
vn 0.000000 0.000000 -1.000000
vn 0.000000 0.000000 -1.000000
vn 0.000000 0.000000 -1.000000
vn 0.000000 0.705626 0.708585
vn 0.000000 0.705626 0.708585
vn 1.000000 0.000000 0.000000
s off
f 1/1/1 2/7/2 4/3/3 3/12/4
f 3/2/5 4/3/6 6/5/7 5/10/8
f 5/4/9 6/5/10 8/6/11 7/8/12
f 2/7/13 8/6/14 6/5/15 4/3/16
f 7/9/17 1/1/18 3/12/19 5/11/20
f 2/13/21 1/14/22 9/15/23 10/16/24
f 7/17/25 8/18/26 12/19/27 11/20/28
f 1/21/29 7/17/30 11/20/31 9/22/32
f 8/18/33 2/13/34 10/16/35 12/19/36
f 16/23/37 15/24/38 14/25/39 13/26/40
f 13/27/41 17/28/42 16/29/43
f 14/30/44 15/31/45 18/32/46 19/33/47
f 13/26/48 14/25/49 20/34/50 21/35/51
f 17/28/52 13/27/53 21/36/54 22/37/55
f 14/30/56 19/33/57 23/38/58 20/39/59
f 21/40/60 20/41/61 24/42/62 25/43/63
f 22/44/64 21/40/65 25/43/66 26/45/67
f 20/46/68 23/47/69 27/48/70 24/49/71
s 1
f 32/50/72 33/51/73 38/52/74 39/53/75
s off
f 28/54/76 29/55/77 31/56/78 30/57/79
s 2
f 36/58/80 37/59/81 34/60/82 35/61/83
s 3
f 39/62/84 36/58/85 35/61/86 32/63/87
s off
f 34/64/88 37/65/89 38/66/90 33/67/91
f 33/67/92 32/68/93 35/69/94 34/64/95
s 2
f 30/70/96 31/71/97 37/59/81 36/58/80
s off
f 41/72/98 40/73/99 42/74/100 43/75/101
s 1
f 39/53/75 38/52/74 29/76/102 28/77/103
s 3
f 30/70/104 36/58/85 39/62/84 28/78/105
s off
f 38/66/106 37/65/107 40/73/108 41/72/109
f 37/59/110 31/71/111 42/79/112 40/80/113
f 31/56/114 29/55/115 43/75/116 42/74/117
f 29/76/118 38/52/119 41/81/120 43/82/121
s 4
f 48/83/122 47/84/123 50/85/124 51/86/125
s 5
f 51/87/126 52/88/127 49/89/128 48/90/129
s off
f 47/91/130 48/90/131 49/89/132 46/92/133
s 4
f 51/86/125 50/85/124 45/93/134 44/94/135
s 5
f 44/95/136 52/88/127 51/87/126
