# This file uses centimeters as units for non-parametric coordinates.

v 4.008351 0.000000 1.000000
v 4.008351 0.250000 1.000000
v 6.000000 0.250000 1.000000
v 6.000000 0.000000 1.000000
v 4.008351 0.000000 0.500000
v 6.000000 0.000000 0.500000
v 6.000000 0.250000 0.500000
v 4.008351 0.250000 0.500000
v 4.008351 0.000000 2.000000
v 4.008351 0.250000 2.000000
v 6.000000 0.250000 2.000000
v 6.000000 0.000000 2.000000
v 4.008351 0.000000 1.500000
v 6.000000 0.000000 1.500000
v 6.000000 0.250000 1.500000
v 4.008351 0.250000 1.500000
v 4.008351 0.000000 0.500000
v 4.008351 0.250000 0.500000
v 6.000000 0.250000 0.500000
v 6.000000 0.000000 0.500000
v 4.008351 0.000000 0.000000
v 6.000000 0.000000 0.000000
v 6.000000 0.250000 0.000000
v 4.008351 0.250000 0.000000
v 4.008351 0.000000 2.500000
v 4.008351 0.250000 2.500000
v 6.000000 0.250000 2.500000
v 6.000000 0.000000 2.500000
v 4.008351 0.000000 2.000000
v 6.000000 0.000000 2.000000
v 6.000000 0.250000 2.000000
v 4.008351 0.250000 2.000000
v 4.008351 0.000000 1.500000
v 4.008351 0.250000 1.500000
v 6.000000 0.250000 1.500000
v 6.000000 0.000000 1.500000
v 4.008351 0.000000 1.000000
v 6.000000 0.000000 1.000000
v 6.000000 0.250000 1.000000
v 4.008351 0.250000 1.000000
v 4.008351 0.000000 3.000000
v 4.008351 0.250000 3.000000
v 6.000000 0.250000 3.000000
v 6.000000 0.000000 3.000000
v 4.008351 0.000000 2.500000
v 6.000000 0.000000 2.500000
v 6.000000 0.250000 2.500000
v 4.008351 0.250000 2.500000
v 4.008351 0.000000 4.000000
v 4.008351 0.250000 4.000000
v 6.000000 0.250000 4.000000
v 6.000000 0.000000 4.000000
v 4.008351 0.000000 3.500000
v 6.000000 0.000000 3.500000
v 6.000000 0.250000 3.500000
v 4.008351 0.250000 3.500000
v 4.008351 0.000000 3.500000
v 4.008351 0.250000 3.500000
v 6.000000 0.250000 3.500000
v 6.000000 0.000000 3.500000
v 4.008351 0.000000 3.000000
v 6.000000 0.000000 3.000000
v 6.000000 0.250000 3.000000
v 4.008351 0.250000 3.000000
v 2.008352 0.000000 4.000000
v 2.008352 0.250000 4.000000
v 4.000000 0.250000 4.000000
v 4.000000 0.000000 4.000000
v 2.008352 0.000000 3.500000
v 4.000000 0.000000 3.500000
v 4.000000 0.250000 3.500000
v 2.008352 0.250000 3.500000
v 2.008352 0.000000 3.500000
v 2.008352 0.250000 3.500000
v 4.000000 0.250000 3.500000
v 4.000000 0.000000 3.500000
v 2.008352 0.000000 3.000000
v 4.000000 0.000000 3.000000
v 4.000000 0.250000 3.000000
v 2.008352 0.250000 3.000000
v 0.008352 0.000000 2.495824
v 0.008352 0.250000 2.495824
v 2.000000 0.250000 2.495824
v 2.000000 0.000000 2.495824
v 0.008352 0.000000 1.995824
v 2.000000 0.000000 1.995824
v 2.000000 0.250000 1.995824
v 0.008352 0.250000 1.995824
v 0.008352 0.000000 2.995824
v 0.008352 0.250000 2.995824
v 2.000000 0.250000 2.995824
v 2.000000 0.000000 2.995824
v 0.008352 0.000000 2.495824
v 2.000000 0.000000 2.495824
v 2.000000 0.250000 2.495824
v 0.008352 0.250000 2.495824
v 0.008352 0.000000 3.495824
v 0.008352 0.250000 3.495824
v 2.000000 0.250000 3.495824
v 2.000000 0.000000 3.495824
v 0.008352 0.000000 2.995824
v 2.000000 0.000000 2.995824
v 2.000000 0.250000 2.995824
v 0.008352 0.250000 2.995824
v 0.008352 0.000000 3.995824
v 0.008352 0.250000 3.995824
v 2.000000 0.250000 3.995824
v 2.000000 0.000000 3.995824
v 0.008352 0.000000 3.495824
v 2.000000 0.000000 3.495824
v 2.000000 0.250000 3.495824
v 0.008352 0.250000 3.495824
vt 0.697260 0.208593
vt 0.697924 0.394452
vt 0.716553 0.231611
vt 0.963106 0.233823
vt 0.986704 0.392562
vt 0.695583 0.322688
vt 0.984931 0.321592
vt 0.965904 0.298769
vt 0.719926 0.297141
vt 0.987678 0.208588
vt 0.722443 0.684848
vt 0.698101 0.710395
vt 0.699777 0.596299
vt 0.719070 0.619317
vt 0.965624 0.621530
vt 0.968422 0.686476
vt 0.990195 0.596295
vt 0.987449 0.709299
vt 0.989221 0.780268
vt 0.700441 0.782158
vt 0.722443 0.098253
vt 0.698101 0.123799
vt 0.699777 0.009704
vt 0.719070 0.032722
vt 0.965624 0.034934
vt 0.968422 0.099880
vt 0.990195 0.009700
vt 0.987449 0.122704
vt 0.989221 0.193673
vt 0.700441 0.195563
vt 0.719926 0.881219
vt 0.695583 0.906766
vt 0.697260 0.792670
vt 0.716553 0.815688
vt 0.963106 0.817900
vt 0.965904 0.882846
vt 0.987678 0.792666
vt 0.984931 0.905670
vt 0.986704 0.976639
vt 0.697924 0.978529
vt 0.722443 0.490995
vt 0.698101 0.516541
vt 0.699777 0.402446
vt 0.719070 0.425464
vt 0.965624 0.427676
vt 0.968422 0.492622
vt 0.990195 0.402441
vt 0.987449 0.515445
vt 0.989221 0.586415
vt 0.700441 0.588305
vt 0.352359 0.103288
vt 0.328017 0.128834
vt 0.329693 0.014739
vt 0.348986 0.037757
vt 0.595540 0.039969
vt 0.598338 0.104915
vt 0.620112 0.014735
vt 0.617365 0.127739
vt 0.619138 0.198708
vt 0.330357 0.200598
vt 0.352359 0.506100
vt 0.328017 0.531647
vt 0.329693 0.417551
vt 0.348987 0.440570
vt 0.595540 0.442782
vt 0.598338 0.507728
vt 0.620112 0.417547
vt 0.617365 0.530551
vt 0.619138 0.601520
vt 0.330357 0.603410
vt 0.354877 0.309729
vt 0.330535 0.335276
vt 0.332211 0.221181
vt 0.351504 0.244199
vt 0.598058 0.246411
vt 0.600855 0.311357
vt 0.622629 0.221176
vt 0.619883 0.334180
vt 0.621655 0.405150
vt 0.332875 0.407040
vt 0.349842 0.697436
vt 0.325499 0.722982
vt 0.327176 0.608887
vt 0.346469 0.631905
vt 0.593023 0.634117
vt 0.595820 0.699063
vt 0.617594 0.608883
vt 0.614847 0.721887
vt 0.616620 0.792856
vt 0.327840 0.794746
vt 0.349842 0.893807
vt 0.325499 0.919353
vt 0.327176 0.805258
vt 0.346469 0.828276
vt 0.593023 0.830488
vt 0.595820 0.895434
vt 0.617594 0.805254
vt 0.614847 0.918258
vt 0.616620 0.989227
vt 0.327840 0.991117
vt 0.037662 0.702471
vt 0.013320 0.728018
vt 0.014996 0.613922
vt 0.034289 0.636940
vt 0.280843 0.639153
vt 0.283641 0.704099
vt 0.305415 0.613918
vt 0.302668 0.726922
vt 0.304441 0.797891
vt 0.015660 0.799781
vt 0.037662 0.501065
vt 0.013320 0.526612
vt 0.014996 0.412516
vt 0.034289 0.435534
vt 0.280843 0.437746
vt 0.283641 0.502693
vt 0.305415 0.412512
vt 0.302668 0.525516
vt 0.304441 0.596485
vt 0.015660 0.598375
vt 0.037662 0.302177
vt 0.013320 0.327723
vt 0.014996 0.213628
vt 0.034289 0.236646
vt 0.280843 0.238858
vt 0.283641 0.303804
vt 0.305415 0.213623
vt 0.302668 0.326627
vt 0.304441 0.397597
vt 0.015660 0.399487
vt 0.037662 0.105806
vt 0.013320 0.131352
vt 0.014996 0.017257
vt 0.034289 0.040275
vt 0.280843 0.042487
vt 0.283641 0.107433
vt 0.305415 0.017252
vt 0.302668 0.130256
vt 0.304441 0.201226
vt 0.015660 0.203116
vn -1.000000 0.000000 0.000000
vn -1.000000 0.000000 0.000000
vn -1.000000 0.000000 0.000000
vn -1.000000 0.000000 0.000000
vn 0.000000 1.000000 0.000000
vn 0.000000 1.000000 0.000000
vn 0.000000 1.000000 0.000000
vn 0.000000 1.000000 0.000000
vn 0.000000 0.000000 1.000000
vn 0.000000 0.000000 1.000000
vn 0.000000 0.000000 1.000000
vn 0.000000 0.000000 1.000000
vn 0.000000 -1.000000 0.000000
vn 0.000000 -1.000000 0.000000
vn 0.000000 -1.000000 0.000000
vn 0.000000 -1.000000 0.000000
vn 1.000000 0.000000 0.000000
vn 1.000000 0.000000 0.000000
vn 1.000000 0.000000 0.000000
vn 1.000000 0.000000 0.000000
vn 0.000000 0.000000 -1.000000
vn 0.000000 0.000000 -1.000000
vn 0.000000 0.000000 -1.000000
vn 0.000000 0.000000 -1.000000
vn -1.000000 0.000000 0.000000
vn -1.000000 0.000000 0.000000
vn -1.000000 0.000000 0.000000
vn -1.000000 0.000000 0.000000
vn 0.000000 1.000000 0.000000
vn 0.000000 1.000000 0.000000
vn 0.000000 1.000000 0.000000
vn 0.000000 1.000000 0.000000
vn 0.000000 0.000000 1.000000
vn 0.000000 0.000000 1.000000
vn 0.000000 0.000000 1.000000
vn 0.000000 0.000000 1.000000
vn 0.000000 -1.000000 0.000000
vn 0.000000 -1.000000 0.000000
vn 0.000000 -1.000000 0.000000
vn 0.000000 -1.000000 0.000000
vn 1.000000 0.000000 0.000000
vn 1.000000 0.000000 0.000000
vn 1.000000 0.000000 0.000000
vn 1.000000 0.000000 0.000000
vn 0.000000 0.000000 -1.000000
vn 0.000000 0.000000 -1.000000
vn 0.000000 0.000000 -1.000000
vn 0.000000 0.000000 -1.000000
vn -1.000000 0.000000 0.000000
vn -1.000000 0.000000 0.000000
vn -1.000000 0.000000 0.000000
vn -1.000000 0.000000 0.000000
vn 0.000000 1.000000 0.000000
vn 0.000000 1.000000 0.000000
vn 0.000000 1.000000 0.000000
vn 0.000000 1.000000 0.000000
vn 0.000000 0.000000 1.000000
vn 0.000000 0.000000 1.000000
vn 0.000000 0.000000 1.000000
vn 0.000000 0.000000 1.000000
vn 0.000000 -1.000000 0.000000
vn 0.000000 -1.000000 0.000000
vn 0.000000 -1.000000 0.000000
vn 0.000000 -1.000000 0.000000
vn 1.000000 0.000000 0.000000
vn 1.000000 0.000000 0.000000
vn 1.000000 0.000000 0.000000
vn 1.000000 0.000000 0.000000
vn 0.000000 0.000000 -1.000000
vn 0.000000 0.000000 -1.000000
vn 0.000000 0.000000 -1.000000
vn 0.000000 0.000000 -1.000000
vn -1.000000 0.000000 0.000000
vn -1.000000 0.000000 0.000000
vn -1.000000 0.000000 0.000000
vn -1.000000 0.000000 0.000000
vn 0.000000 1.000000 0.000000
vn 0.000000 1.000000 0.000000
vn 0.000000 1.000000 0.000000
vn 0.000000 1.000000 0.000000
vn 0.000000 0.000000 1.000000
vn 0.000000 0.000000 1.000000
vn 0.000000 0.000000 1.000000
vn 0.000000 0.000000 1.000000
vn 0.000000 -1.000000 0.000000
vn 0.000000 -1.000000 0.000000
vn 0.000000 -1.000000 0.000000
vn 0.000000 -1.000000 0.000000
vn 1.000000 0.000000 0.000000
vn 1.000000 0.000000 0.000000
vn 1.000000 0.000000 0.000000
vn 1.000000 0.000000 0.000000
vn 0.000000 0.000000 -1.000000
vn 0.000000 0.000000 -1.000000
vn 0.000000 0.000000 -1.000000
vn 0.000000 0.000000 -1.000000
vn -1.000000 0.000000 0.000000
vn -1.000000 0.000000 0.000000
vn -1.000000 0.000000 0.000000
vn -1.000000 0.000000 0.000000
vn 0.000000 1.000000 0.000000
vn 0.000000 1.000000 0.000000
vn 0.000000 1.000000 0.000000
vn 0.000000 1.000000 0.000000
vn 0.000000 0.000000 1.000000
vn 0.000000 0.000000 1.000000
vn 0.000000 0.000000 1.000000
vn 0.000000 0.000000 1.000000
vn 0.000000 -1.000000 0.000000
vn 0.000000 -1.000000 0.000000
vn 0.000000 -1.000000 0.000000
vn 0.000000 -1.000000 0.000000
vn 1.000000 0.000000 0.000000
vn 1.000000 0.000000 0.000000
vn 1.000000 0.000000 0.000000
vn 1.000000 0.000000 0.000000
vn 0.000000 0.000000 -1.000000
vn 0.000000 0.000000 -1.000000
vn 0.000000 0.000000 -1.000000
vn 0.000000 0.000000 -1.000000
vn -1.000000 0.000000 0.000000
vn -1.000000 0.000000 0.000000
vn -1.000000 0.000000 0.000000
vn -1.000000 0.000000 0.000000
vn 0.000000 1.000000 0.000000
vn 0.000000 1.000000 0.000000
vn 0.000000 1.000000 0.000000
vn 0.000000 1.000000 0.000000
vn 0.000000 0.000000 1.000000
vn 0.000000 0.000000 1.000000
vn 0.000000 0.000000 1.000000
vn 0.000000 0.000000 1.000000
vn 0.000000 -1.000000 0.000000
vn 0.000000 -1.000000 0.000000
vn 0.000000 -1.000000 0.000000
vn 0.000000 -1.000000 0.000000
vn 1.000000 0.000000 0.000000
vn 1.000000 0.000000 0.000000
vn 1.000000 0.000000 0.000000
vn 1.000000 0.000000 0.000000
vn 0.000000 0.000000 -1.000000
vn 0.000000 0.000000 -1.000000
vn 0.000000 0.000000 -1.000000
vn 0.000000 0.000000 -1.000000
vn -1.000000 0.000000 0.000000
vn -1.000000 0.000000 0.000000
vn -1.000000 0.000000 0.000000
vn -1.000000 0.000000 0.000000
vn 0.000000 1.000000 0.000000
vn 0.000000 1.000000 0.000000
vn 0.000000 1.000000 0.000000
vn 0.000000 1.000000 0.000000
vn 0.000000 0.000000 1.000000
vn 0.000000 0.000000 1.000000
vn 0.000000 0.000000 1.000000
vn 0.000000 0.000000 1.000000
vn 0.000000 -1.000000 0.000000
vn 0.000000 -1.000000 0.000000
vn 0.000000 -1.000000 0.000000
vn 0.000000 -1.000000 0.000000
vn 1.000000 0.000000 0.000000
vn 1.000000 0.000000 0.000000
vn 1.000000 0.000000 0.000000
vn 1.000000 0.000000 0.000000
vn 0.000000 0.000000 -1.000000
vn 0.000000 0.000000 -1.000000
vn 0.000000 0.000000 -1.000000
vn 0.000000 0.000000 -1.000000
vn -1.000000 0.000000 0.000000
vn -1.000000 0.000000 0.000000
vn -1.000000 0.000000 0.000000
vn -1.000000 0.000000 0.000000
vn 0.000000 1.000000 0.000000
vn 0.000000 1.000000 0.000000
vn 0.000000 1.000000 0.000000
vn 0.000000 1.000000 0.000000
vn 0.000000 0.000000 1.000000
vn 0.000000 0.000000 1.000000
vn 0.000000 0.000000 1.000000
vn 0.000000 0.000000 1.000000
vn 0.000000 -1.000000 0.000000
vn 0.000000 -1.000000 0.000000
vn 0.000000 -1.000000 0.000000
vn 0.000000 -1.000000 0.000000
vn 1.000000 0.000000 0.000000
vn 1.000000 0.000000 0.000000
vn 1.000000 0.000000 0.000000
vn 1.000000 0.000000 0.000000
vn 0.000000 0.000000 -1.000000
vn 0.000000 0.000000 -1.000000
vn 0.000000 0.000000 -1.000000
vn 0.000000 0.000000 -1.000000
vn -1.000000 0.000000 0.000000
vn -1.000000 0.000000 0.000000
vn -1.000000 0.000000 0.000000
vn -1.000000 0.000000 0.000000
vn 0.000000 1.000000 0.000000
vn 0.000000 1.000000 0.000000
vn 0.000000 1.000000 0.000000
vn 0.000000 1.000000 0.000000
vn 0.000000 0.000000 1.000000
vn 0.000000 0.000000 1.000000
vn 0.000000 0.000000 1.000000
vn 0.000000 0.000000 1.000000
vn 0.000000 -1.000000 0.000000
vn 0.000000 -1.000000 0.000000
vn 0.000000 -1.000000 0.000000
vn 0.000000 -1.000000 0.000000
vn 1.000000 0.000000 0.000000
vn 1.000000 0.000000 0.000000
vn 1.000000 0.000000 0.000000
vn 1.000000 0.000000 0.000000
vn 0.000000 0.000000 -1.000000
vn 0.000000 0.000000 -1.000000
vn 0.000000 0.000000 -1.000000
vn 0.000000 0.000000 -1.000000
vn -1.000000 0.000000 0.000000
vn -1.000000 0.000000 0.000000
vn -1.000000 0.000000 0.000000
vn -1.000000 0.000000 0.000000
vn 0.000000 1.000000 0.000000
vn 0.000000 1.000000 0.000000
vn 0.000000 1.000000 0.000000
vn 0.000000 1.000000 0.000000
vn 0.000000 0.000000 1.000000
vn 0.000000 0.000000 1.000000
vn 0.000000 0.000000 1.000000
vn 0.000000 0.000000 1.000000
vn 0.000000 -1.000000 0.000000
vn 0.000000 -1.000000 0.000000
vn 0.000000 -1.000000 0.000000
vn 0.000000 -1.000000 0.000000
vn 1.000000 0.000000 0.000000
vn 1.000000 0.000000 0.000000
vn 1.000000 0.000000 0.000000
vn 1.000000 0.000000 0.000000
vn 0.000000 0.000000 -1.000000
vn 0.000000 0.000000 -1.000000
vn 0.000000 0.000000 -1.000000
vn 0.000000 0.000000 -1.000000
vn -1.000000 0.000000 0.000000
vn -1.000000 0.000000 0.000000
vn -1.000000 0.000000 0.000000
vn -1.000000 0.000000 0.000000
vn 0.000000 1.000000 0.000000
vn 0.000000 1.000000 0.000000
vn 0.000000 1.000000 0.000000
vn 0.000000 1.000000 0.000000
vn 0.000000 0.000000 1.000000
vn 0.000000 0.000000 1.000000
vn 0.000000 0.000000 1.000000
vn 0.000000 0.000000 1.000000
vn 0.000000 -1.000000 0.000000
vn 0.000000 -1.000000 0.000000
vn 0.000000 -1.000000 0.000000
vn 0.000000 -1.000000 0.000000
vn 1.000000 0.000000 0.000000
vn 1.000000 0.000000 0.000000
vn 1.000000 0.000000 0.000000
vn 1.000000 0.000000 0.000000
vn 0.000000 0.000000 -1.000000
vn 0.000000 0.000000 -1.000000
vn 0.000000 0.000000 -1.000000
vn 0.000000 0.000000 -1.000000
vn -1.000000 0.000000 0.000000
vn -1.000000 0.000000 0.000000
vn -1.000000 0.000000 0.000000
vn -1.000000 0.000000 0.000000
vn 0.000000 1.000000 0.000000
vn 0.000000 1.000000 0.000000
vn 0.000000 1.000000 0.000000
vn 0.000000 1.000000 0.000000
vn 0.000000 0.000000 1.000000
vn 0.000000 0.000000 1.000000
vn 0.000000 0.000000 1.000000
vn 0.000000 0.000000 1.000000
vn 0.000000 -1.000000 0.000000
vn 0.000000 -1.000000 0.000000
vn 0.000000 -1.000000 0.000000
vn 0.000000 -1.000000 0.000000
vn 1.000000 0.000000 0.000000
vn 1.000000 0.000000 0.000000
vn 1.000000 0.000000 0.000000
vn 1.000000 0.000000 0.000000
vn 0.000000 0.000000 -1.000000
vn 0.000000 0.000000 -1.000000
vn 0.000000 0.000000 -1.000000
vn 0.000000 0.000000 -1.000000
vn -1.000000 0.000000 0.000000
vn -1.000000 0.000000 0.000000
vn -1.000000 0.000000 0.000000
vn -1.000000 0.000000 0.000000
vn 0.000000 1.000000 0.000000
vn 0.000000 1.000000 0.000000
vn 0.000000 1.000000 0.000000
vn 0.000000 1.000000 0.000000
vn 0.000000 0.000000 1.000000
vn 0.000000 0.000000 1.000000
vn 0.000000 0.000000 1.000000
vn 0.000000 0.000000 1.000000
vn 0.000000 -1.000000 0.000000
vn 0.000000 -1.000000 0.000000
vn 0.000000 -1.000000 0.000000
vn 0.000000 -1.000000 0.000000
vn 1.000000 0.000000 0.000000
vn 1.000000 0.000000 0.000000
vn 1.000000 0.000000 0.000000
vn 1.000000 0.000000 0.000000
vn 0.000000 0.000000 -1.000000
vn 0.000000 0.000000 -1.000000
vn 0.000000 0.000000 -1.000000
vn 0.000000 0.000000 -1.000000
vn -1.000000 0.000000 0.000000
vn -1.000000 0.000000 0.000000
vn -1.000000 0.000000 0.000000
vn -1.000000 0.000000 0.000000
vn 0.000000 1.000000 0.000000
vn 0.000000 1.000000 0.000000
vn 0.000000 1.000000 0.000000
vn 0.000000 1.000000 0.000000
vn 0.000000 0.000000 1.000000
vn 0.000000 0.000000 1.000000
vn 0.000000 0.000000 1.000000
vn 0.000000 0.000000 1.000000
vn 0.000000 -1.000000 0.000000
vn 0.000000 -1.000000 0.000000
vn 0.000000 -1.000000 0.000000
vn 0.000000 -1.000000 0.000000
vn 1.000000 0.000000 0.000000
vn 1.000000 0.000000 0.000000
vn 1.000000 0.000000 0.000000
vn 1.000000 0.000000 0.000000
vn 0.000000 0.000000 -1.000000
vn 0.000000 0.000000 -1.000000
vn 0.000000 0.000000 -1.000000
vn 0.000000 0.000000 -1.000000
s off
f 8/9/1 5/6/2 1/1/3 2/3/4
f 3/4/5 7/8/6 8/9/7 2/3/8
f 1/1/9 4/10/10 3/4/11 2/3/12
f 5/6/13 6/7/14 4/5/15 1/2/16
f 6/7/17 7/8/18 3/4/19 4/10/20
f 6/7/21 5/6/22 8/9/23 7/8/24
f 16/11/25 13/12/26 9/13/27 10/14/28
f 11/15/29 15/16/30 16/11/31 10/14/32
f 9/13/33 12/17/34 11/15/35 10/14/36
f 13/12/37 14/18/38 12/19/39 9/20/40
f 14/18/41 15/16/42 11/15/43 12/17/44
f 14/18/45 13/12/46 16/11/47 15/16/48
f 24/21/49 21/22/50 17/23/51 18/24/52
f 19/25/53 23/26/54 24/21/55 18/24/56
f 17/23/57 20/27/58 19/25/59 18/24/60
f 21/22/61 22/28/62 20/29/63 17/30/64
f 22/28/65 23/26/66 19/25/67 20/27/68
f 22/28/69 21/22/70 24/21/71 23/26/72
f 32/31/73 29/32/74 25/33/75 26/34/76
f 27/35/77 31/36/78 32/31/79 26/34/80
f 25/33/81 28/37/82 27/35/83 26/34/84
f 29/32/85 30/38/86 28/39/87 25/40/88
f 30/38/89 31/36/90 27/35/91 28/37/92
f 30/38/93 29/32/94 32/31/95 31/36/96
f 40/41/97 37/42/98 33/43/99 34/44/100
f 35/45/101 39/46/102 40/41/103 34/44/104
f 33/43/105 36/47/106 35/45/107 34/44/108
f 37/42/109 38/48/110 36/49/111 33/50/112
f 38/48/113 39/46/114 35/45/115 36/47/116
f 38/48/117 37/42/118 40/41/119 39/46/120
f 48/51/121 45/52/122 41/53/123 42/54/124
f 43/55/125 47/56/126 48/51/127 42/54/128
f 41/53/129 44/57/130 43/55/131 42/54/132
f 45/52/133 46/58/134 44/59/135 41/60/136
f 46/58/137 47/56/138 43/55/139 44/57/140
f 46/58/141 45/52/142 48/51/143 47/56/144
f 56/61/145 53/62/146 49/63/147 50/64/148
f 51/65/149 55/66/150 56/61/151 50/64/152
f 49/63/153 52/67/154 51/65/155 50/64/156
f 53/62/157 54/68/158 52/69/159 49/70/160
f 54/68/161 55/66/162 51/65/163 52/67/164
f 54/68/165 53/62/166 56/61/167 55/66/168
f 64/71/169 61/72/170 57/73/171 58/74/172
f 59/75/173 63/76/174 64/71/175 58/74/176
f 57/73/177 60/77/178 59/75/179 58/74/180
f 61/72/181 62/78/182 60/79/183 57/80/184
f 62/78/185 63/76/186 59/75/187 60/77/188
f 62/78/189 61/72/190 64/71/191 63/76/192
f 72/81/193 69/82/194 65/83/195 66/84/196
f 67/85/197 71/86/198 72/81/199 66/84/200
f 65/83/201 68/87/202 67/85/203 66/84/204
f 69/82/205 70/88/206 68/89/207 65/90/208
f 70/88/209 71/86/210 67/85/211 68/87/212
f 70/88/213 69/82/214 72/81/215 71/86/216
f 80/91/217 77/92/218 73/93/219 74/94/220
f 75/95/221 79/96/222 80/91/223 74/94/224
f 73/93/225 76/97/226 75/95/227 74/94/228
f 77/92/229 78/98/230 76/99/231 73/100/232
f 78/98/233 79/96/234 75/95/235 76/97/236
f 78/98/237 77/92/238 80/91/239 79/96/240
f 88/101/241 85/102/242 81/103/243 82/104/244
f 83/105/245 87/106/246 88/101/247 82/104/248
f 81/103/249 84/107/250 83/105/251 82/104/252
f 85/102/253 86/108/254 84/109/255 81/110/256
f 86/108/257 87/106/258 83/105/259 84/107/260
f 86/108/261 85/102/262 88/101/263 87/106/264
f 96/111/265 93/112/266 89/113/267 90/114/268
f 91/115/269 95/116/270 96/111/271 90/114/272
f 89/113/273 92/117/274 91/115/275 90/114/276
f 93/112/277 94/118/278 92/119/279 89/120/280
f 94/118/281 95/116/282 91/115/283 92/117/284
f 94/118/285 93/112/286 96/111/287 95/116/288
f 104/121/289 101/122/290 97/123/291 98/124/292
f 99/125/293 103/126/294 104/121/295 98/124/296
f 97/123/297 100/127/298 99/125/299 98/124/300
f 101/122/301 102/128/302 100/129/303 97/130/304
f 102/128/305 103/126/306 99/125/307 100/127/308
f 102/128/309 101/122/310 104/121/311 103/126/312
f 112/131/313 109/132/314 105/133/315 106/134/316
f 107/135/317 111/136/318 112/131/319 106/134/320
f 105/133/321 108/137/322 107/135/323 106/134/324
f 109/132/325 110/138/326 108/139/327 105/140/328
f 110/138/329 111/136/330 107/135/331 108/137/332
f 110/138/333 109/132/334 112/131/335 111/136/336
