# Blender v2.80 (sub 75) OBJ File: 'baketest.blend'
# www.blender.org
mtllib baketest.mtl
o Grass.001
v -0.054524 0.042892 0.105064
v 0.173164 -0.022802 0.125676
v 0.369838 1.335223 0.150541
v 0.077757 0.033117 -0.081173
v 0.026027 0.063082 0.070611
v 0.072527 0.072572 -0.152676
v 0.138441 1.065723 -0.109343
v -0.143493 0.087211 -0.080354
v -0.025099 -0.028795 -0.092631
v -0.194926 -0.024776 0.059856
v -0.221824 0.933655 0.290140
v 0.020742 0.005217 0.128393
v -0.054524 0.042892 0.105064
v 0.173164 -0.022802 0.125676
v 0.369838 1.335223 0.150541
v 0.077757 0.033117 -0.081173
v 0.026027 0.063082 0.070611
v 0.072527 0.072572 -0.152676
v 0.138441 1.065723 -0.109343
v -0.143493 0.087211 -0.080354
v -0.025099 -0.028795 -0.092631
v -0.194926 -0.024776 0.059856
v -0.221824 0.933655 0.290140
v 0.020742 0.005217 0.128393
vt 0.345336 0.053259
vt 0.414178 0.034353
vt 0.468826 0.442608
vt 0.484544 0.036414
vt 0.552860 0.042882
vt 0.026854 0.051099
vt 0.098849 0.038985
vt 0.155602 0.352520
vt 0.170877 0.027068
vt 0.243247 0.036689
vt 0.645733 0.041514
vt 0.720965 0.047635
vt 0.757877 0.371589
vt 0.796312 0.052120
vt 0.871094 0.041881
vt 0.345336 0.053259
vt 0.414178 0.034353
vt 0.468826 0.442608
vt 0.484544 0.036414
vt 0.552860 0.042882
vt 0.026854 0.051099
vt 0.098849 0.038985
vt 0.155602 0.352520
vt 0.170877 0.027068
vt 0.243247 0.036689
vt 0.645733 0.041514
vt 0.720965 0.047635
vt 0.757877 0.371589
vt 0.796312 0.052120
vt 0.871094 0.041881
vn -0.8286 0.2545 0.4986
vn 0.7955 -0.1261 0.5927
vn 0.3397 0.8948 0.2898
vn 0.1549 0.1393 -0.9781
vn 0.2655 0.1414 0.9537
vn 0.6753 -0.0126 -0.7374
vn 0.0902 0.9958 0.0177
vn -0.9559 0.2721 -0.1108
vn 0.1895 0.3961 -0.8985
vn -0.9995 -0.0301 0.0086
vn -0.2872 0.9068 0.3086
vn 0.7776 0.0948 0.6216
usemtl Default_OBJ.003
s 1
f 1/1/1 2/2/2 3/3/3
f 2/2/2 4/4/4 3/3/3
f 4/4/4 1/5/1 3/3/3
f 5/6/5 6/7/6 7/8/7
f 6/7/6 8/9/8 7/8/7
f 8/9/8 5/10/5 7/8/7
f 9/11/9 10/12/10 11/13/11
f 10/12/10 12/14/12 11/13/11
f 12/14/12 9/15/9 11/13/11
f 13/16/1 14/17/2 15/18/3
f 14/17/2 16/19/4 15/18/3
f 16/19/4 13/20/1 15/18/3
f 17/21/5 18/22/6 19/23/7
f 18/22/6 20/24/8 19/23/7
f 20/24/8 17/25/5 19/23/7
f 21/26/9 22/27/10 23/28/11
f 22/27/10 24/29/12 23/28/11
f 24/29/12 21/30/9 23/28/11
