# Blender v2.80 (sub 75) OBJ File: 'baketest.blend'
# www.blender.org
mtllib Grass_Mound.mtl
o Grass_Hill
v -0.982662 0.077172 1.571729
v -0.339905 0.043169 1.677027
v -0.359655 0.154591 0.951473
v -1.020112 0.077173 0.877022
v 0.276635 -0.021485 1.627837
v 0.079831 0.091500 0.772266
v 0.604922 -0.011035 1.336629
v 0.855837 -0.011035 0.690599
v -0.384523 0.508873 0.183738
v -1.063528 0.077175 0.133211
v 0.501525 0.516110 0.196018
v 1.103882 -0.011035 0.110160
v -0.352208 0.418044 -0.995905
v -1.031678 0.077172 -1.052376
v 0.526858 0.443615 -0.965657
v 1.384281 -0.011035 -0.975379
v -0.317412 0.019521 -1.506123
v -0.999362 0.047888 -1.506124
v 0.597299 0.023628 -1.506125
v 1.244467 -0.011035 -1.506126
vt 0.075171 0.061152
vt 0.253733 0.025454
vt 0.251740 0.226948
vt 0.063962 0.253838
vt 0.428887 0.030400
vt 0.381585 0.263829
vt 0.525164 0.108965
vt 0.606663 0.290549
vt 0.249261 0.455806
vt 0.031768 0.469427
vt 0.481144 0.456809
vt 0.696967 0.462337
vt 0.261427 0.773156
vt 0.062455 0.812545
vt 0.496309 0.761456
vt 0.753957 0.783454
vt 0.265613 0.949824
vt 0.072733 0.940506
vt 0.531945 0.940242
vt 0.713851 0.933307
vn -0.0442 0.9958 0.0799
vn 0.0531 0.9935 0.1008
vn -0.0501 0.9712 0.2328
vn -0.2400 0.9555 0.1715
vn 0.1299 0.9862 0.1025
vn 0.1720 0.9196 0.3532
vn 0.1091 0.9909 0.0785
vn 0.3272 0.8592 0.3932
vn -0.2128 0.9725 0.0948
vn -0.4511 0.8910 0.0509
vn 0.2797 0.9465 0.1610
vn 0.5353 0.8287 0.1636
vn -0.2023 0.9540 -0.2214
vn -0.4109 0.8979 -0.1580
vn 0.2311 0.9545 -0.1885
vn 0.4856 0.8700 -0.0854
vn -0.0704 0.8348 -0.5460
vn -0.1880 0.8928 -0.4093
vn 0.1351 0.8507 -0.5079
vn 0.2857 0.8858 -0.3658
usemtl Material.001
s 1
f 1/1/1 2/2/2 3/3/3 4/4/4
f 2/2/2 5/5/5 6/6/6 3/3/3
f 5/5/5 7/7/7 8/8/8 6/6/6
f 4/4/4 3/3/3 9/9/9 10/10/10
f 3/3/3 6/6/6 11/11/11 9/9/9
f 6/6/6 8/8/8 12/12/12 11/11/11
f 10/10/10 9/9/9 13/13/13 14/14/14
f 9/9/9 11/11/11 15/15/15 13/13/13
f 11/11/11 12/12/12 16/16/16 15/15/15
f 14/14/14 13/13/13 17/17/17 18/18/18
f 13/13/13 15/15/15 19/19/19 17/17/17
f 15/15/15 16/16/16 20/20/20 19/19/19
