# Blender v2.80 (sub 75) OBJ File: 'baketest.blend'
# www.blender.org
mtllib Tree_03.mtl
o Tree03
v -0.790435 5.691189 1.457978
v -0.261769 5.989914 1.539171
v -0.128982 6.434378 1.685863
v -0.794092 6.434378 1.701266
v -0.085214 5.873564 1.002429
v 0.151633 6.434379 0.832819
v -0.633536 5.534875 0.710089
v -0.654740 6.434379 0.513363
v -1.049858 5.989914 1.086949
v -1.243507 6.189197 1.046323
v -0.261769 6.693807 1.539171
v -0.820093 6.878843 1.599351
v -0.146471 6.878843 0.989578
v -0.633536 6.878843 0.710089
v -1.049858 6.708851 1.086950
v -0.582345 4.477951 1.185027
v -0.582345 7.097286 1.185027
v -1.193587 4.791667 1.555054
v -0.739887 4.968011 1.432252
v -0.581005 5.230387 1.502895
v -1.109988 5.230387 1.751854
v -0.788932 4.899327 0.938141
v -0.658940 5.230388 0.717600
v -1.333533 4.699392 0.898265
v -1.420548 5.230388 0.747724
v -1.534027 4.968011 1.349183
v -1.704088 5.085652 1.385419
v -0.739887 5.383531 1.432252
v -1.167133 5.492763 1.679206
v -0.842728 5.492764 0.949603
v -1.333533 5.492764 0.898265
v -1.534027 5.392413 1.349183
v -1.123461 4.075470 1.261702
v -1.123461 5.621714 1.261702
v -0.903486 4.346284 0.911932
v -0.438908 4.788600 0.983282
v -0.322218 5.446712 1.112191
v -0.906700 5.446712 1.125727
v -0.283755 4.616323 0.511606
v -0.075620 5.446712 0.362557
v -0.765608 4.114831 0.254705
v -0.784241 5.446712 0.081827
v -1.131461 4.788600 0.585880
v -1.301636 5.083676 0.550180
v -0.438908 5.830842 0.983282
v -0.929549 6.104823 1.036165
v -0.337586 6.104824 0.500313
v -0.765608 6.104824 0.254705
v -1.131461 5.853119 0.585880
v -0.720622 2.549864 0.672069
v -0.720622 6.428268 0.672069
v -0.662554 3.524531 1.992930
v -0.311802 3.858476 2.046799
v -0.223702 4.355342 2.144124
v -0.664980 4.355342 2.154344
v -0.194664 3.728408 1.690688
v -0.037524 4.355342 1.578158
v -0.558457 3.349787 1.496730
v -0.572525 4.355342 1.366209
v -0.834672 3.858476 1.746765
v -0.963153 4.081255 1.719811
v -0.311802 4.645356 2.046799
v -0.682231 4.852209 2.086725
v -0.235306 4.852209 1.682162
v -0.558457 4.852209 1.496730
v -0.834672 4.662175 1.746765
v -0.524494 2.168254 1.811836
v -0.524494 5.096408 1.811836
v -0.581472 4.022641 1.532994
v -0.524733 4.050178 1.486897
v -0.597838 4.538686 1.614424
v -0.660714 4.512123 1.666107
v -0.554230 4.081969 1.420839
v -0.629891 4.561317 1.539051
v -0.629200 4.074100 1.426112
v -0.712581 4.548740 1.544149
v -0.646035 4.037430 1.495427
v -0.731630 4.518339 1.622672
v -0.462978 3.666265 1.004638
v -0.390505 3.772635 0.967124
v -0.422118 3.884869 0.945966
v -0.514130 3.847880 0.970405
v -0.539381 3.712777 1.006668
v -0.428004 3.437010 0.539362
v -0.311855 3.537941 0.536066
v -0.338336 3.731364 0.505822
v -0.470851 3.749978 0.490424
v -0.526269 3.568055 0.511154
v -0.638392 4.323414 0.427124
v -0.653534 4.323414 0.619307
v -0.651261 5.807538 0.658752
v -0.638313 5.807538 0.494404
v -0.475436 4.323414 0.693094
v -0.498959 5.807538 0.721852
v -0.350224 4.323414 0.546515
v -0.391883 5.807538 0.596503
v -0.450937 4.323414 0.382137
v -0.478008 5.807538 0.455933
v -0.256643 1.978993 0.072553
v -0.275738 1.978992 0.314920
v -0.051135 1.978992 0.407976
v 0.106774 1.978993 0.223121
v -0.020238 1.978993 0.015818
v -0.226681 0.009733 -0.213000
v -0.253557 0.009733 0.128127
v 0.062571 0.009733 0.259102
v 0.284823 0.009733 -0.001079
v 0.106056 0.009733 -0.292854
v -0.531685 5.983153 0.585489
v -0.673848 4.664643 1.617272
v -0.951357 3.908511 0.069230
v -0.914446 3.926868 0.151085
v -1.237056 4.355660 0.269443
v -1.275503 4.329911 0.221846
v -0.833569 3.986280 0.139791
v -1.200559 4.428010 0.249054
v -0.820493 4.004642 0.050957
v -1.216450 4.447001 0.188858
v -0.893289 3.956573 0.007347
v -1.262770 4.386330 0.172037
v -0.887322 3.262390 0.090097
v -0.844704 3.342182 0.200469
v -0.787324 3.465188 0.188169
v -0.794478 3.461411 0.070195
v -0.856280 3.336075 0.009584
v -0.294256 2.759029 0.225413
v -0.329681 2.833691 0.374664
v -0.308586 3.075298 0.380667
v -0.260121 3.149961 0.235127
v -0.251266 2.954494 0.139174
v -1.317100 4.503788 0.256737
v 0.092204 5.059308 0.105084
v 0.006799 5.077167 0.086784
v 0.100158 5.494267 -0.234180
v 0.159616 5.469218 -0.236843
v -0.031002 5.134958 0.156649
v 0.095079 5.564642 -0.193832
v 0.031040 5.152817 0.218128
v 0.151396 5.583117 -0.171561
v 0.107186 5.106060 0.186259
v 0.191288 5.524098 -0.198141
v 0.038926 4.430803 0.143207
v -0.072108 4.508420 0.112930
v -0.095568 4.628072 0.164970
v 0.000966 4.624400 0.227409
v 0.084089 4.502481 0.213958
v -0.444687 3.941518 0.521942
v -0.526706 4.003262 0.425169
v -0.541047 4.203064 0.436273
v -0.467893 4.264805 0.539910
v -0.408338 4.103161 0.592856
v 0.149681 5.594571 -0.257036
vt 0.642071 0.153410
vt 0.684371 0.186302
vt 0.683318 0.232638
vt 0.635985 0.237252
vt 0.732172 0.169301
vt 0.737502 0.229929
vt 0.790078 0.138693
vt 0.791833 0.228633
vt 0.841888 0.184920
vt 0.842428 0.210461
vt 0.875767 0.150720
vt 0.900167 0.231231
vt 0.686354 0.263952
vt 0.641926 0.286675
vt 0.739582 0.277429
vt 0.789067 0.274611
vt 0.842024 0.263815
vt 0.889732 0.279542
vt 0.662852 0.026144
vt 0.692670 0.023169
vt 0.780043 0.022217
vt 0.808399 0.023609
vt 0.852911 0.023946
vt 0.673938 0.319027
vt 0.716694 0.316392
vt 0.766057 0.314853
vt 0.811233 0.314117
vt 0.862163 0.315862
vt 0.644063 0.494380
vt 0.686363 0.527271
vt 0.685310 0.573607
vt 0.637977 0.578221
vt 0.734164 0.510271
vt 0.739494 0.570899
vt 0.792070 0.479663
vt 0.793825 0.569603
vt 0.843879 0.525889
vt 0.844419 0.551431
vt 0.877759 0.491690
vt 0.902158 0.572201
vt 0.688346 0.604922
vt 0.643918 0.627644
vt 0.741573 0.618398
vt 0.791058 0.615580
vt 0.844015 0.604784
vt 0.891723 0.620512
vt 0.664844 0.367113
vt 0.694662 0.364138
vt 0.782035 0.363186
vt 0.810390 0.364578
vt 0.854902 0.364916
vt 0.675930 0.659996
vt 0.718686 0.657361
vt 0.768049 0.655822
vt 0.813225 0.655086
vt 0.864155 0.656832
vt 0.015349 0.827866
vt 0.057649 0.860757
vt 0.056596 0.907094
vt 0.009264 0.911708
vt 0.105451 0.843757
vt 0.110780 0.904385
vt 0.163356 0.813149
vt 0.165111 0.903089
vt 0.215166 0.859375
vt 0.215706 0.884917
vt 0.249046 0.825176
vt 0.273445 0.905687
vt 0.059632 0.938408
vt 0.015204 0.961130
vt 0.112860 0.951885
vt 0.162345 0.949067
vt 0.215302 0.938270
vt 0.263010 0.953998
vt 0.036130 0.700599
vt 0.065948 0.697624
vt 0.153322 0.696672
vt 0.181677 0.698064
vt 0.226189 0.698402
vt 0.047217 0.993482
vt 0.089972 0.990847
vt 0.139335 0.989308
vt 0.184512 0.988572
vt 0.235441 0.990318
vt 0.573790 0.823633
vt 0.616090 0.856524
vt 0.615037 0.902861
vt 0.567704 0.907475
vt 0.663891 0.839524
vt 0.669221 0.900152
vt 0.721797 0.808916
vt 0.723552 0.898856
vt 0.773606 0.855142
vt 0.774147 0.880684
vt 0.807486 0.820943
vt 0.831886 0.901454
vt 0.618073 0.934175
vt 0.573645 0.956897
vt 0.671300 0.947652
vt 0.720785 0.944834
vt 0.773742 0.934037
vt 0.821450 0.949765
vt 0.594571 0.696366
vt 0.624389 0.693391
vt 0.711762 0.692439
vt 0.740117 0.693831
vt 0.784629 0.694169
vt 0.605657 0.989249
vt 0.648413 0.986614
vt 0.697776 0.985075
vt 0.742952 0.984339
vt 0.793882 0.986085
vt 0.433077 0.190986
vt 0.444529 0.186727
vt 0.451229 0.256604
vt 0.446498 0.268065
vt 0.457100 0.183377
vt 0.460264 0.253528
vt 0.470441 0.185316
vt 0.469148 0.257090
vt 0.482225 0.189086
vt 0.474043 0.267868
vt 0.494303 0.189895
vt 0.487402 0.268050
vt 0.414094 0.095527
vt 0.435424 0.092594
vt 0.454072 0.095683
vt 0.470150 0.099478
vt 0.492844 0.097821
vt 0.506782 0.093997
vt 0.389403 0.016097
vt 0.414233 0.014751
vt 0.445349 0.018328
vt 0.466207 0.018446
vt 0.496048 0.014201
vt 0.522813 0.012217
vt 0.049559 0.523997
vt 0.072307 0.525061
vt 0.083918 0.682383
vt 0.075394 0.698223
vt 0.095695 0.522943
vt 0.099000 0.678277
vt 0.118946 0.520387
vt 0.114177 0.681758
vt 0.141929 0.520852
vt 0.123068 0.697554
vt 0.164425 0.524990
vt 0.142710 0.699461
vt 0.038290 0.238625
vt 0.067200 0.240834
vt 0.096177 0.238522
vt 0.124666 0.233944
vt 0.153545 0.233832
vt 0.181716 0.240116
vt 0.010972 0.002686
vt 0.051756 0.003946
vt 0.092402 0.002283
vt 0.133061 -0.002257
vt 0.173945 -0.002824
vt 0.214143 0.004649
vt 0.099193 0.693297
vt 0.460732 0.265739
vt 0.257772 0.474313
vt 0.270655 0.474044
vt 0.278182 0.550340
vt 0.274285 0.556962
vt 0.283252 0.476436
vt 0.285943 0.549370
vt 0.295348 0.477550
vt 0.292336 0.551604
vt 0.307423 0.475898
vt 0.297285 0.558164
vt 0.320129 0.475955
vt 0.308419 0.556437
vt 0.245216 0.392676
vt 0.265079 0.394532
vt 0.280399 0.406576
vt 0.299388 0.409474
vt 0.318236 0.401144
vt 0.333272 0.395810
vt 0.223585 0.285780
vt 0.247881 0.289272
vt 0.276896 0.307395
vt 0.297304 0.313757
vt 0.324882 0.300224
vt 0.354327 0.289057
vt 0.288002 0.556030
vt 0.259807 0.206619
vt 0.272855 0.206492
vt 0.281991 0.282250
vt 0.277854 0.289251
vt 0.285663 0.208965
vt 0.290601 0.280788
vt 0.298090 0.210120
vt 0.297813 0.282216
vt 0.310266 0.208155
vt 0.302308 0.290037
vt 0.323124 0.207804
vt 0.313578 0.287890
vt 0.246980 0.120943
vt 0.267092 0.123546
vt 0.282416 0.136973
vt 0.301510 0.140148
vt 0.320394 0.130187
vt 0.335332 0.123692
vt 0.235794 0.009646
vt 0.256499 0.013985
vt 0.280696 0.030725
vt 0.298142 0.036716
vt 0.321589 0.024451
vt 0.345908 0.012369
vt 0.293555 0.288025
vn -0.4727 -0.2952 0.8303
vn 0.5660 -0.3517 0.7456
vn 0.6490 -0.0303 0.7602
vn -0.4621 -0.0278 0.8864
vn 0.8525 -0.3694 -0.3699
vn 0.8566 -0.0048 -0.5159
vn -0.0742 -0.3783 -0.9227
vn -0.0778 0.0194 -0.9968
vn -0.9271 -0.3404 -0.1571
vn -0.9792 -0.0669 -0.1914
vn 0.5617 0.5532 0.6152
vn -0.5306 0.5137 0.6742
vn 0.6711 0.6656 -0.3265
vn -0.1654 0.5727 -0.8029
vn -0.9094 0.3937 -0.1341
vn 0.1820 -0.9826 -0.0384
vn -0.0325 0.9964 0.0785
vn -0.0969 -0.4231 0.9009
vn 0.7638 -0.4873 0.4232
vn 0.9043 -0.0469 0.4243
vn -0.0351 -0.0515 0.9981
vn 0.5903 -0.5109 -0.6249
vn 0.5607 -0.0123 -0.8279
vn -0.4004 -0.5126 -0.7595
vn -0.4698 0.0048 -0.8828
vn -0.8536 -0.4725 0.2194
vn -0.9752 -0.0571 0.2137
vn 0.6494 0.7048 0.2855
vn -0.2073 0.6305 0.7480
vn 0.4009 0.7924 -0.4599
vn -0.4175 0.7079 -0.5697
vn -0.8108 0.5406 0.2245
vn 0.1071 -0.9928 -0.0535
vn 0.0014 0.9982 0.0594
vn -0.4847 -0.1764 0.8567
vn 0.5915 -0.2195 0.7759
vn 0.6433 -0.0148 0.7655
vn -0.4859 -0.0077 0.8740
vn 0.8858 -0.2282 -0.4040
vn 0.8640 0.0017 -0.5035
vn -0.0932 -0.2416 -0.9659
vn -0.0823 0.0271 -0.9962
vn -0.9624 -0.2120 -0.1697
vn -0.9799 -0.0713 -0.1861
vn 0.6287 0.3616 0.6885
vn -0.5520 0.3900 0.7370
vn 0.7761 0.4849 -0.4031
vn -0.1637 0.4070 -0.8986
vn -0.9607 0.2394 -0.1407
vn 0.3016 -0.9487 -0.0945
vn -0.0502 0.9912 0.1225
vn 0.5914 -0.2195 0.7759
vn 0.3016 -0.9487 -0.0944
vn 0.1883 -0.5705 0.7994
vn 0.9237 -0.1174 0.3648
vn 0.9549 0.1236 0.2701
vn 0.0777 -0.1911 0.9785
vn 0.5943 0.6276 -0.5029
vn 0.5019 0.3256 -0.8013
vn -0.8050 0.2458 -0.5399
vn -0.6607 0.1314 -0.7390
vn -0.8689 -0.4084 0.2797
vn -0.9335 -0.1779 0.3114
vn 0.1685 -0.8470 0.5042
vn 0.9479 -0.1467 0.2829
vn 0.6115 0.7765 -0.1521
vn -0.7917 0.5313 -0.3014
vn -0.9468 -0.3109 0.0834
vn 0.0714 -0.8906 0.4492
vn 0.9140 -0.2794 0.2941
vn 0.7630 0.6436 -0.0601
vn -0.7627 0.6115 -0.2104
vn -0.9738 -0.2212 0.0522
vn -0.7914 -0.0185 -0.6111
vn -0.8430 -0.1346 0.5207
vn -0.8481 0.0197 0.5295
vn -0.7669 0.0593 -0.6390
vn 0.1864 -0.0647 0.9803
vn 0.2263 0.0173 0.9739
vn 0.9861 0.1258 0.1086
vn 0.9943 0.0553 0.0911
vn 0.3544 0.1580 -0.9216
vn 0.3822 0.0818 -0.9205
vn -0.7505 0.0378 -0.6597
vn -0.8401 -0.1311 0.5263
vn 0.2529 -0.0615 0.9655
vn 0.9891 0.1269 0.0753
vn 0.3933 0.1877 -0.9001
vn -0.7269 0.0877 -0.6811
vn -0.8653 -0.0570 0.4980
vn 0.2591 -0.0579 0.9641
vn 0.9957 0.0863 0.0324
vn 0.3772 0.1670 -0.9110
vn -0.0000 1.0000 0.0000
vn -0.0964 0.9599 0.2634
vn -0.9556 -0.2601 -0.1384
vn -0.3829 -0.1636 0.9092
vn -0.0855 -0.2869 0.9541
vn -0.8272 -0.5431 -0.1442
vn 0.7905 0.2475 0.5603
vn 0.6548 0.4275 0.6233
vn 0.7799 0.3681 -0.5062
vn 0.5068 0.6802 -0.5296
vn -0.0901 0.0435 -0.9950
vn -0.3009 0.1414 -0.9431
vn -0.7184 -0.6216 -0.3122
vn -0.6347 -0.2142 0.7425
vn 0.3316 0.4405 0.8343
vn 0.7233 0.3994 -0.5633
vn -0.0627 -0.0430 -0.9971
vn -0.6082 -0.7596 -0.2305
vn -0.6171 -0.4410 0.6516
vn -0.0633 0.3782 0.9236
vn 0.5553 0.6690 -0.4940
vn 0.0646 -0.1977 -0.9781
vn -0.7005 0.6382 0.3195
vn 0.6780 -0.2601 -0.6875
vn -0.5051 -0.1637 -0.8474
vn -0.7192 -0.2856 -0.6333
vn 0.6118 -0.5431 -0.5752
vn -0.9198 0.2475 0.3043
vn -0.8876 0.4320 0.1601
vn -0.0548 0.3681 0.9282
vn 0.1147 0.6820 0.7223
vn 0.8546 0.0435 0.5174
vn 0.9328 0.1495 0.3280
vn 0.6668 -0.6293 -0.3993
vn -0.2213 -0.2062 -0.9532
vn -0.8802 0.4353 -0.1894
vn -0.0034 0.3655 0.9308
vn 0.8209 -0.0504 0.5688
vn 0.5102 -0.7746 -0.3738
vn -0.1731 -0.4275 -0.8873
vn -0.7175 0.3778 -0.5853
vn 0.0231 0.6303 0.7760
vn 0.7118 -0.2186 0.6675
vn 0.1604 0.6095 -0.7764
usemtl Default_OBJ.014
s 1
f 1/1/1 2/2/2 3/3/3 4/4/4
f 2/2/2 5/5/5 6/6/6 3/3/3
f 5/5/5 7/7/7 8/8/8 6/6/6
f 7/7/7 9/9/9 10/10/10 8/8/8
f 9/9/9 1/11/1 4/12/4 10/10/10
f 4/4/4 3/3/3 11/13/11 12/14/12
f 3/3/3 6/6/6 13/15/13 11/13/11
f 6/6/6 8/8/8 14/16/14 13/15/13
f 8/8/8 10/10/10 15/17/15 14/16/14
f 10/10/10 4/12/4 12/18/12 15/17/15
f 2/2/2 1/1/1 16/19/16
f 5/5/5 2/2/2 16/20/16
f 7/7/7 5/5/5 16/21/16
f 9/9/9 7/7/7 16/22/16
f 1/11/1 9/9/9 16/23/16
f 12/14/12 11/13/11 17/24/17
f 11/13/11 13/15/13 17/25/17
f 13/15/13 14/16/14 17/26/17
f 14/16/14 15/17/15 17/27/17
f 15/17/15 12/18/12 17/28/17
f 18/29/18 19/30/19 20/31/20 21/32/21
f 19/30/19 22/33/22 23/34/23 20/31/20
f 22/33/22 24/35/24 25/36/25 23/34/23
f 24/35/24 26/37/26 27/38/27 25/36/25
f 26/37/26 18/39/18 21/40/21 27/38/27
f 21/32/21 20/31/20 28/41/28 29/42/29
f 20/31/20 23/34/23 30/43/30 28/41/28
f 23/34/23 25/36/25 31/44/31 30/43/30
f 25/36/25 27/38/27 32/45/32 31/44/31
f 27/38/27 21/40/21 29/46/29 32/45/32
f 19/30/19 18/29/18 33/47/33
f 22/33/22 19/30/19 33/48/33
f 24/35/24 22/33/22 33/49/33
f 26/37/26 24/35/24 33/50/33
f 18/39/18 26/37/26 33/51/33
f 29/42/29 28/41/28 34/52/34
f 28/41/28 30/43/30 34/53/34
f 30/43/30 31/44/31 34/54/34
f 31/44/31 32/45/32 34/55/34
f 32/45/32 29/46/29 34/56/34
f 35/57/35 36/58/36 37/59/37 38/60/38
f 36/58/36 39/61/39 40/62/40 37/59/37
f 39/61/39 41/63/41 42/64/42 40/62/40
f 41/63/41 43/65/43 44/66/44 42/64/42
f 43/65/43 35/67/35 38/68/38 44/66/44
f 38/60/38 37/59/37 45/69/45 46/70/46
f 37/59/37 40/62/40 47/71/47 45/69/45
f 40/62/40 42/64/42 48/72/48 47/71/47
f 42/64/42 44/66/44 49/73/49 48/72/48
f 44/66/44 38/68/38 46/74/46 49/73/49
f 36/58/36 35/57/35 50/75/50
f 39/61/39 36/58/36 50/76/50
f 41/63/41 39/61/39 50/77/50
f 43/65/43 41/63/41 50/78/50
f 35/67/35 43/65/43 50/79/50
f 46/70/46 45/69/45 51/80/51
f 45/69/45 47/71/47 51/81/51
f 47/71/47 48/72/48 51/82/51
f 48/72/48 49/73/49 51/83/51
f 49/73/49 46/74/46 51/84/51
f 52/85/35 53/86/52 54/87/37 55/88/38
f 53/86/52 56/89/39 57/90/40 54/87/37
f 56/89/39 58/91/41 59/92/42 57/90/40
f 58/91/41 60/93/43 61/94/44 59/92/42
f 60/93/43 52/95/35 55/96/38 61/94/44
f 55/88/38 54/87/37 62/97/45 63/98/46
f 54/87/37 57/90/40 64/99/47 62/97/45
f 57/90/40 59/92/42 65/100/48 64/99/47
f 59/92/42 61/94/44 66/101/49 65/100/48
f 61/94/44 55/96/38 63/102/46 66/101/49
f 53/86/52 52/85/35 67/103/53
f 56/89/39 53/86/52 67/104/53
f 58/91/41 56/89/39 67/105/53
f 60/93/43 58/91/41 67/106/53
f 52/95/35 60/93/43 67/107/53
f 63/98/46 62/97/45 68/108/51
f 62/97/45 64/99/47 68/109/51
f 64/99/47 65/100/48 68/110/51
f 65/100/48 66/101/49 68/111/51
f 66/101/49 63/102/46 68/112/51
f 69/113/54 70/114/55 71/115/56 72/116/57
f 70/114/55 73/117/58 74/118/59 71/115/56
f 73/117/58 75/119/60 76/120/61 74/118/59
f 75/119/60 77/121/62 78/122/63 76/120/61
f 77/121/62 69/123/54 72/124/57 78/122/63
f 79/125/64 80/126/65 70/114/55 69/113/54
f 80/126/65 81/127/66 73/117/58 70/114/55
f 81/127/66 82/128/67 75/119/60 73/117/58
f 82/128/67 83/129/68 77/121/62 75/119/60
f 83/129/68 79/130/64 69/123/54 77/121/62
f 84/131/69 85/132/70 80/126/65 79/125/64
f 85/132/70 86/133/71 81/127/66 80/126/65
f 86/133/71 87/134/72 82/128/67 81/127/66
f 87/134/72 88/135/73 83/129/68 82/128/67
f 88/135/73 84/136/69 79/130/64 83/129/68
f 89/137/74 90/138/75 91/139/76 92/140/77
f 90/138/75 93/141/78 94/142/79 91/139/76
f 93/141/78 95/143/80 96/144/81 94/142/79
f 95/143/80 97/145/82 98/146/83 96/144/81
f 97/145/82 89/147/74 92/148/77 98/146/83
f 99/149/84 100/150/85 90/138/75 89/137/74
f 100/150/85 101/151/86 93/141/78 90/138/75
f 101/151/86 102/152/87 95/143/80 93/141/78
f 102/152/87 103/153/88 97/145/82 95/143/80
f 103/153/88 99/154/84 89/147/74 97/145/82
f 104/155/89 105/156/90 100/150/85 99/149/84
f 105/156/90 106/157/91 101/151/86 100/150/85
f 106/157/91 107/158/92 102/152/87 101/151/86
f 107/158/92 108/159/93 103/153/88 102/152/87
f 108/159/93 104/160/89 99/154/84 103/153/88
f 98/146/83 109/161/94 96/144/81
f 78/122/63 110/162/95 76/120/61
f 91/139/76 94/142/79 109/161/94
f 109/161/94 94/142/79 96/144/81
f 92/140/77 109/161/94 98/146/83
f 91/139/76 109/161/94 92/140/77
f 71/115/56 74/118/59 110/162/95
f 110/162/95 74/118/59 76/120/61
f 72/116/57 110/162/95 78/122/63
f 71/115/56 110/162/95 72/116/57
f 111/163/96 112/164/97 113/165/98 114/166/99
f 112/164/97 115/167/100 116/168/101 113/165/98
f 115/167/100 117/169/102 118/170/103 116/168/101
f 117/169/102 119/171/104 120/172/105 118/170/103
f 119/171/104 111/173/96 114/174/99 120/172/105
f 121/175/106 122/176/107 112/164/97 111/163/96
f 122/176/107 123/177/108 115/167/100 112/164/97
f 123/177/108 124/178/109 117/169/102 115/167/100
f 124/178/109 125/179/110 119/171/104 117/169/102
f 125/179/110 121/180/106 111/173/96 119/171/104
f 126/181/111 127/182/112 122/176/107 121/175/106
f 127/182/112 128/183/113 123/177/108 122/176/107
f 128/183/113 129/184/114 124/178/109 123/177/108
f 129/184/114 130/185/115 125/179/110 124/178/109
f 130/185/115 126/186/111 121/180/106 125/179/110
f 120/172/105 131/187/116 118/170/103
f 113/165/98 116/168/101 131/187/116
f 131/187/116 116/168/101 118/170/103
f 114/166/99 131/187/116 120/172/105
f 113/165/98 131/187/116 114/166/99
f 132/188/117 133/189/118 134/190/119 135/191/120
f 133/189/118 136/192/121 137/193/122 134/190/119
f 136/192/121 138/194/123 139/195/124 137/193/122
f 138/194/123 140/196/125 141/197/126 139/195/124
f 140/196/125 132/198/117 135/199/120 141/197/126
f 142/200/127 143/201/128 133/189/118 132/188/117
f 143/201/128 144/202/129 136/192/121 133/189/118
f 144/202/129 145/203/130 138/194/123 136/192/121
f 145/203/130 146/204/131 140/196/125 138/194/123
f 146/204/131 142/205/127 132/198/117 140/196/125
f 147/206/132 148/207/133 143/201/128 142/200/127
f 148/207/133 149/208/134 144/202/129 143/201/128
f 149/208/134 150/209/135 145/203/130 144/202/129
f 150/209/135 151/210/136 146/204/131 145/203/130
f 151/210/136 147/211/132 142/205/127 146/204/131
f 141/197/126 152/212/137 139/195/124
f 134/190/119 137/193/122 152/212/137
f 152/212/137 137/193/122 139/195/124
f 135/191/120 152/212/137 141/197/126
f 134/190/119 152/212/137 135/191/120
