# This file uses centimeters as units for non-parametric coordinates.

v 3.110045 0.022853 -13.658072
v 3.110045 0.128891 -13.658072
v 3.554132 0.022853 -13.625326
v 3.554132 0.128891 -13.625326
v 3.115170 0.022853 -13.899386
v 3.114779 0.128891 -13.880913
v 3.391007 0.022853 -14.112111
v 3.390614 0.128891 -14.093635
v 3.975209 0.022853 -13.037833
v 3.975209 0.128891 -13.037833
v 4.151415 0.022853 -12.951613
v 4.151415 0.128891 -12.951613
v 4.096983 0.022853 -13.141007
v 4.087661 0.128891 -13.133109
v 4.323187 0.022853 -13.097569
v 4.313864 0.128891 -13.089669
v 3.361071 0.022853 -12.383247
v 3.361071 0.128891 -12.383247
v 3.373080 0.022853 -12.948645
v 3.373080 0.128891 -12.948645
v 3.938477 0.022853 -12.936636
v 3.938477 0.128891 -12.936636
v 3.926468 0.022853 -12.371239
v 3.926468 0.128891 -12.371239
v 3.697588 0.022853 -13.209700
v 3.697588 0.128891 -13.209700
v 4.262985 0.022853 -13.197692
v 4.262985 0.128891 -13.197692
v 3.702713 0.022853 -13.451014
v 3.702321 0.128891 -13.432540
v 4.271753 0.022853 -13.610503
v 4.271360 0.128891 -13.592027
v 3.971346 0.022853 -11.657836
v 3.971346 0.128891 -11.657836
v 4.119379 0.022853 -12.203643
v 4.119379 0.128891 -12.203643
v 4.665185 0.022853 -12.055610
v 4.665185 0.128891 -12.055610
v 4.517152 0.022853 -11.509803
v 4.517152 0.128891 -11.509803
v 4.665615 0.022853 -12.337894
v 4.665615 0.128891 -12.337894
v 4.265728 0.022853 -12.737782
v 4.265728 0.128891 -12.737782
v 4.665615 0.022853 -13.137669
v 4.665615 0.128891 -13.137669
v 5.065501 0.022853 -12.737782
v 5.065501 0.128891 -12.737782
vt 0.375000 0.000000
vt 0.625000 0.000000
vt 0.375000 0.750000
vt 0.625000 0.750000
vt 0.375000 1.000000
vt 0.625000 1.000000
vt 0.875000 0.000000
vt 0.125000 0.000000
vt 0.375000 0.106701
vt 0.625000 0.098532
vt 0.125000 0.182531
vt 0.375000 0.567469
vt 0.625000 0.575638
vt 0.875000 0.174362
vt 0.375000 0.000000
vt 0.625000 0.000000
vt 0.625000 0.098532
vt 0.375000 0.106701
vt 0.375000 0.750000
vt 0.625000 0.750000
vt 0.625000 1.000000
vt 0.375000 1.000000
vt 0.875000 0.000000
vt 0.875000 0.174362
vt 0.125000 0.000000
vt 0.125000 0.182531
vt 0.375000 0.567469
vt 0.625000 0.575638
vt 0.375000 0.000000
vt 0.625000 0.000000
vt 0.625000 0.250000
vt 0.375000 0.250000
vt 0.625000 0.500000
vt 0.375000 0.500000
vt 0.625000 0.750000
vt 0.375000 0.750000
vt 0.625000 1.000000
vt 0.375000 1.000000
vt 0.875000 0.000000
vt 0.875000 0.250000
vt 0.125000 0.000000
vt 0.125000 0.250000
vt 0.375000 0.000000
vt 0.625000 0.000000
vt 0.625000 0.098532
vt 0.375000 0.106701
vt 0.375000 0.750000
vt 0.625000 0.750000
vt 0.625000 1.000000
vt 0.375000 1.000000
vt 0.875000 0.000000
vt 0.875000 0.174362
vt 0.125000 0.000000
vt 0.125000 0.182531
vt 0.375000 0.567469
vt 0.625000 0.575638
vt 0.375000 0.000000
vt 0.625000 0.000000
vt 0.625000 0.250000
vt 0.375000 0.250000
vt 0.625000 0.500000
vt 0.375000 0.500000
vt 0.625000 0.750000
vt 0.375000 0.750000
vt 0.625000 1.000000
vt 0.375000 1.000000
vt 0.875000 0.000000
vt 0.875000 0.250000
vt 0.125000 0.000000
vt 0.125000 0.250000
vt 0.375000 0.000000
vt 0.625000 0.000000
vt 0.625000 0.250000
vt 0.375000 0.250000
vt 0.625000 0.500000
vt 0.375000 0.500000
vt 0.625000 0.750000
vt 0.375000 0.750000
vt 0.625000 1.000000
vt 0.375000 1.000000
vt 0.875000 0.000000
vt 0.875000 0.250000
vt 0.125000 0.000000
vt 0.125000 0.250000
vn -0.999775 0.000005 -0.021235
vn -0.999775 0.000005 -0.021235
vn -0.999775 0.000005 -0.021235
vn -0.999775 0.000005 -0.021235
vn -0.073539 0.000000 0.997292
vn -0.073539 0.000000 0.997292
vn -0.073539 0.000000 0.997292
vn -0.073539 0.000000 0.997292
vn 0.000000 1.000000 0.000000
vn 0.000000 1.000000 0.000000
vn 0.000000 1.000000 0.000000
vn 0.000000 1.000000 0.000000
vn 0.000000 -1.000000 0.000000
vn 0.000000 -1.000000 0.000000
vn 0.000000 -1.000000 0.000000
vn 0.000000 -1.000000 0.000000
vn 0.945771 0.029926 -0.323454
vn 0.945771 0.029926 -0.323454
vn 0.945771 0.029926 -0.323454
vn 0.945771 0.029926 -0.323454
vn -0.605138 0.134478 -0.784681
vn -0.605138 0.134478 -0.784681
vn -0.605138 0.134478 -0.784681
vn -0.605138 0.134478 -0.784681
vn -0.646437 0.000004 -0.762967
vn -0.646437 0.000004 -0.762967
vn -0.646437 0.000004 -0.762967
vn -0.646437 0.000004 -0.762967
vn -0.439518 0.000000 0.898234
vn -0.439518 0.000000 0.898234
vn -0.439518 0.000000 0.898234
vn -0.439518 0.000000 0.898234
vn 0.000000 1.000000 0.000000
vn 0.000000 1.000000 0.000000
vn 0.000000 1.000000 0.000000
vn 0.000000 1.000000 0.000000
vn 0.000000 -1.000000 0.000000
vn 0.000000 -1.000000 0.000000
vn 0.000000 -1.000000 0.000000
vn 0.000000 -1.000000 0.000000
vn 0.647546 0.000085 0.762026
vn 0.647546 0.000085 0.762026
vn 0.647546 0.000085 0.762026
vn 0.647546 0.000085 0.762026
vn 0.187838 0.089374 -0.978125
vn 0.187838 0.089374 -0.978125
vn 0.187838 0.089374 -0.978125
vn 0.187838 0.089374 -0.978125
vn -0.999775 0.000000 -0.021235
vn -0.999775 0.000000 -0.021235
vn -0.999775 0.000000 -0.021235
vn -0.999775 0.000000 -0.021235
vn 0.021235 0.000000 -0.999775
vn 0.021235 0.000000 -0.999775
vn 0.021235 0.000000 -0.999775
vn 0.021235 0.000000 -0.999775
vn 0.999775 0.000000 0.021235
vn 0.999775 0.000000 0.021235
vn 0.999775 0.000000 0.021235
vn 0.999775 0.000000 0.021235
vn -0.021235 0.000000 0.999775
vn -0.021235 0.000000 0.999775
vn -0.021235 0.000000 0.999775
vn -0.021235 0.000000 0.999775
vn 0.000000 1.000000 -0.000000
vn 0.000000 1.000000 -0.000000
vn 0.000000 1.000000 -0.000000
vn 0.000000 1.000000 -0.000000
vn 0.000000 -1.000000 -0.000000
vn 0.000000 -1.000000 -0.000000
vn 0.000000 -1.000000 -0.000000
vn 0.000000 -1.000000 -0.000000
vn -0.999775 0.000002 -0.021235
vn -0.999775 0.000002 -0.021235
vn -0.999775 0.000002 -0.021235
vn -0.999775 0.000002 -0.021235
vn -0.021233 0.000000 0.999775
vn -0.021233 0.000000 0.999775
vn -0.021233 0.000000 0.999775
vn -0.021233 0.000000 0.999775
vn 0.000000 1.000000 -0.000000
vn 0.000000 1.000000 -0.000000
vn 0.000000 1.000000 -0.000000
vn 0.000000 1.000000 -0.000000
vn 0.000000 -1.000000 0.000000
vn 0.000000 -1.000000 0.000000
vn 0.000000 -1.000000 0.000000
vn 0.000000 -1.000000 0.000000
vn 0.999775 0.000000 0.021235
vn 0.999775 0.000000 0.021235
vn 0.999775 0.000000 0.021235
vn 0.999775 0.000000 0.021235
vn -0.266200 0.164497 -0.949778
vn -0.266200 0.164497 -0.949778
vn -0.266200 0.164497 -0.949778
vn -0.266200 0.164497 -0.949778
vn -0.965133 0.000000 -0.261762
vn -0.965133 0.000000 -0.261762
vn -0.965133 0.000000 -0.261762
vn -0.965133 0.000000 -0.261762
vn 0.261763 0.000000 -0.965132
vn 0.261763 0.000000 -0.965132
vn 0.261763 0.000000 -0.965132
vn 0.261763 0.000000 -0.965132
vn 0.965133 0.000000 0.261762
vn 0.965133 0.000000 0.261762
vn 0.965133 0.000000 0.261762
vn 0.965133 0.000000 0.261762
vn -0.261761 0.000000 0.965133
vn -0.261761 0.000000 0.965133
vn -0.261761 0.000000 0.965133
vn -0.261761 0.000000 0.965133
vn 0.000000 1.000000 -0.000000
vn 0.000000 1.000000 -0.000000
vn 0.000000 1.000000 -0.000000
vn 0.000000 1.000000 -0.000000
vn 0.000000 -1.000000 -0.000000
vn 0.000000 -1.000000 -0.000000
vn 0.000000 -1.000000 -0.000000
vn 0.000000 -1.000000 -0.000000
vn -0.707107 0.000000 0.707107
vn -0.707107 0.000000 0.707107
vn -0.707107 0.000000 0.707107
vn -0.707107 0.000000 0.707107
vn -0.707108 0.000000 -0.707106
vn -0.707108 0.000000 -0.707106
vn -0.707108 0.000000 -0.707106
vn -0.707108 0.000000 -0.707106
vn 0.707108 0.000000 -0.707106
vn 0.707108 0.000000 -0.707106
vn 0.707108 0.000000 -0.707106
vn 0.707108 0.000000 -0.707106
vn 0.707107 0.000000 0.707107
vn 0.707107 0.000000 0.707107
vn 0.707107 0.000000 0.707107
vn 0.707107 0.000000 0.707107
vn 0.000000 1.000000 0.000000
vn 0.000000 1.000000 0.000000
vn 0.000000 1.000000 0.000000
vn 0.000000 1.000000 0.000000
vn 0.000000 -1.000000 0.000000
vn 0.000000 -1.000000 0.000000
vn 0.000000 -1.000000 0.000000
vn 0.000000 -1.000000 0.000000
s off
f 1/1/1 2/2/2 6/10/3 5/9/4
f 3/3/5 4/4/6 2/6/7 1/5/8
f 2/2/9 4/7/10 8/14/11 6/10/12
f 3/8/13 1/1/14 5/9/15 7/11/16
f 7/12/17 8/13/18 4/4/19 3/3/20
f 5/9/21 6/10/22 8/13/23 7/11/24
f 9/15/25 10/16/26 14/17/27 13/18/28
f 11/19/29 12/20/30 10/21/31 9/22/32
f 10/16/33 12/23/34 16/24/35 14/17/36
f 11/25/37 9/15/38 13/18/39 15/26/40
f 15/27/41 16/28/42 12/20/43 11/19/44
f 13/18/45 14/17/46 16/28/47 15/26/48
f 17/29/49 18/30/50 20/31/51 19/32/52
f 19/32/53 20/31/54 22/33/55 21/34/56
f 21/34/57 22/33/58 24/35/59 23/36/60
f 23/36/61 24/35/62 18/37/63 17/38/64
f 18/30/65 24/39/66 22/40/67 20/31/68
f 23/41/69 17/29/70 19/32/71 21/42/72
f 25/43/73 26/44/74 30/45/75 29/46/76
f 27/47/77 28/48/78 26/49/79 25/50/80
f 26/44/81 28/51/82 32/52/83 30/45/84
f 27/53/85 25/43/86 29/46/87 31/54/88
f 31/55/89 32/56/90 28/48/91 27/47/92
f 29/46/93 30/45/94 32/56/95 31/54/96
f 33/57/97 34/58/98 36/59/99 35/60/100
f 35/60/101 36/59/102 38/61/103 37/62/104
f 37/62/105 38/61/106 40/63/107 39/64/108
f 39/64/109 40/63/110 34/65/111 33/66/112
f 34/58/113 40/67/114 38/68/115 36/59/116
f 39/69/117 33/57/118 35/60/119 37/70/120
f 41/71/121 42/72/122 44/73/123 43/74/124
f 43/74/125 44/73/126 46/75/127 45/76/128
f 45/76/129 46/75/130 48/77/131 47/78/132
f 47/78/133 48/77/134 42/79/135 41/80/136
f 42/72/137 48/81/138 46/82/139 44/73/140
f 47/83/141 41/71/142 43/74/143 45/84/144
