# Blender v2.80 (sub 75) OBJ File: 'baketest.blend'
# www.blender.org
mtllib LillyPad_01.mtl
o Pad01
v 0.219179 0.166857 -0.220097
v -0.000646 0.166857 -0.311152
v -0.000646 0.319364 -0.369268
v 0.260274 0.319364 -0.261192
v -0.220471 0.166857 -0.220097
v -0.261566 0.319364 -0.261192
v -0.311526 0.166857 -0.000272
v -0.369642 0.319364 -0.000272
v -0.220471 0.166857 0.219554
v -0.261566 0.319364 0.260648
v -0.000646 0.166857 0.310609
v -0.000646 0.319364 0.368725
v 0.219179 0.166857 0.219554
v 0.260274 0.319364 0.260648
v 0.310234 0.166857 -0.000272
v 0.368351 0.319364 -0.000272
v -0.000646 -0.000653 -0.000272
v -0.000646 0.319364 -0.000272
vt 0.027870 0.459373
vt 0.045247 0.459373
vt 0.045247 0.615096
vt 0.027870 0.615096
vt 0.062624 0.459373
vt 0.062624 0.615096
vt 0.080000 0.459373
vt 0.080000 0.615096
vt 0.097377 0.459373
vt 0.097377 0.615096
vt 0.114754 0.459373
vt 0.114754 0.615096
vt 0.132131 0.459373
vt 0.132131 0.615096
vt 0.149508 0.459373
vt 0.149508 0.615096
vt 0.166885 0.459373
vt 0.166885 0.615096
vt 0.097377 0.447418
vt 0.158814 0.472865
vt 0.097377 0.530827
vt 0.035941 0.472865
vt 0.010493 0.534302
vt 0.035941 0.595738
vt 0.097377 0.621186
vt 0.158814 0.595738
vt 0.184262 0.534302
vt 0.158814 0.598601
vt 0.097377 0.624049
vt 0.097377 0.533689
vt 0.035941 0.598601
vt 0.010493 0.537165
vt 0.035941 0.475728
vt 0.097377 0.450280
vt 0.158814 0.475728
vt 0.184262 0.537165
vn 0.5597 -0.6112 -0.5597
vn 0.0000 -0.6112 -0.7915
vn 0.0000 0.5722 -0.8201
vn 0.5799 0.5722 -0.5799
vn -0.5597 -0.6112 -0.5597
vn -0.5799 0.5722 -0.5799
vn -0.7915 -0.6112 -0.0000
vn -0.8201 0.5722 -0.0000
vn -0.5597 -0.6112 0.5597
vn -0.5799 0.5722 0.5799
vn 0.0000 -0.6112 0.7915
vn -0.0000 0.5722 0.8201
vn 0.5597 -0.6112 0.5597
vn 0.5799 0.5722 0.5799
vn 0.7915 -0.6112 -0.0000
vn 0.8201 0.5722 0.0000
vn 0.0000 -1.0000 -0.0000
vn 0.0000 1.0000 0.0000
usemtl Default_OBJ.005
s 1
f 1/1/1 2/2/2 3/3/3 4/4/4
f 2/2/2 5/5/5 6/6/6 3/3/3
f 5/5/5 7/7/7 8/8/8 6/6/6
f 7/7/7 9/9/9 10/10/10 8/8/8
f 9/9/9 11/11/11 12/12/12 10/10/10
f 11/11/11 13/13/13 14/14/14 12/12/12
f 13/13/13 15/15/15 16/16/16 14/14/14
f 15/15/15 1/17/1 4/18/4 16/16/16
f 2/19/2 1/20/1 17/21/17
f 5/22/5 2/19/2 17/21/17
f 7/23/7 5/22/5 17/21/17
f 9/24/9 7/23/7 17/21/17
f 11/25/11 9/24/9 17/21/17
f 13/26/13 11/25/11 17/21/17
f 15/27/15 13/26/13 17/21/17
f 1/20/1 15/27/15 17/21/17
f 4/28/4 3/29/3 18/30/18
f 3/29/3 6/31/6 18/30/18
f 6/31/6 8/32/8 18/30/18
f 8/32/8 10/33/10 18/30/18
f 10/33/10 12/34/12 18/30/18
f 12/34/12 14/35/14 18/30/18
f 14/35/14 16/36/16 18/30/18
f 16/36/16 4/28/4 18/30/18
