# Blender v2.80 (sub 75) OBJ File: 'baketest.blend'
# www.blender.org
mtllib LillyPad_02.mtl
o Pad02
v 1.212354 0.167598 0.174576
v 0.992529 0.167598 0.083521
v 0.992529 0.320105 0.025405
v 1.253448 0.320105 0.133482
v 0.772703 0.167598 0.174576
v 0.731608 0.320105 0.133482
v 0.681648 0.167598 0.394402
v 0.623532 0.320105 0.394402
v 0.772703 0.167598 0.614227
v 0.731608 0.320105 0.655322
v 0.992529 0.167598 0.705282
v 0.992529 0.320105 0.763398
v 1.212354 0.167598 0.614227
v 1.253448 0.320105 0.655322
v 1.303409 0.167598 0.394402
v 1.361526 0.320105 0.394402
v 0.992529 0.000088 0.394402
v 0.992529 0.320105 0.394402
v 0.219660 0.167598 -0.217959
v -0.000165 0.167598 -0.309014
v -0.000165 0.320105 -0.367130
v 0.260755 0.320105 -0.259054
v -0.219991 0.167598 -0.217959
v -0.261086 0.320105 -0.259054
v -0.311046 0.167598 0.001866
v -0.369162 0.320105 0.001866
v -0.219991 0.167598 0.221692
v -0.261086 0.320105 0.262786
v -0.000165 0.167598 0.312747
v -0.000165 0.320105 0.370863
v 0.219660 0.167598 0.221692
v 0.260755 0.320105 0.262786
v 0.310715 0.167598 0.001866
v 0.368832 0.320105 0.001866
v -0.000165 0.000088 0.001866
v -0.000165 0.320105 0.001866
v 0.637472 0.167598 0.386463
v 0.417646 0.167598 0.295408
v 0.417646 0.320105 0.237291
v 0.678567 0.320105 0.345368
v 0.197822 0.167598 0.386463
v 0.156727 0.320105 0.345368
v 0.106767 0.167598 0.606288
v 0.048650 0.320105 0.606288
v 0.197822 0.167598 0.826114
v 0.156727 0.320105 0.867209
v 0.417646 0.167598 0.917169
v 0.417646 0.320105 0.975285
v 0.637472 0.167598 0.826114
v 0.678567 0.320105 0.867209
v 0.728527 0.167598 0.606288
v 0.786643 0.320105 0.606288
v 0.417646 0.000088 0.606288
v 0.417646 0.320105 0.606288
v -0.784976 0.165863 0.534704
v -0.953941 0.165863 0.464716
v -0.953941 0.283084 0.420046
v -0.753389 0.283084 0.503118
v -1.122906 0.165863 0.534704
v -1.154492 0.283084 0.503118
v -1.192893 0.165863 0.703669
v -1.237565 0.283084 0.703669
v -1.122906 0.165863 0.872634
v -1.154492 0.283084 0.904221
v -0.953941 0.165863 0.942622
v -0.953941 0.283084 0.987292
v -0.784976 0.165863 0.872634
v -0.753389 0.283084 0.904221
v -0.714989 0.165863 0.703669
v -0.670318 0.283084 0.703669
v -0.953941 0.037108 0.703669
v -0.953941 0.283084 0.703669
v -0.270574 0.137937 -0.739823
v -0.460280 0.137937 -0.818403
v -0.460280 0.269549 -0.868557
v -0.235109 0.269549 -0.775288
v -0.649988 0.137937 -0.739823
v -0.685452 0.269549 -0.775288
v -0.728567 0.137937 -0.550116
v -0.778722 0.269549 -0.550116
v -0.649988 0.137937 -0.360409
v -0.685452 0.269549 -0.324944
v -0.460280 0.137937 -0.281829
v -0.460280 0.269549 -0.231675
v -0.270574 0.137937 -0.360408
v -0.235109 0.269549 -0.324944
v -0.191994 0.137937 -0.550116
v -0.141840 0.269549 -0.550116
v -0.460280 -0.006623 -0.550116
v -0.460280 0.269549 -0.550116
vt 0.029096 0.253141
vt 0.047385 0.253141
vt 0.047385 0.417033
vt 0.029096 0.417033
vt 0.065673 0.253141
vt 0.065673 0.417033
vt 0.083962 0.253141
vt 0.083962 0.417033
vt 0.102250 0.253141
vt 0.102250 0.417033
vt 0.120539 0.253141
vt 0.120539 0.417033
vt 0.138827 0.253141
vt 0.138827 0.417033
vt 0.157116 0.253141
vt 0.157116 0.417033
vt 0.175404 0.253141
vt 0.175404 0.417033
vt 0.102250 0.240559
vt 0.166910 0.267341
vt 0.102250 0.328343
vt 0.037591 0.267341
vt 0.010808 0.332001
vt 0.037591 0.396660
vt 0.102250 0.423443
vt 0.166910 0.396660
vt 0.193692 0.332001
vt 0.166910 0.399673
vt 0.102250 0.426456
vt 0.102250 0.331356
vt 0.037591 0.399673
vt 0.010808 0.335014
vt 0.037591 0.270354
vt 0.102250 0.243572
vt 0.166910 0.270354
vt 0.193692 0.335014
vt 0.027870 0.459373
vt 0.045247 0.459373
vt 0.045247 0.615096
vt 0.027870 0.615096
vt 0.062624 0.459373
vt 0.062624 0.615096
vt 0.080000 0.459373
vt 0.080000 0.615096
vt 0.097377 0.459373
vt 0.097377 0.615096
vt 0.114754 0.459373
vt 0.114754 0.615096
vt 0.132131 0.459373
vt 0.132131 0.615096
vt 0.149508 0.459373
vt 0.149508 0.615096
vt 0.166885 0.459373
vt 0.166885 0.615096
vt 0.097377 0.447418
vt 0.158814 0.472865
vt 0.097377 0.530827
vt 0.035941 0.472865
vt 0.010493 0.534302
vt 0.035941 0.595738
vt 0.097377 0.621186
vt 0.158814 0.595738
vt 0.184262 0.534302
vt 0.158814 0.598601
vt 0.097377 0.624049
vt 0.097377 0.533689
vt 0.035941 0.598601
vt 0.010493 0.537165
vt 0.035941 0.475728
vt 0.097377 0.450280
vt 0.158814 0.475728
vt 0.184262 0.537165
vt 0.029693 0.646547
vt 0.046614 0.646547
vt 0.046614 0.798185
vt 0.029693 0.798185
vt 0.063535 0.646547
vt 0.063535 0.798185
vt 0.080456 0.646547
vt 0.080456 0.798185
vt 0.097377 0.646547
vt 0.097377 0.798185
vt 0.114298 0.646547
vt 0.114298 0.798185
vt 0.131219 0.646547
vt 0.131219 0.798185
vt 0.148141 0.646547
vt 0.148141 0.798185
vt 0.165062 0.646547
vt 0.165062 0.798185
vt 0.097377 0.634905
vt 0.157202 0.659685
vt 0.097377 0.716126
vt 0.037552 0.659685
vt 0.012772 0.719510
vt 0.037552 0.779335
vt 0.097377 0.804116
vt 0.157202 0.779335
vt 0.181983 0.719510
vt 0.157202 0.782123
vt 0.097377 0.806903
vt 0.097377 0.718914
vt 0.037552 0.782123
vt 0.012772 0.722298
vt 0.037552 0.662473
vt 0.097377 0.637693
vt 0.157202 0.662473
vt 0.181983 0.722298
vt 0.029676 0.842166
vt 0.044774 0.842166
vt 0.044774 0.977466
vt 0.029676 0.977466
vt 0.059872 0.842166
vt 0.059872 0.977466
vt 0.074970 0.842166
vt 0.074970 0.977466
vt 0.090068 0.842166
vt 0.090068 0.977466
vt 0.105166 0.842166
vt 0.105166 0.977466
vt 0.120264 0.842166
vt 0.120264 0.977466
vt 0.135362 0.842166
vt 0.135362 0.977466
vt 0.150460 0.842166
vt 0.150460 0.977466
vt 0.090068 0.831778
vt 0.143447 0.853889
vt 0.090068 0.904248
vt 0.036689 0.853889
vt 0.014578 0.907268
vt 0.036689 0.960647
vt 0.090068 0.982758
vt 0.143447 0.960647
vt 0.165558 0.907268
vt 0.143447 0.963134
vt 0.090068 0.985245
vt 0.090068 0.906736
vt 0.036689 0.963134
vt 0.014578 0.909755
vt 0.036689 0.856376
vt 0.090068 0.834265
vt 0.143447 0.856376
vt 0.165558 0.909755
vt 0.029710 0.041603
vt 0.048454 0.041603
vt 0.048454 0.209580
vt 0.029710 0.209580
vt 0.067198 0.041603
vt 0.067198 0.209580
vt 0.085942 0.041603
vt 0.085942 0.209580
vt 0.104687 0.041603
vt 0.104687 0.209580
vt 0.123431 0.041603
vt 0.123431 0.209580
vt 0.142175 0.041603
vt 0.142175 0.209580
vt 0.160919 0.041603
vt 0.160919 0.209580
vt 0.179664 0.041603
vt 0.179664 0.209580
vt 0.104687 0.028707
vt 0.170958 0.056157
vt 0.104687 0.118679
vt 0.038416 0.056157
vt 0.010966 0.122428
vt 0.038416 0.188699
vt 0.104687 0.216149
vt 0.170958 0.188699
vt 0.198408 0.122428
vt 0.170958 0.191787
vt 0.104687 0.219237
vt 0.104687 0.121767
vt 0.038416 0.191787
vt 0.010966 0.125516
vt 0.038416 0.059245
vt 0.104687 0.031795
vt 0.170958 0.059245
vt 0.198408 0.125516
vn 0.5597 -0.6112 -0.5597
vn 0.0000 -0.6112 -0.7915
vn 0.0000 0.5722 -0.8201
vn 0.5799 0.5722 -0.5799
vn -0.5597 -0.6112 -0.5597
vn -0.5799 0.5722 -0.5799
vn -0.7915 -0.6112 0.0000
vn -0.8201 0.5722 -0.0000
vn -0.5597 -0.6112 0.5597
vn -0.5799 0.5722 0.5799
vn 0.0000 -0.6112 0.7915
vn -0.0000 0.5722 0.8201
vn 0.5597 -0.6112 0.5597
vn 0.5799 0.5722 0.5799
vn 0.7915 -0.6112 0.0000
vn 0.8201 0.5722 0.0000
vn 0.0000 -1.0000 0.0000
vn 0.0000 1.0000 0.0000
usemtl Default_OBJ.007
s 1
f 1/1/1 2/2/2 3/3/3 4/4/4
f 2/2/2 5/5/5 6/6/6 3/3/3
f 5/5/5 7/7/7 8/8/8 6/6/6
f 7/7/7 9/9/9 10/10/10 8/8/8
f 9/9/9 11/11/11 12/12/12 10/10/10
f 11/11/11 13/13/13 14/14/14 12/12/12
f 13/13/13 15/15/15 16/16/16 14/14/14
f 15/15/15 1/17/1 4/18/4 16/16/16
f 2/19/2 1/20/1 17/21/17
f 5/22/5 2/19/2 17/21/17
f 7/23/7 5/22/5 17/21/17
f 9/24/9 7/23/7 17/21/17
f 11/25/11 9/24/9 17/21/17
f 13/26/13 11/25/11 17/21/17
f 15/27/15 13/26/13 17/21/17
f 1/20/1 15/27/15 17/21/17
f 4/28/4 3/29/3 18/30/18
f 3/29/3 6/31/6 18/30/18
f 6/31/6 8/32/8 18/30/18
f 8/32/8 10/33/10 18/30/18
f 10/33/10 12/34/12 18/30/18
f 12/34/12 14/35/14 18/30/18
f 14/35/14 16/36/16 18/30/18
f 16/36/16 4/28/4 18/30/18
f 19/37/1 20/38/2 21/39/3 22/40/4
f 20/38/2 23/41/5 24/42/6 21/39/3
f 23/41/5 25/43/7 26/44/8 24/42/6
f 25/43/7 27/45/9 28/46/10 26/44/8
f 27/45/9 29/47/11 30/48/12 28/46/10
f 29/47/11 31/49/13 32/50/14 30/48/12
f 31/49/13 33/51/15 34/52/16 32/50/14
f 33/51/15 19/53/1 22/54/4 34/52/16
f 20/55/2 19/56/1 35/57/17
f 23/58/5 20/55/2 35/57/17
f 25/59/7 23/58/5 35/57/17
f 27/60/9 25/59/7 35/57/17
f 29/61/11 27/60/9 35/57/17
f 31/62/13 29/61/11 35/57/17
f 33/63/15 31/62/13 35/57/17
f 19/56/1 33/63/15 35/57/17
f 22/64/4 21/65/3 36/66/18
f 21/65/3 24/67/6 36/66/18
f 24/67/6 26/68/8 36/66/18
f 26/68/8 28/69/10 36/66/18
f 28/69/10 30/70/12 36/66/18
f 30/70/12 32/71/14 36/66/18
f 32/71/14 34/72/16 36/66/18
f 34/72/16 22/64/4 36/66/18
f 37/73/1 38/74/2 39/75/3 40/76/4
f 38/74/2 41/77/5 42/78/6 39/75/3
f 41/77/5 43/79/7 44/80/8 42/78/6
f 43/79/7 45/81/9 46/82/10 44/80/8
f 45/81/9 47/83/11 48/84/12 46/82/10
f 47/83/11 49/85/13 50/86/14 48/84/12
f 49/85/13 51/87/15 52/88/16 50/86/14
f 51/87/15 37/89/1 40/90/4 52/88/16
f 38/91/2 37/92/1 53/93/17
f 41/94/5 38/91/2 53/93/17
f 43/95/7 41/94/5 53/93/17
f 45/96/9 43/95/7 53/93/17
f 47/97/11 45/96/9 53/93/17
f 49/98/13 47/97/11 53/93/17
f 51/99/15 49/98/13 53/93/17
f 37/92/1 51/99/15 53/93/17
f 40/100/4 39/101/3 54/102/18
f 39/101/3 42/103/6 54/102/18
f 42/103/6 44/104/8 54/102/18
f 44/104/8 46/105/10 54/102/18
f 46/105/10 48/106/12 54/102/18
f 48/106/12 50/107/14 54/102/18
f 50/107/14 52/108/16 54/102/18
f 52/108/16 40/100/4 54/102/18
f 55/109/1 56/110/2 57/111/3 58/112/4
f 56/110/2 59/113/5 60/114/6 57/111/3
f 59/113/5 61/115/7 62/116/8 60/114/6
f 61/115/7 63/117/9 64/118/10 62/116/8
f 63/117/9 65/119/11 66/120/12 64/118/10
f 65/119/11 67/121/13 68/122/14 66/120/12
f 67/121/13 69/123/15 70/124/16 68/122/14
f 69/123/15 55/125/1 58/126/4 70/124/16
f 56/127/2 55/128/1 71/129/17
f 59/130/5 56/127/2 71/129/17
f 61/131/7 59/130/5 71/129/17
f 63/132/9 61/131/7 71/129/17
f 65/133/11 63/132/9 71/129/17
f 67/134/13 65/133/11 71/129/17
f 69/135/15 67/134/13 71/129/17
f 55/128/1 69/135/15 71/129/17
f 58/136/4 57/137/3 72/138/18
f 57/137/3 60/139/6 72/138/18
f 60/139/6 62/140/8 72/138/18
f 62/140/8 64/141/10 72/138/18
f 64/141/10 66/142/12 72/138/18
f 66/142/12 68/143/14 72/138/18
f 68/143/14 70/144/16 72/138/18
f 70/144/16 58/136/4 72/138/18
f 73/145/1 74/146/2 75/147/3 76/148/4
f 74/146/2 77/149/5 78/150/6 75/147/3
f 77/149/5 79/151/7 80/152/8 78/150/6
f 79/151/7 81/153/9 82/154/10 80/152/8
f 81/153/9 83/155/11 84/156/12 82/154/10
f 83/155/11 85/157/13 86/158/14 84/156/12
f 85/157/13 87/159/15 88/160/16 86/158/14
f 87/159/15 73/161/1 76/162/4 88/160/16
f 74/163/2 73/164/1 89/165/17
f 77/166/5 74/163/2 89/165/17
f 79/167/7 77/166/5 89/165/17
f 81/168/9 79/167/7 89/165/17
f 83/169/11 81/168/9 89/165/17
f 85/170/13 83/169/11 89/165/17
f 87/171/15 85/170/13 89/165/17
f 73/164/1 87/171/15 89/165/17
f 76/172/4 75/173/3 90/174/18
f 75/173/3 78/175/6 90/174/18
f 78/175/6 80/176/8 90/174/18
f 80/176/8 82/177/10 90/174/18
f 82/177/10 84/178/12 90/174/18
f 84/178/12 86/179/14 90/174/18
f 86/179/14 88/180/16 90/174/18
f 88/180/16 76/172/4 90/174/18
